SplineFontDB: 3.0
FontName: Nobile
FullName: Nobile
FamilyName: Nobile-bold-italic
Weight: Bold
Copyright: Copyright (c) 2007 by vernon adams. All rights reserved.
Version: 1.000;PS 001.000;hotconv 1.0.38
ItalicAngle: -7.8
UnderlinePosition: -292
UnderlineWidth: 40
Ascent: 1638
Descent: 410
LayerCount: 2
Layer: 0 1 "Back"  1
Layer: 1 1 "Fore"  0
XUID: [1021 579 912382147 12519847]
FSType: 0
OS2Version: 2
OS2_WeightWidthSlopeOnly: 0
OS2_UseTypoMetrics: 1
CreationTime: 1275036752
ModificationTime: 1275172757
PfmFamily: 17
TTFWeight: 700
TTFWidth: 5
LineGap: 0
VLineGap: 0
Panose: 2 0 0 0 0 0 0 0 0 0
OS2TypoAscent: 0
OS2TypoAOffset: 1
OS2TypoDescent: 0
OS2TypoDOffset: 1
OS2TypoLinegap: 0
OS2WinAscent: 0
OS2WinAOffset: 1
OS2WinDescent: 0
OS2WinDOffset: 1
HheadAscent: 0
HheadAOffset: 1
HheadDescent: 0
HheadDOffset: 1
OS2SubXSize: 1434
OS2SubYSize: 1331
OS2SubXOff: 0
OS2SubYOff: 287
OS2SupXSize: 1434
OS2SupYSize: 1331
OS2SupXOff: 0
OS2SupYOff: 977
OS2StrikeYSize: 102
OS2StrikeYPos: 512
OS2Vendor: 'pyrs'
OS2CodePages: 00000001.00000000
OS2UnicodeRanges: 00000001.00000000.00000000.00000000
DEI: 91125
TtTable: prep
PUSHW_1
 511
SCANCTRL
PUSHB_1
 1
SCANTYPE
SVTCA[y-axis]
MPPEM
PUSHB_1
 8
LT
IF
PUSHB_2
 1
 1
INSTCTRL
EIF
PUSHB_2
 70
 6
CALL
IF
POP
PUSHB_1
 16
EIF
MPPEM
PUSHB_1
 20
GT
IF
POP
PUSHB_1
 128
EIF
SCVTCI
PUSHB_1
 6
CALL
NOT
IF
SVTCA[y-axis]
PUSHB_1
 5
DUP
RCVT
PUSHB_1
 3
CALL
WCVTP
PUSHB_1
 6
DUP
RCVT
PUSHB_3
 5
 14
 2
CALL
PUSHB_1
 3
CALL
WCVTP
PUSHB_1
 7
DUP
RCVT
PUSHW_3
 5
 284
 2
CALL
PUSHB_1
 3
CALL
WCVTP
PUSHB_1
 8
DUP
RCVT
PUSHB_3
 7
 47
 2
CALL
PUSHB_1
 3
CALL
WCVTP
PUSHB_1
 9
DUP
RCVT
PUSHB_3
 8
 30
 2
CALL
PUSHB_1
 3
CALL
WCVTP
PUSHB_1
 10
DUP
RCVT
PUSHB_3
 9
 12
 2
CALL
PUSHB_1
 3
CALL
WCVTP
SVTCA[x-axis]
PUSHB_1
 11
DUP
RCVT
PUSHB_1
 3
CALL
WCVTP
PUSHB_1
 18
DUP
RCVT
PUSHB_3
 11
 109
 2
CALL
PUSHB_2
 3
 70
SROUND
CALL
WCVTP
PUSHB_1
 17
DUP
RCVT
PUSHB_3
 18
 78
 2
CALL
PUSHB_2
 3
 70
SROUND
CALL
WCVTP
PUSHB_1
 16
DUP
RCVT
PUSHB_3
 17
 53
 2
CALL
PUSHB_2
 3

StartChar: .notdef
Encoding: 65536 -1 0
Width: 748
Flags: W
HStem: 0 68<136 544> 1297 68<136 544>
VStem: 68 68<68 1297> 544 68<68 1297>
LayerCount: 2
Fore
SplineSet
68 0 m 1,0,-1
 68 1365 l 1,1,-1
 612 1365 l 1,2,-1
 612 0 l 1,3,-1
 68 0 l 1,0,-1
136 68 m 1,4,-1
 544 68 l 1,5,-1
 544 1297 l 1,6,-1
 136 1297 l 1,7,-1
 136 68 l 1,4,-1
EndSplineSet
EndChar

StartChar: exclam
Encoding: 33 33 4
Width: 667
GlyphClass: 2
Flags: W
HStem: -25 316<197.824 389.176> 1555 20G<305.837 696>
VStem: 131 565
LayerCount: 2
Fore
SplineSet
131 133 m 128,-1,1
 140 200 140 200 196 245.5 c 128,-1,2
 252 291 252 291 316 291 c 128,-1,3
 380 291 380 291 422.5 245.5 c 128,-1,4
 465 200 465 200 456 133 c 128,-1,5
 447 66 447 66 391 20.5 c 128,-1,6
 335 -25 335 -25 271 -25 c 128,-1,7
 207 -25 207 -25 164.5 20.5 c 128,-1,0
 122 66 122 66 131 133 c 128,-1,1
696 1575 m 1,8,-1
 435 423 l 1,9,-1
 240 423 l 1,10,-1
 307 1575 l 1,11,-1
 696 1575 l 1,8,-1
EndSplineSet
EndChar

StartChar: quotedbl
Encoding: 34 34 5
Width: 1113
GlyphClass: 2
Flags: W
LayerCount: 2
Fore
SplineSet
232 766 m 1,0,-1
 421 766 l 1,1,-1
 642 1576 l 1,2,-1
 268 1576 l 1,3,-1
 232 766 l 1,0,-1
736 766 m 1,4,-1
 925 766 l 1,5,-1
 1146 1576 l 1,6,-1
 772 1576 l 1,7,-1
 736 766 l 1,4,-1
EndSplineSet
EndChar

StartChar: numbersign
Encoding: 35 35 6
Width: 1088
GlyphClass: 2
Flags: W
HStem: 550 144<166 285 503 639 855 989> 895 145<241 374 591 725 946 1059> 1287 20G<826.206 1012>
DStem2: 219 295 399 295 0.248375 0.968664<44.7076 263.402 457.035 619.697 814.05 1046.8> 573 295 754 295 0.247039 0.969006<44.7141 263.401 456.298 618.953 814.055 1044.37>
LayerCount: 2
Fore
SplineSet
639 550 m 1,0,-1
 466 550 l 1,1,-1
 399 295 l 1,2,-1
 219 295 l 1,3,-1
 285 550 l 1,4,-1
 146 550 l 1,5,-1
 166 694 l 1,6,-1
 320 694 l 1,7,-1
 374 895 l 1,8,-1
 220 895 l 1,9,-1
 241 1040 l 1,10,-1
 413 1040 l 1,11,-1
 479 1309 l 1,12,-1
 658 1309 l 1,13,-1
 591 1040 l 1,14,-1
 767 1040 l 1,15,-1
 831 1307 l 1,16,-1
 1012 1307 l 1,17,-1
 946 1040 l 1,18,-1
 1080 1040 l 1,19,-1
 1059 895 l 1,20,-1
 909 895 l 1,21,-1
 855 694 l 1,22,-1
 1010 694 l 1,23,-1
 989 550 l 1,24,-1
 818 550 l 1,25,-1
 754 295 l 1,26,-1
 573 295 l 1,27,-1
 639 550 l 1,0,-1
503 694 m 1,28,-1
 673 694 l 1,29,-1
 725 895 l 1,30,-1
 556 895 l 1,31,-1
 503 694 l 1,28,-1
EndSplineSet
EndChar

StartChar: dollar
Encoding: 36 36 7
Width: 1328
GlyphClass: 2
Flags: W
HStem: -37 278<395.839 487 647 800.523> 1320 279<578.535 771 929 1029.83> 1598 21G<824.5 833.648>
VStem: 219 315<1076.15 1275.45> 894 323<324.725 551.618>
DStem2: 461 -147 566 -147 0.20588 0.978577<21.6174 125.718 417.982 841.591 1187.55 1499.4 1796.14 1929.13>
LayerCount: 2
Fore
SplineSet
1217 519 m 0,0,1
 1217 595 1217 595 1200 654 c 128,-1,2
 1183 713 1183 713 1157 752 c 128,-1,3
 1131 791 1131 791 1087 824 c 128,-1,4
 1043 857 1043 857 1000.5 879.5 c 128,-1,5
 958 902 958 902 897 930 c 2,6,-1
 870 942 l 1,7,-1
 800 975 l 1,8,-1
 871 1314 l 1,9,10
 924 1314 924 1314 998.5 1287 c 128,-1,11
 1073 1260 1073 1260 1121 1234 c 128,-1,12
 1169 1208 1169 1208 1169 1206 c 2,13,-1
 1291 1482 l 1,14,-1
 1280 1488 l 1,15,-1
 1250 1502 l 1,16,-1
 1206 1524 l 1,17,18
 1180 1535 1180 1535 1147 1546.5 c 128,-1,19
 1114 1558 1114 1558 1080 1568 c 128,-1,20
 1046 1578 1046 1578 1006 1584 c 128,-1,21
 966 1590 966 1590 929 1590 c 1,22,-1
 963 1740 l 1,23,-1
 862 1740 l 1,24,-1
 829 1598 l 1,25,26
 820 1598 820 1598 799.5 1598.5 c 128,-1,27
 779 1599 779 1599 769 1599 c 0,28,29
 669 1599 669 1599 572.5 1567.5 c 128,-1,30
 476 1536 476 1536 396.5 1478 c 128,-1,31
 317 1420 317 1420 268 1326.5 c 128,-1,32
 219 1233 219 1233 219 1120 c 0,33,34
 219 1082 219 1082 224.5 1048.5 c 128,-1,35
 230 1015 230 1015 238.5 989 c 128,-1,36
 247 963 247 963 262 938.5 c 128,-1,37
 277 914 277 914 290.5 896.5 c 128,-1,38
 304 879 304 879 326.5 860.5 c 128,-1,39
 349 842 349 842 365 831 c 128,-1,40
 381 820 381 820 408 806 c 2,41,-1
 452 783 l 2,42,43
 468 775 468 775 497 762 c 128,-1,44
 526 749 526 749 540 742 c 2,45,-1
 639 695 l 1,46,-1
 544 248 l 1,47,48
 499 249 499 249 418 277.5 c 128,-1,49
 337 306 337 306 278 333 c 128,-1,50
 219 360 219 360 219 363 c 2,51,-1
 130 86 l 1,52,-1
 146 78 l 2,53,54
 163 69 163 69 197.5 54.5 c 128,-1,55
 232 40 232 40 273.5 25.5 c 128,-1,56
 315 11 315 11 372.5 -3 c 128,-1,57
 430 -17 430 -17 487 -24 c 1,58,-1
 461 -147 l 1,59,-1
 566 -147 l 1,60,-1
 589 -37 l 1,61,-1
 594 -37 l 2,62,63
 770 -37 770 -37 911.5 32 c 128,-1,64
 1053 101 1053 101 1135 228.5 c 128,-1,65
 1217 356 1217 356 1217 519 c 0,0,1
771 1320 m 1,66,-1
 706 1015 l 1,67,-1
 633 1046 l 2,68,69
 587 1065 587 1065 563.5 1089.5 c 128,-1,70
 540 1114 540 1114 537 1129.5 c 128,-1,71
 534 1145 534 1145 534 1171 c 0,72,73
 534 1208 534 1208 547 1235.5 c 128,-1,74
 560 1263 560 1263 581 1278.5 c 128,-1,75
 602 1294 602 1294 635 1303.5 c 128,-1,76
 668 1313 668 1313 699 1316.5 c 128,-1,77
 730 1320 730 1320 771 1320 c 1,66,-1
647 241 m 1,78,-1
 732 656 l 1,79,-1
 790 629 l 1,80,81
 856 597 856 597 875.5 553 c 128,-1,82
 895 509 895 509 894 437 c 0,83,84
 894 389 894 389 871.5 351.5 c 128,-1,85
 849 314 849 314 811.5 291.5 c 128,-1,86
 774 269 774 269 733 257 c 128,-1,87
 692 245 692 245 647 241 c 1,78,-1
EndSplineSet
EndChar

StartChar: percent
Encoding: 37 37 8
Width: 2081
GlyphClass: 2
Flags: W
HStem: -23 213<1392.23 1597.36> 647 203<1441.49 1646.3> 711 206<544.488 744.302> 1379 200<593.371 795.324>
VStem: 300 217<951.043 1289.03> 823 227<1011.02 1344.96> 1134 233<217.73 557.996> 1672 208<274.327 617.492>
DStem2: 517 -7 704 -107 0.490827 0.871257<4.65897 1929.4>
LayerCount: 2
Fore
SplineSet
1481 190 m 0,0,1
 1634 190 1634 190 1661 385 c 1,2,3
 1672 475 1672 475 1672 505 c 0,4,5
 1672 572 1672 572 1645 609.5 c 128,-1,6
 1618 647 1618 647 1551 647 c 0,7,8
 1476 647 1476 647 1433.5 593.5 c 128,-1,9
 1391 540 1391 540 1374 418 c 0,10,11
 1367 373 1367 373 1367 334 c 0,12,13
 1367 258 1367 258 1395.5 224 c 128,-1,14
 1424 190 1424 190 1481 190 c 0,0,1
817 1150 m 0,15,16
 823 1196 823 1196 823 1231 c 0,17,18
 823 1313 823 1313 791.5 1346 c 128,-1,19
 760 1379 760 1379 701 1379 c 0,20,21
 631 1379 631 1379 586 1326.5 c 128,-1,22
 541 1274 541 1274 524 1150 c 0,23,24
 517 1105 517 1105 517 1066 c 0,25,26
 517 983 517 983 548 950 c 128,-1,27
 579 917 579 917 636 917 c 0,28,29
 707 917 707 917 753 970.5 c 128,-1,30
 799 1024 799 1024 817 1150 c 0,15,16
517 -7 m 1,31,-1
 1464 1674 l 1,32,-1
 1647 1574 l 1,33,-1
 704 -107 l 1,34,-1
 517 -7 l 1,31,-1
1880 520 m 0,35,36
 1880 452 1880 452 1866.5 380.5 c 128,-1,37
 1853 309 1853 309 1822 236 c 128,-1,38
 1791 163 1791 163 1745.5 106 c 128,-1,39
 1700 49 1700 49 1629.5 13 c 128,-1,40
 1559 -23 1559 -23 1474 -23 c 0,41,42
 1379 -23 1379 -23 1310 6 c 128,-1,43
 1241 35 1241 35 1204 85.5 c 128,-1,44
 1167 136 1167 136 1150.5 192.5 c 128,-1,45
 1134 249 1134 249 1134 315 c 0,46,47
 1134 365 1134 365 1142.5 419 c 128,-1,48
 1151 473 1151 473 1169.5 535 c 128,-1,49
 1188 597 1188 597 1222.5 652 c 128,-1,50
 1257 707 1257 707 1303 752 c 128,-1,51
 1349 797 1349 797 1419 823.5 c 128,-1,52
 1489 850 1489 850 1573 850 c 0,53,54
 1659 850 1659 850 1721.5 822.5 c 128,-1,55
 1784 795 1784 795 1817 746.5 c 128,-1,56
 1850 698 1850 698 1865 642.5 c 128,-1,57
 1880 587 1880 587 1880 520 c 0,35,36
1050 1243 m 0,58,59
 1050 1202 1050 1202 1044 1157 c 128,-1,60
 1038 1112 1038 1112 1023.5 1059.5 c 128,-1,61
 1009 1007 1009 1007 987 958.5 c 128,-1,62
 965 910 965 910 929.5 864.5 c 128,-1,63
 894 819 894 819 849.5 785 c 128,-1,64
 805 751 805 751 742.5 731 c 128,-1,65
 680 711 680 711 607 711 c 0,66,67
 536 711 536 711 481 732 c 128,-1,68
 426 753 426 753 392.5 786 c 128,-1,69
 359 819 359 819 337.5 865 c 128,-1,70
 316 911 316 911 308 956 c 128,-1,71
 300 1001 300 1001 300 1050 c 0,72,73
 300 1094 300 1094 306 1130 c 0,74,75
 322 1241 322 1241 356.5 1324.5 c 128,-1,76
 391 1408 391 1408 433 1455.5 c 128,-1,77
 475 1503 475 1503 528.5 1532 c 128,-1,78
 582 1561 582 1561 627 1570 c 128,-1,79
 672 1579 672 1579 722 1579 c 0,80,81
 814 1579 814 1579 880.5 1551 c 128,-1,82
 947 1523 947 1523 982.5 1473.5 c 128,-1,83
 1018 1424 1018 1424 1034 1367.5 c 128,-1,84
 1050 1311 1050 1311 1050 1243 c 0,58,59
EndSplineSet
EndChar

StartChar: ampersand
Encoding: 38 38 9
Width: 1644
GlyphClass: 2
Flags: W
HStem: -40 257<494.078 947.993> 1387 225<701.799 967.747>
VStem: 118 296<290.325 566.031> 375 276<1091.33 1335.86> 1002 250<1136.14 1356.2>
DStem2: 921 826 695 708 0.687328 -0.726347<-431.425 -323.753 0 380.591 705.535 963.985>
LayerCount: 2
Fore
SplineSet
761 1023 m 1,0,1
 797 1035 797 1035 822.5 1045 c 128,-1,2
 848 1055 848 1055 885 1076.5 c 128,-1,3
 922 1098 922 1098 945 1121.5 c 128,-1,4
 968 1145 968 1145 985 1182.5 c 128,-1,5
 1002 1220 1002 1220 1002 1264 c 0,6,7
 1002 1326 1002 1326 960.5 1356.5 c 128,-1,8
 919 1387 919 1387 848 1387 c 0,9,10
 799 1387 799 1387 762.5 1375 c 128,-1,11
 726 1363 726 1363 705 1345 c 128,-1,12
 684 1327 684 1327 671.5 1303 c 128,-1,13
 659 1279 659 1279 655 1258.5 c 128,-1,14
 651 1238 651 1238 651 1217 c 0,15,16
 651 1194 651 1194 657 1170.5 c 128,-1,17
 663 1147 663 1147 673 1128.5 c 128,-1,18
 683 1110 683 1110 694.5 1093 c 128,-1,19
 706 1076 706 1076 717.5 1063.5 c 128,-1,20
 729 1051 729 1051 739 1042 c 2,21,-1
 755 1028 l 1,22,-1
 761 1023 l 1,0,1
1252 1320 m 0,23,24
 1252 1287 1252 1287 1244 1242 c 128,-1,25
 1236 1197 1236 1197 1213 1134.5 c 128,-1,26
 1190 1072 1190 1072 1155 1016 c 128,-1,27
 1120 960 1120 960 1059 907.5 c 128,-1,28
 998 855 998 855 921 826 c 1,29,-1
 1182 549 l 1,30,-1
 1261 901 l 1,31,-1
 1528 894 l 1,32,33
 1510 763 1510 763 1471 629 c 128,-1,34
 1432 495 1432 495 1402 426 c 2,35,-1
 1373 357 l 1,36,-1
 1588 130 l 1,37,-1
 1425 -54 l 1,38,-1
 1231 148 l 1,39,40
 1225 140 1225 140 1213 127.5 c 128,-1,41
 1201 115 1201 115 1154 82.5 c 128,-1,42
 1107 50 1107 50 1048.5 25.5 c 128,-1,43
 990 1 990 1 887 -19.5 c 128,-1,44
 784 -40 784 -40 664 -40 c 128,-1,45
 544 -40 544 -40 446.5 -17.5 c 128,-1,46
 349 5 349 5 274.5 51.5 c 128,-1,47
 200 98 200 98 159 175 c 128,-1,48
 118 252 118 252 118 354 c 0,49,50
 118 393 118 393 124 435 c 0,51,52
 135 512 135 512 162.5 577 c 128,-1,53
 190 642 190 642 226 688 c 128,-1,54
 262 734 262 734 313.5 774.5 c 128,-1,55
 365 815 365 815 413.5 842 c 128,-1,56
 462 869 462 869 525 897 c 1,57,58
 519 903 519 903 509 914 c 128,-1,59
 499 925 499 925 473 959.5 c 128,-1,60
 447 994 447 994 427 1030 c 128,-1,61
 407 1066 407 1066 391 1118.5 c 128,-1,62
 375 1171 375 1171 375 1221 c 0,63,64
 375 1335 375 1335 442 1425.5 c 128,-1,65
 509 1516 509 1516 619.5 1564 c 128,-1,66
 730 1612 730 1612 863 1612 c 0,67,68
 1040 1612 1040 1612 1146 1533.5 c 128,-1,69
 1252 1455 1252 1455 1252 1320 c 0,23,24
695 708 m 1,70,71
 414 636 414 636 414 416 c 0,72,73
 414 217 414 217 700 217 c 0,74,75
 765 217 765 217 825.5 227.5 c 128,-1,76
 886 238 886 238 926 253 c 128,-1,77
 966 268 966 268 997 284 c 128,-1,78
 1028 300 1028 300 1042 310 c 128,-1,79
 1056 320 1056 320 1056 322 c 1,80,-1
 695 708 l 1,70,71
EndSplineSet
EndChar

StartChar: quotesingle
Encoding: 39 39 10
Width: 724
GlyphClass: 2
Flags: W
LayerCount: 2
Fore
SplineSet
232 766 m 1,0,-1
 421 766 l 1,1,-1
 642 1576 l 1,2,-1
 268 1576 l 1,3,-1
 232 766 l 1,0,-1
EndSplineSet
EndChar

StartChar: parenleft
Encoding: 40 40 11
Width: 775
GlyphClass: 2
Flags: W
VStem: 208 297<169.642 837.081>
LayerCount: 2
Fore
SplineSet
905 1468 m 1,0,1
 734 1317 734 1317 619.5 1050.5 c 128,-1,2
 505 784 505 784 505 488 c 0,3,4
 505 305 505 305 554.5 155.5 c 128,-1,5
 604 6 604 6 689 -94 c 1,6,-1
 511 -305 l 1,7,8
 372 -178 372 -178 290 20.5 c 128,-1,9
 208 219 208 219 208 468 c 0,10,11
 208 835 208 835 369.5 1164 c 128,-1,12
 531 1493 531 1493 786 1679 c 1,13,-1
 905 1468 l 1,0,1
EndSplineSet
EndChar

StartChar: parenright
Encoding: 41 41 12
Width: 794
GlyphClass: 2
Flags: W
VStem: 454 297<537.964 1204.36>
LayerCount: 2
Fore
SplineSet
172 -305 m 1,0,1
 428 -118 428 -118 589.5 211 c 128,-1,2
 751 540 751 540 751 906 c 0,3,4
 751 1155 751 1155 669 1353.5 c 128,-1,5
 587 1552 587 1552 448 1679 c 1,6,-1
 270 1468 l 1,7,8
 355 1368 355 1368 404.5 1218.5 c 128,-1,9
 454 1069 454 1069 454 886 c 0,10,11
 454 592 454 592 340 324.5 c 128,-1,12
 226 57 226 57 54 -94 c 1,13,-1
 172 -305 l 1,0,1
EndSplineSet
EndChar

StartChar: asterisk
Encoding: 42 42 13
Width: 1053
GlyphClass: 2
Flags: W
HStem: 1094 194<186 408 761 988>
DStem2: 235 854 399 746 0.557392 0.830249<1.74543 289.631 670.391 942.989>
LayerCount: 2
Fore
SplineSet
617 1405 m 1,0,-1
 759 1638 l 1,1,-1
 924 1528 l 1,2,-1
 761 1288 l 1,3,-1
 1015 1288 l 1,4,-1
 988 1094 l 1,5,-1
 739 1094 l 1,6,-1
 844 854 l 1,7,-1
 649 746 l 1,8,-1
 558 986 l 1,9,-1
 399 746 l 1,10,-1
 235 854 l 1,11,-1
 408 1094 l 1,12,-1
 158 1094 l 1,13,-1
 186 1288 l 1,14,-1
 440 1288 l 1,15,-1
 344 1528 l 1,16,-1
 540 1638 l 1,17,-1
 617 1405 l 1,0,-1
EndSplineSet
EndChar

StartChar: plus
Encoding: 43 43 14
Width: 1047
GlyphClass: 2
Flags: W
HStem: 459 252<192 414 717 941>
DStem2: 371 154 639 154 0.135716 0.990748<36.3718 308.014 598.804 870.446>
LayerCount: 2
Fore
SplineSet
941 459 m 1,0,-1
 682 459 l 1,1,-1
 639 154 l 1,2,-1
 371 154 l 1,3,-1
 414 459 l 1,4,-1
 156 459 l 1,5,-1
 192 711 l 1,6,-1
 449 711 l 1,7,-1
 492 1016 l 1,8,-1
 760 1016 l 1,9,-1
 717 711 l 1,10,-1
 977 711 l 1,11,-1
 941 459 l 1,0,-1
EndSplineSet
EndChar

StartChar: comma
Encoding: 44 44 15
Width: 685
GlyphClass: 2
Flags: W
VStem: 111 466
LayerCount: 2
Fore
SplineSet
111 -1 m 1,0,-1
 171 426 l 1,1,-1
 577 426 l 1,2,-1
 516 1 l 2,3,4
 507 -59 507 -59 486 -110 c 128,-1,5
 465 -161 465 -161 437.5 -196 c 128,-1,6
 410 -231 410 -231 379 -259 c 128,-1,7
 348 -287 348 -287 318.5 -303.5 c 128,-1,8
 289 -320 289 -320 265.5 -330 c 128,-1,9
 242 -340 242 -340 227 -344.5 c 128,-1,10
 212 -349 212 -349 213 -348 c 1,11,-1
 133 -226 l 1,12,13
 133 -229 133 -229 171.5 -192.5 c 128,-1,14
 210 -156 210 -156 251.5 -100 c 128,-1,15
 293 -44 293 -44 299 -1 c 1,16,-1
 111 -1 l 1,0,-1
EndSplineSet
EndChar

StartChar: hyphen
Encoding: 45 45 16
Width: 1113
GlyphClass: 2
Flags: W
HStem: 604 232<178 960>
LayerCount: 2
Fore
SplineSet
960 604 m 1,0,-1
 146 604 l 1,1,-1
 178 836 l 1,2,-1
 993 836 l 1,3,-1
 960 604 l 1,0,-1
EndSplineSet
EndChar

StartChar: period
Encoding: 46 46 17
Width: 542
GlyphClass: 2
Flags: W
HStem: -12 365<160.124 342.614>
VStem: 81 339
LayerCount: 2
Fore
SplineSet
81 170 m 128,-1,1
 92 246 92 246 149 299.5 c 128,-1,2
 206 353 206 353 276 353 c 128,-1,3
 346 353 346 353 388.5 299.5 c 128,-1,4
 431 246 431 246 420 170 c 0,5,6
 410 94 410 94 353 41 c 128,-1,7
 296 -12 296 -12 225 -12 c 0,8,9
 155 -12 155 -12 112.5 41 c 128,-1,0
 70 94 70 94 81 170 c 128,-1,1
EndSplineSet
EndChar

StartChar: slash
Encoding: 47 47 18
Width: 1058
GlyphClass: 2
Flags: W
DStem2: 25 -27 232 -147 0.490602 0.871384<0 1943.67>
LayerCount: 2
Fore
SplineSet
25 -27 m 1,0,-1
 978 1667 l 1,1,-1
 1188 1551 l 1,2,-1
 232 -147 l 1,3,-1
 25 -27 l 1,0,-1
EndSplineSet
EndChar

StartChar: zero
Encoding: 48 48 19
Width: 1305
GlyphClass: 2
Flags: W
HStem: -27 260<507.792 780.59> 946 260<597.085 871.606>
VStem: 135 308<302.324 743.019> 940 305<447.72 874.959>
LayerCount: 2
Fore
SplineSet
639 233 m 0,0,1
 881 233 881 233 932 602 c 0,2,3
 940 658 940 658 940 703 c 0,4,5
 940 946 940 946 738 946 c 0,6,7
 672 946 672 946 620.5 917.5 c 128,-1,8
 569 889 569 889 535.5 838 c 128,-1,9
 502 787 502 787 481.5 726 c 128,-1,10
 461 665 461 665 452 592 c 1,11,12
 443 529 443 529 443 475 c 0,13,14
 443 233 443 233 639 233 c 0,0,1
775 1206 m 0,15,16
 1006 1206 1006 1206 1125.5 1080.5 c 128,-1,17
 1245 955 1245 955 1245 729 c 0,18,19
 1245 660 1245 660 1235 590 c 0,20,21
 1195 303 1195 303 1030 138 c 128,-1,22
 865 -27 865 -27 602 -27 c 0,23,24
 373 -27 373 -27 254 100 c 128,-1,25
 135 227 135 227 135 453 c 0,26,27
 135 521 135 521 145 590 c 0,28,29
 185 880 185 880 348 1043 c 128,-1,30
 511 1206 511 1206 775 1206 c 0,15,16
EndSplineSet
EndChar

StartChar: one
Encoding: 49 49 20
Width: 801
GlyphClass: 2
Flags: W
HStem: 0 21G<254 563.828>
VStem: 176 552
DStem2: 254 0 561 0 0.135716 0.990748<41.6647 917.378>
LayerCount: 2
Fore
SplineSet
254 0 m 1,0,-1
 385 908 l 1,1,-1
 230 853 l 1,2,-1
 176 1091 l 1,3,-1
 423 1183 l 1,4,-1
 728 1181 l 1,5,-1
 561 0 l 1,6,-1
 254 0 l 1,0,-1
EndSplineSet
EndChar

StartChar: two
Encoding: 50 50 21
Width: 1032
GlyphClass: 2
Flags: W
HStem: 0 268<567 875> 930 261<398.693 686.87>
DStem2: 448 492 567 268 0.777047 0.629442<-48.5264 350.657>
LayerCount: 2
Fore
SplineSet
704 786 m 0,0,1
 714 858 714 858 685 894 c 128,-1,2
 656 930 656 930 581 930 c 0,3,4
 526 930 526 930 443.5 904 c 128,-1,5
 361 878 361 878 306 852 c 2,6,-1
 251 825 l 1,7,-1
 201 1064 l 1,8,-1
 210 1068 l 1,9,10
 218 1073 218 1073 234 1080 c 2,11,-1
 271 1096 l 2,12,13
 292 1106 292 1106 319 1117 c 128,-1,14
 346 1128 346 1128 375.5 1138.5 c 128,-1,15
 405 1149 405 1149 438 1158.5 c 128,-1,16
 471 1168 471 1168 504 1175 c 128,-1,17
 537 1182 537 1182 572 1186.5 c 128,-1,18
 607 1191 607 1191 638 1191 c 0,19,20
 703 1191 703 1191 761 1180 c 128,-1,21
 819 1169 819 1169 872.5 1142.5 c 128,-1,22
 926 1116 926 1116 962 1076.5 c 128,-1,23
 998 1037 998 1037 1015 974.5 c 128,-1,24
 1032 912 1032 912 1021 834 c 0,25,26
 1005 716 1005 716 938 619.5 c 128,-1,27
 871 523 871 523 719 396 c 2,28,-1
 567 268 l 1,29,-1
 913 268 l 1,30,-1
 875 0 l 1,31,-1
 77 0 l 1,32,-1
 107 217 l 1,33,-1
 448 492 l 2,34,35
 452 495 452 495 484 521 c 2,36,-1
 526 555 l 1,37,-1
 565 588 l 1,38,39
 594 614 594 614 606 627 c 2,40,-1
 640 664 l 2,41,42
 661 687 661 687 671 704.5 c 128,-1,43
 681 722 681 722 691 744 c 128,-1,44
 701 766 701 766 704 786 c 0,0,1
EndSplineSet
EndChar

StartChar: three
Encoding: 51 51 22
Width: 995
GlyphClass: 2
Flags: W
HStem: -176 258<106.973 527.182> 424 246<365 524.171> 940 262<286.258 617.637>
VStem: 581 303<135.542 370.078> 643 291<733.029 915.35>
LayerCount: 2
Fore
SplineSet
330 424 m 1,0,-1
 365 670 l 1,1,2
 514 670 514 670 578.5 716.5 c 128,-1,3
 643 763 643 763 643 826 c 0,4,5
 643 881 643 881 613 910.5 c 128,-1,6
 583 940 583 940 504 940 c 0,7,8
 445 940 445 940 376 922.5 c 128,-1,9
 307 905 307 905 268 888 c 2,10,-1
 229 870 l 1,11,-1
 156 1099 l 1,12,-1
 175 1110 l 2,13,14
 194 1120 194 1120 228.5 1135 c 128,-1,15
 263 1150 263 1150 305.5 1165.5 c 128,-1,16
 348 1181 348 1181 405.5 1191.5 c 128,-1,17
 463 1202 463 1202 518 1202 c 0,18,19
 718 1202 718 1202 826 1129 c 128,-1,20
 934 1056 934 1056 934 891 c 0,21,22
 934 812 934 812 911 747 c 128,-1,23
 888 682 888 682 851 642.5 c 128,-1,24
 814 603 814 603 777 579.5 c 128,-1,25
 740 556 740 556 704 547 c 1,26,27
 785 525 785 525 834.5 451.5 c 128,-1,28
 884 378 884 378 884 285 c 0,29,30
 884 238 884 238 872.5 185 c 128,-1,31
 861 132 861 132 824.5 65.5 c 128,-1,32
 788 -1 788 -1 731 -53 c 128,-1,33
 674 -105 674 -105 572.5 -140.5 c 128,-1,34
 471 -176 471 -176 341 -176 c 0,35,36
 247 -176 247 -176 170 -159 c 128,-1,37
 93 -142 93 -142 63 -125 c 2,38,-1
 33 -108 l 1,39,-1
 112 134 l 1,40,41
 247 82 247 82 368 82 c 0,42,43
 433 82 433 82 478 99 c 128,-1,44
 523 116 523 116 544 144.5 c 128,-1,45
 565 173 565 173 573 200 c 128,-1,46
 581 227 581 227 581 258 c 0,47,48
 581 341 581 341 522 382 c 128,-1,49
 463 423 463 423 330 424 c 1,0,-1
EndSplineSet
EndChar

StartChar: four
Encoding: 52 52 23
Width: 1140
GlyphClass: 2
Flags: W
HStem: 113 256<447 615 935 1060>
DStem2: 125 366 447 369 0.609467 0.792811<198.627 693.656> 580 -135 870 -135 0.135716 0.990748<39.3575 250.456 549.497 841.607>
LayerCount: 2
Fore
SplineSet
730 1153 m 1,0,-1
 1044 1151 l 1,1,-1
 935 371 l 1,2,-1
 1096 371 l 1,3,-1
 1060 113 l 1,4,-1
 898 113 l 1,5,-1
 870 -135 l 1,6,-1
 580 -135 l 1,7,-1
 615 113 l 1,8,-1
 124 113 l 1,9,-1
 125 366 l 1,10,-1
 730 1153 l 1,0,-1
447 369 m 1,11,-1
 651 369 l 1,12,-1
 735 772 l 1,13,-1
 447 369 l 1,11,-1
EndSplineSet
EndChar

StartChar: five
Encoding: 53 53 24
Width: 1103
GlyphClass: 2
Flags: W
HStem: -182 254<275.914 621.465> 485 249<478.211 669.069> 924 245<511 998>
VStem: 716 293<167.279 439.193>
LayerCount: 2
Fore
SplineSet
1009 336 m 0,0,1
 1009 105 1009 105 852 -38.5 c 128,-1,2
 695 -182 695 -182 448 -182 c 0,3,4
 271 -182 271 -182 78 -90 c 1,5,-1
 174 166 l 1,6,-1
 180 163 l 2,7,8
 185 160 185 160 195 154.5 c 128,-1,9
 205 149 205 149 219 142 c 2,10,-1
 250 127 l 2,11,12
 268 119 268 119 288 111 c 128,-1,13
 308 103 308 103 331 96 c 128,-1,14
 354 89 354 89 377 83.5 c 128,-1,15
 400 78 400 78 426 75 c 128,-1,16
 452 72 452 72 477 72 c 0,17,18
 578 72 578 72 647 137 c 128,-1,19
 716 202 716 202 716 322 c 0,20,21
 716 399 716 399 670.5 442 c 128,-1,22
 625 485 625 485 544 485 c 2,23,-1
 542 485 l 2,24,25
 449 485 449 485 298 404 c 1,26,-1
 185 528 l 1,27,-1
 284 1169 l 1,28,-1
 1033 1169 l 1,29,-1
 998 924 l 1,30,-1
 511 924 l 1,31,-1
 469 681 l 2,32,33
 469 683 469 683 486 695 c 128,-1,34
 503 707 503 707 537.5 720.5 c 128,-1,35
 572 734 572 734 608 734 c 0,36,37
 784 734 784 734 896.5 621 c 128,-1,38
 1009 508 1009 508 1009 336 c 0,0,1
EndSplineSet
EndChar

StartChar: six
Encoding: 54 54 25
Width: 1221
GlyphClass: 2
Flags: W
HStem: -151 260<500.171 736.719> 570 253<594.006 789.102>
VStem: 141 306<160.467 528.875> 835 288<230.848 531.617>
LayerCount: 2
Fore
SplineSet
482 525 m 0,0,1
 482 526 482 526 509 536.5 c 128,-1,2
 536 547 536 547 583.5 558.5 c 128,-1,3
 631 570 631 570 672 570 c 0,4,5
 746 570 746 570 790.5 533 c 128,-1,6
 835 496 835 496 835 427 c 0,7,8
 835 406 835 406 832 382 c 0,9,10
 793 109 793 109 618 109 c 0,11,12
 447 109 447 109 447 320 c 0,13,14
 447 455 447 455 482 525 c 0,0,1
1123 412 m 0,15,16
 1123 528 1123 528 1083.5 619 c 128,-1,17
 1044 710 1044 710 958.5 766.5 c 128,-1,18
 873 823 873 823 753 823 c 0,19,20
 720 823 720 823 680.5 814.5 c 128,-1,21
 641 806 641 806 617.5 798 c 128,-1,22
 594 790 594 790 594 789 c 1,23,24
 671 880 671 880 783.5 947 c 128,-1,25
 896 1014 896 1014 1032 1043 c 1,26,-1
 996 1307 l 1,27,28
 870 1273 870 1273 757.5 1220.5 c 128,-1,29
 645 1168 645 1168 542 1089.5 c 128,-1,30
 439 1011 439 1011 360.5 913 c 128,-1,31
 282 815 282 815 226 685 c 128,-1,32
 170 555 170 555 149 405 c 0,33,34
 141 351 141 351 141 305 c 0,35,36
 141 104 141 104 257 -23.5 c 128,-1,37
 373 -151 373 -151 584 -151 c 0,38,39
 689 -151 689 -151 778.5 -117.5 c 128,-1,40
 868 -84 868 -84 930.5 -27.5 c 128,-1,41
 993 29 993 29 1037 102 c 128,-1,42
 1081 175 1081 175 1102 254 c 128,-1,43
 1123 333 1123 333 1123 412 c 0,15,16
EndSplineSet
EndChar

StartChar: seven
Encoding: 55 55 26
Width: 1009
GlyphClass: 2
Flags: W
HStem: 911 258<150 640>
DStem2: 92 -78 340 -215 0.490124 0.871653<2.13425 1130.65>
LayerCount: 2
Fore
SplineSet
966 1169 m 1,0,-1
 1017 989 l 1,1,-1
 340 -215 l 1,2,-1
 92 -78 l 1,3,-1
 640 911 l 1,4,-1
 145 911 l 1,5,-1
 150 1169 l 1,6,-1
 966 1169 l 1,0,-1
EndSplineSet
EndChar

StartChar: eight
Encoding: 56 56 27
Width: 1190
GlyphClass: 2
Flags: W
HStem: -127 252<444.366 714.646> 526 188<558.811 736.67> 1069 234<572.487 825.541>
VStem: 111 304<155.56 400.779> 230 290<757.786 1019> 779 296<189.09 478.868> 848 296<808.566 1044.84>
LayerCount: 2
Fore
SplineSet
705 1069 m 0,0,1
 652 1069 652 1069 614 1053 c 128,-1,2
 576 1037 576 1037 556.5 1008.5 c 128,-1,3
 537 980 537 980 528.5 948.5 c 128,-1,4
 520 917 520 917 520 879 c 0,5,6
 520 809 520 809 556.5 761.5 c 128,-1,7
 593 714 593 714 660 714 c 0,8,9
 714 714 714 714 753.5 739.5 c 128,-1,10
 793 765 793 765 812 804.5 c 128,-1,11
 831 844 831 844 839.5 881 c 128,-1,12
 848 918 848 918 848 953 c 0,13,14
 848 1069 848 1069 705 1069 c 0,0,1
630 526 m 0,15,16
 571 526 571 526 526 496 c 128,-1,17
 481 466 481 466 458.5 421 c 128,-1,18
 436 376 436 376 425.5 334.5 c 128,-1,19
 415 293 415 293 415 259 c 0,20,21
 415 125 415 125 574 125 c 0,22,23
 613 125 613 125 645.5 134 c 128,-1,24
 678 143 678 143 710 165.5 c 128,-1,25
 742 188 742 188 760.5 234 c 128,-1,26
 779 280 779 280 779 347 c 0,27,28
 779 425 779 425 741.5 475.5 c 128,-1,29
 704 526 704 526 630 526 c 0,15,16
230 884 m 0,30,31
 230 1071 230 1071 368 1187 c 128,-1,32
 506 1303 506 1303 733 1303 c 0,33,34
 852 1303 852 1303 942 1272.5 c 128,-1,35
 1032 1242 1032 1242 1088 1171.5 c 128,-1,36
 1144 1101 1144 1101 1144 998 c 0,37,38
 1144 853 1144 853 1058.5 745.5 c 128,-1,39
 973 638 973 638 849 612 c 1,40,41
 943 597 943 597 1009 517.5 c 128,-1,42
 1075 438 1075 438 1075 325 c 0,43,44
 1075 267 1075 267 1058 208 c 128,-1,45
 1041 149 1041 149 1000.5 88 c 128,-1,46
 960 27 960 27 900.5 -20 c 128,-1,47
 841 -67 841 -67 746.5 -97 c 128,-1,48
 652 -127 652 -127 537 -127 c 0,49,50
 450 -127 450 -127 375 -107.5 c 128,-1,51
 300 -88 300 -88 240 -49 c 128,-1,52
 180 -10 180 -10 145.5 56 c 128,-1,53
 111 122 111 122 111 209 c 0,54,55
 111 295 111 295 142 370.5 c 128,-1,56
 173 446 173 446 222 495 c 128,-1,57
 271 544 271 544 325.5 574 c 128,-1,58
 380 604 380 604 433 612 c 1,59,60
 342 632 342 632 286 706 c 128,-1,61
 230 780 230 780 230 884 c 0,30,31
EndSplineSet
EndChar

StartChar: nine
Encoding: 57 57 28
Width: 1172
GlyphClass: 2
Flags: W
HStem: -270 266<258.114 381.664> 215 258<458.132 656.968> 928 260<514.953 758.88>
VStem: 131 290<509.081 809.303> 814 303<486.905 874.518>
LayerCount: 2
Fore
SplineSet
765 481 m 2,0,1
 768 481 768 481 778.5 503 c 128,-1,2
 789 525 789 525 801.5 581.5 c 128,-1,3
 814 638 814 638 814 708 c 0,4,5
 814 928 814 928 644 928 c 0,6,7
 590 928 590 928 550.5 908 c 128,-1,8
 511 888 511 888 486.5 848.5 c 128,-1,9
 462 809 462 809 448 763.5 c 128,-1,10
 434 718 434 718 424 654 c 0,11,12
 421 633 421 633 421 614 c 0,13,14
 421 548 421 548 457 510.5 c 128,-1,15
 493 473 493 473 557 473 c 0,16,17
 609 473 609 473 661 475 c 128,-1,18
 713 477 713 477 739 479 c 2,19,-1
 765 481 l 2,0,1
131 612 m 0,20,21
 131 693 131 693 152 773.5 c 128,-1,22
 173 854 173 854 216.5 929 c 128,-1,23
 260 1004 260 1004 321.5 1061.5 c 128,-1,24
 383 1119 383 1119 470.5 1153.5 c 128,-1,25
 558 1188 558 1188 660 1188 c 0,26,27
 880 1188 880 1188 998.5 1073 c 128,-1,28
 1117 958 1117 958 1117 749 c 0,29,30
 1117 605 1117 605 1083.5 467 c 128,-1,31
 1050 329 1050 329 980 204 c 128,-1,32
 910 79 910 79 810 -19.5 c 128,-1,33
 710 -118 710 -118 568.5 -184.5 c 128,-1,34
 427 -251 427 -251 260 -270 c 1,35,-1
 225 -4 l 1,36,37
 530 61 530 61 659 233 c 1,38,39
 594 215 594 215 524 215 c 0,40,41
 345 215 345 215 238 323.5 c 128,-1,42
 131 432 131 432 131 612 c 0,20,21
EndSplineSet
EndChar

StartChar: colon
Encoding: 58 58 29
Width: 798
GlyphClass: 2
Flags: W
HStem: 0 432<219 547> 736 432<303 631>
VStem: 159 533
DStem2: 159 0 547 0 0.135716 0.990748<52.6576 436.146 793.248 1024.37>
LayerCount: 2
Fore
SplineSet
243 736 m 1,0,-1
 303 1168 l 1,1,-1
 692 1168 l 1,2,-1
 631 736 l 1,3,-1
 243 736 l 1,0,-1
159 0 m 1,4,-1
 219 432 l 1,5,-1
 608 432 l 1,6,-1
 547 0 l 1,7,-1
 159 0 l 1,4,-1
EndSplineSet
EndChar

StartChar: semicolon
Encoding: 59 59 30
Width: 808
GlyphClass: 2
Flags: W
HStem: 736 432<319 647>
VStem: 154 554
DStem2: 106.452 -348.111 500.685 -348.111 0.135716 0.990748<376.082 781.545 1147.44 1530.93>
LayerCount: 2
Fore
SplineSet
154 -1 m 1,0,-1
 214 426 l 1,1,-1
 608 426 l 1,2,-1
 557 63 l 2,3,4
 549 3 549 3 527.5 -51.5 c 128,-1,5
 506 -106 506 -106 479 -146.5 c 128,-1,6
 452 -187 452 -187 421.5 -221.5 c 128,-1,7
 391 -256 391 -256 361 -279 c 128,-1,8
 331 -302 331 -302 308 -317.5 c 128,-1,9
 285 -333 285 -333 270 -341 c 128,-1,10
 255 -349 255 -349 256 -348 c 1,11,-1
 176 -226 l 1,12,13
 176 -229 176 -229 214.5 -192.5 c 128,-1,14
 253 -156 253 -156 294.5 -100 c 128,-1,15
 336 -44 336 -44 342 -1 c 1,16,-1
 154 -1 l 1,0,-1
259 736 m 1,17,-1
 319 1168 l 1,18,-1
 708 1168 l 1,19,-1
 647 736 l 1,20,-1
 259 736 l 1,17,-1
EndSplineSet
EndChar

StartChar: less
Encoding: 60 60 31
Width: 1061
GlyphClass: 2
Flags: W
LayerCount: 2
Fore
SplineSet
954 862 m 1,0,-1
 429 579 l 1,1,-1
 873 285 l 1,2,-1
 826 -51 l 1,3,-1
 147 453 l 1,4,-1
 181 696 l 1,5,-1
 1002 1200 l 1,6,-1
 954 862 l 1,0,-1
EndSplineSet
EndChar

StartChar: equal
Encoding: 61 61 32
Width: 1246
GlyphClass: 2
Flags: W
HStem: 240 262<201 1090> 624 262<257 1147>
LayerCount: 2
Fore
SplineSet
1090 240 m 1,0,-1
 164 240 l 1,1,-1
 201 502 l 1,2,-1
 1127 502 l 1,3,-1
 1090 240 l 1,0,-1
1147 624 m 1,4,-1
 220 624 l 1,5,-1
 257 886 l 1,6,-1
 1184 886 l 1,7,-1
 1147 624 l 1,4,-1
EndSplineSet
EndChar

StartChar: greater
Encoding: 62 62 33
Width: 1052
GlyphClass: 2
Flags: W
HStem: -29 21G<169.857 199.579>
DStem2: 215 307 167 -29 0.852228 0.52317<0 563.734> 332 1200 296 884 0.80297 -0.596019<159.435 649.297>
LayerCount: 2
Fore
SplineSet
296 884 m 1,0,-1
 332 1200 l 1,1,-1
 1011 696 l 1,2,-1
 988 475 l 1,3,-1
 167 -29 l 1,4,-1
 215 307 l 1,5,-1
 696 601 l 1,6,-1
 296 884 l 1,0,-1
EndSplineSet
EndChar

StartChar: question
Encoding: 63 63 34
Width: 1081
GlyphClass: 2
Flags: W
HStem: -25 316<259.348 450.652> 1202 273<336.575 745.811>
VStem: 191 328<42.3911 223.609> 770 323<958.964 1174.14>
LayerCount: 2
Fore
SplineSet
770 1082 m 0,0,1
 770 1122 770 1122 753 1148 c 128,-1,2
 736 1174 736 1174 702 1185 c 128,-1,3
 668 1196 668 1196 637 1199 c 128,-1,4
 606 1202 606 1202 557 1202 c 0,5,6
 448 1202 448 1202 264 1153 c 1,7,-1
 242 1396 l 1,8,9
 323 1434 323 1434 449 1454.5 c 128,-1,10
 575 1475 575 1475 670 1475 c 0,11,12
 1093 1475 1093 1475 1093 1164 c 0,13,14
 1093 772 1093 772 602 594 c 1,15,-1
 569 363 l 1,16,-1
 243 363 l 1,17,-1
 291 709 l 1,18,19
 326 727 326 727 388 754 c 2,20,-1
 496 802 l 2,21,22
 543 822 543 822 597.5 853.5 c 128,-1,23
 652 885 652 885 687 915.5 c 128,-1,24
 722 946 722 946 746 989.5 c 128,-1,25
 770 1033 770 1033 770 1082 c 0,0,1
191 111 m 0,26,27
 191 182 191 182 247.5 236.5 c 128,-1,28
 304 291 304 291 377 291 c 0,29,30
 435 291 435 291 477 252.5 c 128,-1,31
 519 214 519 214 519 155 c 0,32,33
 519 84 519 84 462.5 29.5 c 128,-1,34
 406 -25 406 -25 333 -25 c 0,35,36
 275 -25 275 -25 233 13.5 c 128,-1,37
 191 52 191 52 191 111 c 0,26,27
EndSplineSet
EndChar

StartChar: at
Encoding: 64 64 35
Width: 1846
GlyphClass: 2
Flags: W
HStem: -37 219<676.631 1121.84> 311 196<808.246 1010.98> 1021 178<936.942 1233.23> 1353 231<876.226 1329.12>
VStem: 191 254<388.493 857.943> 571 214<532.026 850.481> 1541 246<697.961 1150.4>
DStem2: 1237 1002 1420 965 0.294237 0.955733<-422.304 0>
LayerCount: 2
Fore
SplineSet
1062 1021 m 128,-1,1
 1016 1021 1016 1021 965 994 c 1,2,3
 913 965 913 965 881 923 c 1,4,5
 831 853 831 853 828 848 c 0,6,7
 785 750 785 750 785 663 c 128,-1,8
 785 576 785 576 810 541.5 c 128,-1,9
 835 507 835 507 876 507 c 128,-1,10
 917 507 917 507 944 514.5 c 128,-1,11
 971 522 971 522 995 539.5 c 128,-1,12
 1019 557 1019 557 1040 575 c 256,13,14
 1061 593 1061 593 1080 624 c 2,15,-1
 1114 680 l 2,16,17
 1129 703 1129 703 1146 744 c 2,18,-1
 1173 811 l 2,19,20
 1194 862 1194 862 1194 863 c 2,21,-1
 1237 1002 l 1,22,23
 1237 1006 1237 1006 1172.5 1013.5 c 128,-1,0
 1108 1021 1108 1021 1062 1021 c 128,-1,1
1289 325 m 0,24,25
 1155 325 1155 325 1155 478 c 0,26,27
 1155 521 1155 521 1169 581 c 1,28,29
 1098 430 1098 430 1032.5 370.5 c 128,-1,30
 967 311 967 311 852 311 c 0,31,32
 712 311 712 311 634 404 c 0,33,34
 571 480 571 480 571 613.5 c 128,-1,35
 571 747 571 747 617 861 c 128,-1,36
 663 975 663 975 736 1042.5 c 128,-1,37
 809 1110 809 1110 904 1154.5 c 128,-1,38
 999 1199 999 1199 1090.5 1199 c 128,-1,39
 1182 1199 1182 1199 1255.5 1179.5 c 128,-1,40
 1329 1160 1329 1160 1378 1117 c 128,-1,41
 1427 1074 1427 1074 1427 1014 c 0,42,43
 1427 988 1427 988 1420 965 c 2,44,-1
 1283 520 l 1,45,46
 1421 551 1421 551 1481 659 c 128,-1,47
 1541 767 1541 767 1541 922 c 0,48,49
 1541 1142 1541 1142 1426 1247.5 c 128,-1,50
 1311 1353 1311 1353 1098 1353 c 0,51,52
 976 1353 976 1353 869 1305 c 128,-1,53
 762 1257 762 1257 685.5 1174.5 c 128,-1,54
 609 1092 609 1092 554 998 c 0,55,56
 445 810 445 810 445 598.5 c 128,-1,57
 445 387 445 387 573 284.5 c 128,-1,58
 701 182 701 182 929 182 c 0,59,60
 1036 182 1036 182 1116 215 c 2,61,-1
 1158 232 l 1,62,-1
 1163 235 l 1,63,-1
 1183 35 l 1,64,65
 1049 -37 1049 -37 862 -37 c 2,66,-1
 855 -37 l 2,67,68
 550 -37 550 -37 370.5 128 c 128,-1,69
 191 293 191 293 191 573 c 0,70,71
 191 796 191 796 298 1030 c 0,72,73
 409 1272 409 1272 620 1416 c 0,74,75
 867 1584 867 1584 1153 1584 c 0,76,77
 1407 1584 1407 1584 1599 1422 c 0,78,79
 1686 1348 1686 1348 1736.5 1224.5 c 128,-1,80
 1787 1101 1787 1101 1787 947.5 c 128,-1,81
 1787 794 1787 794 1723 648 c 128,-1,82
 1659 502 1659 502 1544 413.5 c 128,-1,83
 1429 325 1429 325 1289 325 c 0,24,25
EndSplineSet
EndChar

StartChar: A
Encoding: 65 65 36
Width: 1349
GlyphClass: 2
Flags: W
HStem: 0 21G<-11 339.9 978.084 1305> 391 160<564 891> 1557 20G<702.831 1027.56>
DStem2: -11 0 331 0 0.416754 0.909019<142.53 570.472 740.503 1072.72> 1024 1577 843 874 0.175423 -0.984493<392.049 986.759 1150.07 1545>
LayerCount: 2
Fore
SplineSet
812 1141 m 1,0,-1
 726 926 l 1,1,-1
 564 551 l 1,2,-1
 891 551 l 1,3,-1
 843 874 l 1,4,-1
 812 1141 l 1,0,-1
712 1577 m 1,5,-1
 1024 1577 l 1,6,-1
 1305 0 l 1,7,-1
 981 0 l 1,8,-1
 924 391 l 1,9,-1
 505 391 l 1,10,-1
 331 0 l 1,11,-1
 -11 0 l 1,12,-1
 712 1577 l 1,5,-1
EndSplineSet
EndChar

StartChar: B
Encoding: 66 66 37
Width: 1417
GlyphClass: 2
Flags: W
HStem: 0 238<481 881.795> 711 229<576 940.885> 1339 238<629 972.917>
VStem: 1018 327<356.269 652.218> 1042 303<1030.97 1277.99>
DStem2: 121 0 448.398 0 0.135716 0.990748<284.656 761.694 993.054 1395.55>
LayerCount: 2
Fore
SplineSet
713 940 m 2,0,1
 808 940 808 940 875.5 959 c 128,-1,2
 943 978 943 978 977.5 1010.5 c 128,-1,3
 1012 1043 1012 1043 1027 1078 c 128,-1,4
 1042 1113 1042 1113 1042 1154 c 0,5,6
 1042 1185 1042 1185 1037 1209 c 128,-1,7
 1032 1233 1032 1233 1014.5 1259 c 128,-1,8
 997 1285 997 1285 967 1301.5 c 128,-1,9
 937 1318 937 1318 884 1328.5 c 128,-1,10
 831 1339 831 1339 759 1339 c 2,11,-1
 629 1339 l 1,12,-1
 576 940 l 1,13,-1
 713 940 l 2,0,1
632 238 m 2,14,15
 723 238 723 238 789.5 251.5 c 128,-1,16
 856 265 856 265 909.5 296.5 c 128,-1,17
 963 328 963 328 990.5 387 c 128,-1,18
 1018 446 1018 446 1018 531 c 0,19,20
 1018 633 1018 633 945.5 672 c 128,-1,21
 873 711 873 711 715 711 c 2,22,-1
 543 711 l 1,23,-1
 481 238 l 1,24,-1
 632 238 l 2,14,15
1345 546 m 0,25,26
 1345 496 1345 496 1336.5 448 c 128,-1,27
 1328 400 1328 400 1304.5 344.5 c 128,-1,28
 1281 289 1281 289 1244.5 241 c 128,-1,29
 1208 193 1208 193 1147.5 148 c 128,-1,30
 1087 103 1087 103 1008.5 71 c 128,-1,31
 930 39 930 39 818.5 19.5 c 128,-1,32
 707 0 707 0 573 0 c 2,33,-1
 121 0 l 1,34,-1
 342 1577 l 1,35,-1
 711 1577 l 2,36,37
 1040 1577 1040 1577 1192.5 1484 c 128,-1,38
 1345 1391 1345 1391 1345 1205 c 0,39,40
 1345 911 1345 911 1030 854 c 1,41,42
 1165 823 1165 823 1255 744.5 c 128,-1,43
 1345 666 1345 666 1345 546 c 0,25,26
EndSplineSet
EndChar

StartChar: C
Encoding: 67 67 38
Width: 1181
GlyphClass: 2
Flags: W
HStem: -37 277<570.3 932.847> 1319 280<715.574 1101.53>
VStem: 128 328<364.175 952.252>
LayerCount: 2
Fore
SplineSet
128 558 m 0,0,1
 128 731 128 731 154.5 882 c 128,-1,2
 181 1033 181 1033 241 1166 c 128,-1,3
 301 1299 301 1299 391 1394 c 128,-1,4
 481 1489 481 1489 615 1543.5 c 128,-1,5
 749 1598 749 1598 916 1599 c 0,6,7
 956 1599 956 1599 995 1595.5 c 128,-1,8
 1034 1592 1034 1592 1066 1586 c 128,-1,9
 1098 1580 1098 1580 1128.5 1571.5 c 128,-1,10
 1159 1563 1159 1563 1182.5 1554 c 128,-1,11
 1206 1545 1206 1545 1226.5 1536 c 128,-1,12
 1247 1527 1247 1527 1262 1519 c 128,-1,13
 1277 1511 1277 1511 1287.5 1504.5 c 128,-1,14
 1298 1498 1298 1498 1303 1494 c 2,15,-1
 1308 1491 l 1,16,-1
 1199 1227 l 1,17,18
 1193 1231 1193 1231 1182 1237 c 128,-1,19
 1171 1243 1171 1243 1136.5 1259 c 128,-1,20
 1102 1275 1102 1275 1066 1287 c 128,-1,21
 1030 1299 1030 1299 978 1309 c 128,-1,22
 926 1319 926 1319 877 1319 c 0,23,24
 685 1319 685 1319 570.5 1120.5 c 128,-1,25
 456 922 456 922 456 589 c 0,26,27
 456 240 456 240 724 240 c 0,28,29
 773 240 773 240 825.5 251 c 128,-1,30
 878 262 878 262 917 278 c 128,-1,31
 956 294 956 294 988.5 310 c 128,-1,32
 1021 326 1021 326 1038 337 c 2,33,-1
 1055 348 l 1,34,-1
 1111 94 l 1,35,36
 1049 42 1049 42 935.5 2.5 c 128,-1,37
 822 -37 822 -37 669 -37 c 0,38,39
 550 -37 550 -37 453.5 -3.5 c 128,-1,40
 357 30 357 30 283 99 c 128,-1,41
 209 168 209 168 168.5 284.5 c 128,-1,42
 128 401 128 401 128 558 c 0,0,1
EndSplineSet
EndChar

StartChar: D
Encoding: 68 68 39
Width: 1484
GlyphClass: 2
Flags: W
HStem: 0 235<487 868.414> 1339 240<647 1022.07>
VStem: 1124 328<604.747 1220.99>
DStem2: 125 0 454.809 0 0.135716 0.990748<281.955 1397.45>
LayerCount: 2
Fore
SplineSet
1124 989 m 0,0,1
 1124 1156 1124 1156 1065 1247.5 c 128,-1,2
 1006 1339 1006 1339 885 1339 c 2,3,-1
 647 1339 l 1,4,-1
 487 235 l 1,5,-1
 704 235 l 2,6,7
 790 235 790 235 860.5 273.5 c 128,-1,8
 931 312 931 312 979.5 379.5 c 128,-1,9
 1028 447 1028 447 1061 542.5 c 128,-1,10
 1094 638 1094 638 1109 749.5 c 128,-1,11
 1124 861 1124 861 1124 989 c 0,0,1
1452 1009 m 0,12,13
 1452 528 1452 528 1251 264 c 128,-1,14
 1050 0 1050 0 687 0 c 2,15,-1
 125 0 l 1,16,-1
 346 1579 l 1,17,-1
 908 1579 l 2,18,19
 1033 1579 1033 1579 1131 1546.5 c 128,-1,20
 1229 1514 1229 1514 1302 1446 c 128,-1,21
 1375 1378 1375 1378 1413.5 1268 c 128,-1,22
 1452 1158 1452 1158 1452 1009 c 0,12,13
EndSplineSet
EndChar

StartChar: E
Encoding: 69 69 40
Width: 1113
GlyphClass: 2
Flags: W
HStem: 0 234<440 1043> 710 233<540 1055> 1339 238<594 1203>
DStem2: 92 0 407.946 0 0.135716 0.990748<279.064 759.617 995.076 1394.74>
LayerCount: 2
Fore
SplineSet
1043 0 m 1,0,-1
 92 0 l 1,1,-1
 304 1577 l 1,2,-1
 1238 1577 l 1,3,-1
 1203 1339 l 1,4,-1
 594 1339 l 1,5,-1
 540 943 l 1,6,-1
 1086 943 l 1,7,-1
 1055 710 l 1,8,-1
 506 710 l 1,9,-1
 440 234 l 1,10,-1
 1089 234 l 1,11,-1
 1043 0 l 1,0,-1
EndSplineSet
EndChar

StartChar: F
Encoding: 70 70 41
Width: 1164
GlyphClass: 2
Flags: W
HStem: 0 21G<107 430.958> 710 235<566 1139> 1307 270<613 1272>
DStem2: 107 0 428 0 0.135716 0.990748<43.5647 761.246 998.55 1363.58>
LayerCount: 2
Fore
SplineSet
533 710 m 1,0,-1
 428 0 l 1,1,-1
 107 0 l 1,2,-1
 328 1577 l 1,3,-1
 1309 1577 l 1,4,-1
 1272 1307 l 1,5,-1
 613 1307 l 1,6,-1
 566 945 l 1,7,-1
 1172 945 l 1,8,-1
 1139 710 l 1,9,-1
 533 710 l 1,0,-1
EndSplineSet
EndChar

StartChar: G
Encoding: 71 71 42
Width: 1378
GlyphClass: 2
Flags: W
HStem: -37 277<557.803 861.857> 0 21G<1030.99 1244.83> 633 236<808 1066> 1319 280<722.297 1169.31>
VStem: 124 327<354.599 939.91> 1033 209<0 101.284>
LayerCount: 2
Fore
SplineSet
124 555 m 0,0,1
 124 764 124 764 166.5 937.5 c 128,-1,2
 209 1111 209 1111 283.5 1232.5 c 128,-1,3
 358 1354 358 1354 459.5 1438 c 128,-1,4
 561 1522 561 1522 678 1561 c 128,-1,5
 795 1600 795 1600 924 1599 c 0,6,7
 1005 1598 1005 1598 1083.5 1583.5 c 128,-1,8
 1162 1569 1162 1569 1216 1548.5 c 128,-1,9
 1270 1528 1270 1528 1311.5 1507.5 c 128,-1,10
 1353 1487 1353 1487 1375 1473 c 2,11,-1
 1396 1459 l 1,12,-1
 1286 1225 l 1,13,14
 1279 1229 1279 1229 1267 1235 c 128,-1,15
 1255 1241 1255 1241 1214.5 1257.5 c 128,-1,16
 1174 1274 1174 1274 1130.5 1286.5 c 128,-1,17
 1087 1299 1087 1299 1021.5 1309 c 128,-1,18
 956 1319 956 1319 890 1319 c 0,19,20
 693 1319 693 1319 572 1119.5 c 128,-1,21
 451 920 451 920 451 581 c 0,22,23
 451 398 451 398 519.5 319 c 128,-1,24
 588 240 588 240 720 240 c 0,25,26
 768 240 768 240 843 261.5 c 128,-1,27
 918 283 918 283 969 304 c 1,28,-1
 1019 326 l 1,29,-1
 1066 633 l 1,30,-1
 777 633 l 1,31,-1
 808 869 l 1,32,-1
 1365 869 l 1,33,-1
 1242 0 l 1,34,-1
 1033 0 l 1,35,-1
 1019 139 l 1,36,37
 974 69 974 69 877.5 16 c 128,-1,38
 781 -37 781 -37 671 -37 c 0,39,40
 124 -37 124 -37 124 555 c 0,0,1
EndSplineSet
EndChar

StartChar: H
Encoding: 72 72 43
Width: 1505
GlyphClass: 2
Flags: W
HStem: 0 21G<119 445.805 991 1313.8> 706 234<576 1091> 1556 20G<337.195 664 1210.14 1532>
DStem2: 119 0 443 0 0.135716 0.990748<43.9718 756.876 993.325 1591.41> 991 0 1311 0 0.135716 0.990748<43.429 713.04 949.082 1591.55>
LayerCount: 2
Fore
SplineSet
991 0 m 1,0,-1
 1091 706 l 1,1,-1
 542 706 l 1,2,-1
 443 0 l 1,3,-1
 119 0 l 1,4,-1
 340 1576 l 1,5,-1
 664 1576 l 1,6,-1
 576 940 l 1,7,-1
 1122 940 l 1,8,-1
 1213 1576 l 1,9,-1
 1532 1576 l 1,10,-1
 1311 0 l 1,11,-1
 991 0 l 1,0,-1
EndSplineSet
EndChar

StartChar: I
Encoding: 73 73 44
Width: 881
GlyphClass: 2
Flags: W
HStem: 0 154<66 240 552 702> 1416 160<264 412 724 900>
DStem2: 218.905 0 530.905 0 0.135716 0.990748<197.781 1429.1>
LayerCount: 2
Fore
SplineSet
66 154 m 1,0,-1
 240 154 l 1,1,-1
 412 1416 l 1,2,-1
 238 1416 l 1,3,-1
 264 1576 l 1,4,-1
 925 1576 l 1,5,-1
 900 1416 l 1,6,-1
 724 1416 l 1,7,-1
 552 154 l 1,8,-1
 728 154 l 1,9,-1
 702 0 l 1,10,-1
 43 0 l 1,11,-1
 66 154 l 1,0,-1
EndSplineSet
EndChar

StartChar: J
Encoding: 74 74 45
Width: 885
GlyphClass: 2
Flags: W
HStem: 1556 20G<562.196 884>
DStem2: 332.81 -86 652.214 -86 0.135716 0.990748<347.045 1678.13>
LayerCount: 2
Fore
SplineSet
124 -86 m 1,0,-1
 69 154 l 1,1,2
 118 162 118 162 157.5 172.5 c 128,-1,3
 197 183 197 183 228 194 c 128,-1,4
 259 205 259 205 283.5 222 c 128,-1,5
 308 239 308 239 325 253.5 c 128,-1,6
 342 268 342 268 355.5 291.5 c 128,-1,7
 369 315 369 315 377.5 334 c 128,-1,8
 386 353 386 353 393.5 385 c 128,-1,9
 401 417 401 417 405 441 c 128,-1,10
 409 465 409 465 415 506 c 2,11,-1
 565 1576 l 1,12,-1
 884 1576 l 1,13,-1
 739 539 l 2,14,15
 732 485 732 485 725.5 449 c 128,-1,16
 719 413 719 413 706.5 359 c 128,-1,17
 694 305 694 305 679 267 c 128,-1,18
 664 229 664 229 638.5 181 c 128,-1,19
 613 133 613 133 582 99.5 c 128,-1,20
 551 66 551 66 505.5 31 c 128,-1,21
 460 -4 460 -4 406 -26.5 c 128,-1,22
 352 -49 352 -49 280 -65.5 c 128,-1,23
 208 -82 208 -82 124 -86 c 1,0,-1
EndSplineSet
EndChar

StartChar: K
Encoding: 75 75 46
Width: 1369
GlyphClass: 2
Flags: W
DStem2: 107 0 429 0 0.135716 0.990748<43.7004 726.203 961.798 1591.41> 938 688 582 676 0.49314 -0.86995<-109.419 606.909> 619 909 889 786 0.610534 0.79199<67.4294 843.293>
LayerCount: 2
Fore
SplineSet
619 909 m 1,0,-1
 558 909 l 1,1,-1
 650 1576 l 1,2,-1
 328 1576 l 1,3,-1
 107 0 l 1,4,-1
 429 0 l 1,5,-1
 523 676 l 1,6,-1
 582 676 l 1,7,-1
 955 0 l 1,8,-1
 1328 0 l 1,9,-1
 938 688 l 1,10,-1
 889 786 l 1,11,-1
 975 897 l 1,12,-1
 1498 1576 l 1,13,-1
 1135 1576 l 1,14,-1
 619 909 l 1,0,-1
EndSplineSet
EndChar

StartChar: L
Encoding: 76 76 47
Width: 1095
GlyphClass: 2
Flags: W
HStem: 0 234<463 1022> 1556 20G<327.17 652>
DStem2: 107 0 430.946 0 0.135716 0.990748<280.15 1591.68>
LayerCount: 2
Fore
SplineSet
1022 0 m 1,0,-1
 107 0 l 1,1,-1
 330 1576 l 1,2,-1
 652 1576 l 1,3,-1
 463 234 l 1,4,-1
 1057 234 l 1,5,-1
 1022 0 l 1,0,-1
EndSplineSet
EndChar

StartChar: M
Encoding: 77 77 48
Width: 1900
GlyphClass: 2
Flags: W
HStem: 0 21G<139 432.901 734.803 1043.23 1329 1624.9> 1556 20G<368.698 763.091 1432.29 1830>
DStem2: 139 0 430 0 0.135716 0.990748<39.4932 1154> 826 1149 590 1103 0.140478 -0.990084<12.391 607.269> 927 316 1142 234 0.36753 0.930012<0 941.456> 1329 0 1622 0 0.135716 0.990748<39.7647 1118.2>
LayerCount: 2
Fore
SplineSet
738 0 m 1,0,-1
 691 294 l 1,1,-1
 590 1103 l 1,2,-1
 430 0 l 1,3,-1
 139 0 l 1,4,-1
 302 1152 l 1,5,-1
 372 1576 l 1,6,-1
 760 1576 l 1,7,-1
 826 1149 l 1,8,-1
 906 547 l 1,9,-1
 927 316 l 1,10,-1
 1006 541 l 1,11,-1
 1272 1188 l 1,12,-1
 1441 1576 l 1,13,-1
 1830 1576 l 1,14,-1
 1774 1050 l 1,15,-1
 1622 0 l 1,16,-1
 1329 0 l 1,17,-1
 1487 1107 l 1,18,-1
 1142 234 l 1,19,-1
 1034 0 l 1,20,-1
 738 0 l 1,0,-1
EndSplineSet
EndChar

StartChar: N
Encoding: 78 78 49
Width: 1556
GlyphClass: 2
Flags: W
HStem: 0 21G<107 408.787 1002.39 1343.29> 1556 20G<334.699 683.466 1269.37 1571>
DStem2: 107 0 406 0 0.135716 0.990748<40.579 1156.26> 824 1224 560 1105 0.377882 -0.925854<10.4156 807.963> 1061.93 0 1351.47 0 0.135716 0.990748<479.436 1589.93>
LayerCount: 2
Fore
SplineSet
1340 0 m 1,0,-1
 1011 0 l 1,1,-1
 856 360 l 1,2,-1
 560 1105 l 1,3,-1
 406 0 l 1,4,-1
 107 0 l 1,5,-1
 269 1158 l 1,6,-1
 338 1576 l 1,7,-1
 675 1576 l 1,8,-1
 824 1224 l 1,9,-1
 1127 475 l 1,10,-1
 1272 1576 l 1,11,-1
 1571 1576 l 1,12,-1
 1409 420 l 1,13,-1
 1340 0 l 1,0,-1
EndSplineSet
EndChar

StartChar: O
Encoding: 79 79 50
Width: 1430
GlyphClass: 2
Flags: W
HStem: -37 277<564.82 862.043> 1321 276<706.352 998.891>
VStem: 129 329<366.489 960.976> 1104 326<593.45 1195.18>
LayerCount: 2
Fore
SplineSet
1430 953 m 0,0,1
 1430 765 1430 765 1389.5 603.5 c 128,-1,2
 1349 442 1349 442 1278 325.5 c 128,-1,3
 1207 209 1207 209 1111 126.5 c 128,-1,4
 1015 44 1015 44 902.5 3.5 c 128,-1,5
 790 -37 790 -37 668 -37 c 0,6,7
 420 -37 420 -37 274.5 119.5 c 128,-1,8
 129 276 129 276 129 588 c 0,9,10
 129 823 129 823 189.5 1015.5 c 128,-1,11
 250 1208 250 1208 355 1334 c 128,-1,12
 460 1460 460 1460 599 1528.5 c 128,-1,13
 738 1597 738 1597 897 1597 c 0,14,15
 1014 1597 1014 1597 1110.5 1557.5 c 128,-1,16
 1207 1518 1207 1518 1279 1440 c 128,-1,17
 1351 1362 1351 1362 1390.5 1238 c 128,-1,18
 1430 1114 1430 1114 1430 953 c 0,0,1
1104 946 m 0,19,20
 1106 1320 1106 1320 858 1321 c 0,21,22
 797 1321 797 1321 740 1295 c 128,-1,23
 683 1269 683 1269 631.5 1212.5 c 128,-1,24
 580 1156 580 1156 542 1074.5 c 128,-1,25
 504 993 504 993 481 874.5 c 128,-1,26
 458 756 458 756 458 614 c 0,27,28
 458 240 458 240 707 240 c 0,29,30
 888 240 888 240 995.5 435.5 c 128,-1,31
 1103 631 1103 631 1104 946 c 0,19,20
EndSplineSet
EndChar

StartChar: P
Encoding: 80 80 51
Width: 1278
GlyphClass: 2
Flags: W
HStem: 0 21G<107 430.808> 584 205<547 856.646> 1339 238<617 943.065>
VStem: 1040 310<948.897 1254.3>
DStem2: 107 0 428 0 0.135716 0.990748<43.5647 633.29 841.415 1395.83>
LayerCount: 2
Fore
SplineSet
600 789 m 2,0,1
 1040 789 1040 789 1040 1125 c 0,2,3
 1040 1175 1040 1175 1023.5 1212.5 c 128,-1,4
 1007 1250 1007 1250 969 1279.5 c 128,-1,5
 931 1309 931 1309 863 1324 c 128,-1,6
 795 1339 795 1339 697 1339 c 2,7,-1
 617 1339 l 1,8,-1
 547 789 l 1,9,-1
 600 789 l 2,0,1
328 1577 m 1,10,-1
 732 1577 l 2,11,12
 1058 1577 1058 1577 1204 1474.5 c 128,-1,13
 1350 1372 1350 1372 1350 1160 c 0,14,15
 1350 1100 1350 1100 1342 1047 c 0,16,17
 1306 793 1306 793 1123.5 688.5 c 128,-1,18
 941 584 941 584 564 584 c 2,19,-1
 510 584 l 1,20,-1
 428 0 l 1,21,-1
 107 0 l 1,22,-1
 328 1577 l 1,10,-1
EndSplineSet
EndChar

StartChar: Q
Encoding: 81 81 52
Width: 1442
GlyphClass: 2
Flags: W
HStem: -420 21G<941.29 981.949> 1319 280<707.87 1009.75>
VStem: 128 331<353.215 918.355> 1118 324<623.513 1199.35>
DStem2: 892 10 611 -27 0.662944 -0.748669<0 366.345>
LayerCount: 2
Fore
SplineSet
474 768 m 0,0,1
 459 662 459 662 459 579 c 0,2,3
 459 405 459 405 522.5 322.5 c 128,-1,4
 586 240 586 240 712 240 c 0,5,6
 870 240 870 240 967.5 367.5 c 128,-1,7
 1065 495 1065 495 1103 768 c 0,8,9
 1118 876 1118 876 1118 963 c 0,10,11
 1118 1319 1118 1319 865 1319 c 0,12,13
 552 1319 552 1319 474 768 c 0,0,1
1442 984 m 0,14,15
 1442 921 1442 921 1436.5 854.5 c 128,-1,16
 1431 788 1431 788 1415 702.5 c 128,-1,17
 1399 617 1399 617 1374 537.5 c 128,-1,18
 1349 458 1349 458 1305.5 374.5 c 128,-1,19
 1262 291 1262 291 1206.5 223 c 128,-1,20
 1151 155 1151 155 1070 98 c 128,-1,21
 989 41 989 41 892 10 c 1,22,-1
 1138 -264 l 1,23,-1
 959 -420 l 1,24,-1
 611 -27 l 1,25,26
 501 -13 501 -13 415 27.5 c 128,-1,27
 329 68 329 68 263.5 138.5 c 128,-1,28
 198 209 198 209 163 318 c 128,-1,29
 128 427 128 427 128 569 c 0,30,31
 128 652 128 652 138 740.5 c 128,-1,32
 148 829 148 829 173.5 931 c 128,-1,33
 199 1033 199 1033 237.5 1126.5 c 128,-1,34
 276 1220 276 1220 338.5 1307 c 128,-1,35
 401 1394 401 1394 479 1458 c 128,-1,36
 557 1522 557 1522 666.5 1560.5 c 128,-1,37
 776 1599 776 1599 904 1599 c 0,38,39
 995 1599 995 1599 1074 1578 c 128,-1,40
 1153 1557 1153 1557 1221.5 1510 c 128,-1,41
 1290 1463 1290 1463 1338.5 1393 c 128,-1,42
 1387 1323 1387 1323 1414.5 1218.5 c 128,-1,43
 1442 1114 1442 1114 1442 984 c 0,14,15
EndSplineSet
EndChar

StartChar: R
Encoding: 82 82 53
Width: 1353
GlyphClass: 2
Flags: W
HStem: 0 21G<92 415.967 881 1200.93> 701 195<545 902.24> 1339 238<604 1012.72>
VStem: 946 321.5<171.844 669.031> 1066 306<1025.24 1287.99>
DStem2: 92 0 413 0 0.135716 0.990748<43.5647 752.193 949.189 1396.1> 881 0 1198 0 0.135716 0.990748<43.0218 643.852>
LayerCount: 2
Fore
SplineSet
941 468 m 2,0,1
 947 518 947 518 946 555 c 128,-1,2
 945 592 945 592 936.5 617.5 c 128,-1,3
 928 643 928 643 912 659.5 c 128,-1,4
 896 676 896 676 873 684.5 c 128,-1,5
 850 693 850 693 820 697 c 128,-1,6
 790 701 790 701 753.5 701.5 c 128,-1,7
 717 702 717 702 674 701 c 1,8,-1
 619 701 l 1,9,-1
 517 701 l 1,10,-1
 413 0 l 1,11,-1
 92 0 l 1,12,-1
 313 1577 l 1,13,-1
 679 1577 l 2,14,15
 950 1577 950 1577 1074 1552 c 0,16,17
 1305 1506 1305 1506 1356 1345 c 0,18,19
 1372 1296 1372 1296 1372 1234 c 0,20,21
 1372 1192 1372 1192 1364 1133 c 0,22,23
 1345 1005 1345 1005 1231 913.5 c 128,-1,24
 1117 822 1117 822 905 809 c 1,25,26
 975 806 975 806 1028.5 796 c 128,-1,27
 1082 786 1082 786 1127.5 767.5 c 128,-1,28
 1173 749 1173 749 1200.5 720 c 128,-1,29
 1228 691 1228 691 1247.5 649 c 128,-1,30
 1267 607 1267 607 1267.5 551.5 c 128,-1,31
 1268 496 1268 496 1260 423 c 1,32,-1
 1198 0 l 1,33,-1
 881 0 l 1,34,-1
 941 468 l 2,0,1
625 896 m 2,35,36
 1066 896 1066 896 1066 1171 c 0,37,38
 1066 1271 1066 1271 996.5 1305 c 128,-1,39
 927 1339 927 1339 725 1339 c 2,40,-1
 604 1339 l 1,41,-1
 545 896 l 1,42,-1
 625 896 l 2,35,36
EndSplineSet
EndChar

StartChar: S
Encoding: 83 83 54
Width: 1271
GlyphClass: 2
Flags: W
HStem: -37 277<282.617 768.869> 1319 280<549.854 1068.81>
VStem: 192 314<1083.76 1274.31> 861 317<324.485 567.498>
DStem2: 220 302 136 22 0.977128 -0.212653<-58.4365 341.296> 656 1024 390 786 0.900751 -0.434335<-182.252 395.051> 1120 1562 1051 1278 0.965081 -0.261951<-251.218 119.546>
LayerCount: 2
Fore
SplineSet
1195 1240 m 1,0,1
 1171 1252 1171 1252 1051 1278 c 0,2,3
 862 1319 862 1319 791.5 1319 c 128,-1,4
 721 1319 721 1319 686 1316.5 c 128,-1,5
 651 1314 651 1314 614 1305.5 c 128,-1,6
 577 1297 577 1297 556 1281 c 0,7,8
 506 1244 506 1244 506 1180 c 128,-1,9
 506 1116 506 1116 549 1084.5 c 128,-1,10
 592 1053 592 1053 656 1024 c 128,-1,11
 720 995 720 995 726 992 c 2,12,-1
 910 907 l 2,13,14
 1036 849 1036 849 1107 748 c 128,-1,15
 1178 647 1178 647 1178 516 c 0,16,17
 1178 370 1178 370 1100 232 c 0,18,19
 994 44 994 44 754 -14 c 0,20,21
 661 -37 661 -37 590 -37 c 128,-1,22
 519 -37 519 -37 483.5 -34.5 c 128,-1,23
 448 -32 448 -32 414.5 -28.5 c 128,-1,24
 381 -25 381 -25 347 -20 c 128,-1,25
 313 -15 313 -15 282.5 -9.5 c 128,-1,26
 252 -4 252 -4 224 2 c 2,27,-1
 136 22 l 1,28,-1
 101 30 l 1,29,-1
 152 325 l 1,30,31
 153 323 153 323 220 302 c 0,32,33
 426 240 426 240 560 240 c 0,34,35
 861 240 861 240 861 459 c 0,36,37
 861 559 861 559 755 610 c 2,38,-1
 390 786 l 2,39,40
 300 829 300 829 246 916 c 128,-1,41
 192 1003 192 1003 192 1115 c 0,42,43
 192 1333 192 1333 351 1466 c 128,-1,44
 510 1599 510 1599 775 1599 c 0,45,46
 923 1599 923 1599 1009 1583 c 128,-1,47
 1095 1567 1095 1567 1120 1562 c 128,-1,48
 1145 1557 1145 1557 1166 1552 c 2,49,-1
 1202 1542 l 1,50,-1
 1236 1533 l 1,51,-1
 1195 1240 l 1,0,1
EndSplineSet
EndChar

StartChar: T
Encoding: 84 84 55
Width: 1071
GlyphClass: 2
Flags: W
HStem: 0 21G<331 651.78> 1338 239<161 518 835 1222>
DStem2: 331 0 649 0 0.135716 0.990748<43.1576 1351>
LayerCount: 2
Fore
SplineSet
1222 1338 m 1,0,-1
 835 1338 l 1,1,-1
 649 0 l 1,2,-1
 331 0 l 1,3,-1
 518 1338 l 1,4,-1
 127 1338 l 1,5,-1
 161 1577 l 1,6,-1
 1257 1577 l 1,7,-1
 1222 1338 l 1,0,-1
EndSplineSet
EndChar

StartChar: U
Encoding: 85 85 56
Width: 1527
GlyphClass: 2
Flags: W
HStem: -37 266<585.93 909.497> 1557 20G<330.213 655 1205.18 1530>
VStem: 198 319<300.285 908.25>
DStem2: 109.893 -37 430.441 -37 0.135716 0.990748<600.761 1629.35> 983.441 -37 1306.89 -37 0.135716 0.990748<440.766 1629.54>
LayerCount: 2
Fore
SplineSet
740 229 m 0,0,1
 845 229 845 229 910.5 273.5 c 128,-1,2
 976 318 976 318 1018 423.5 c 128,-1,3
 1060 529 1060 529 1087 719 c 2,4,-1
 1208 1577 l 1,5,-1
 1530 1577 l 1,6,-1
 1411 723 l 2,7,8
 1386 546 1386 546 1336.5 412 c 128,-1,9
 1287 278 1287 278 1223 193.5 c 128,-1,10
 1159 109 1159 109 1073.5 56.5 c 128,-1,11
 988 4 988 4 899.5 -16.5 c 128,-1,12
 811 -37 811 -37 703 -37 c 0,13,14
 610 -37 610 -37 536.5 -22 c 128,-1,15
 463 -7 463 -7 398 30.5 c 128,-1,16
 333 68 333 68 290 128.5 c 128,-1,17
 247 189 247 189 222.5 283 c 128,-1,18
 198 377 198 377 198 501 c 0,19,20
 198 604 198 604 214 723 c 2,21,-1
 333 1577 l 1,22,-1
 655 1577 l 1,23,-1
 534 719 l 2,24,25
 517 594 517 594 517 511 c 0,26,27
 517 354 517 354 567.5 291.5 c 128,-1,28
 618 229 618 229 740 229 c 0,0,1
EndSplineSet
EndChar

StartChar: V
Encoding: 86 86 57
Width: 1251
GlyphClass: 2
Flags: W
HStem: -1 21G<382.437 766.619> 1557 20G<183 486.481 1115.46 1438>
DStem2: 484 1577 183 1575 0.127133 -0.991886<0 1169.89> 628 416 758 -1 0.395745 0.918361<0 1262.51>
LayerCount: 2
Fore
SplineSet
484 1577 m 1,0,-1
 628 416 l 1,1,-1
 1124 1577 l 1,2,-1
 1438 1577 l 1,3,-1
 758 -1 l 1,4,-1
 385 -1 l 1,5,-1
 183 1575 l 1,6,-1
 484 1577 l 1,0,-1
EndSplineSet
EndChar

StartChar: W
Encoding: 87 87 58
Width: 1863
GlyphClass: 2
Flags: W
HStem: 0 21G<313.757 680.649 1077.47 1481.8> 1557 20G<217 524.755 1692.29 2011>
VStem: 217 307<1346.31 1577> 1078 239<438 537.6>
DStem2: 567 438 674 0 0.315469 0.948936<0 803.659> 1317 438 1475 0 0.321806 0.946806<0 1201.34>
LayerCount: 2
Fore
SplineSet
923 1565 m 1,0,-1
 1284 1565 l 1,1,-1
 1317 438 l 1,2,-1
 1699 1577 l 1,3,-1
 2011 1577 l 1,4,-1
 1475 0 l 1,5,-1
 1078 0 l 1,6,-1
 1048 1125 l 1,7,-1
 674 0 l 1,8,-1
 315 0 l 1,9,-1
 217 1577 l 1,10,-1
 524 1577 l 1,11,-1
 567 438 l 1,12,-1
 923 1565 l 1,0,-1
EndSplineSet
EndChar

StartChar: X
Encoding: 88 88 59
Width: 1326
GlyphClass: 2
Flags: W
HStem: 0 21G<-8 368.029 889.779 1261> 1557 20G<211 584.992 1103.31 1484>
DStem2: -8 0 354 0 0.582457 0.812862<210.849 808.121 1333.72 1937.15> 577 1577 211 1577 0.397918 -0.917421<0 536.061 1045.9 1574.5>
LayerCount: 2
Fore
SplineSet
921 788 m 1,0,-1
 1261 0 l 1,1,-1
 898 0 l 1,2,-1
 697 489 l 1,3,-1
 354 0 l 1,4,-1
 -8 0 l 1,5,-1
 555 788 l 1,6,-1
 211 1577 l 1,7,-1
 577 1577 l 1,8,-1
 776 1079 l 1,9,-1
 1117 1577 l 1,10,-1
 1484 1577 l 1,11,-1
 921 788 l 1,0,-1
EndSplineSet
EndChar

StartChar: Y
Encoding: 89 89 60
Width: 1189
GlyphClass: 2
Flags: W
HStem: 0 21G<377 696.78> 1557 20G<135 482.549 1024.51 1392>
DStem2: 477 1577 135 1577 0.283441 -0.95899<0 680.683> 377 0 694 0 0.135716 0.990748<43.0218 522.843> 659 921 766 518 0.508866 0.860846<0 756.557>
LayerCount: 2
Fore
SplineSet
659 921 m 1,0,-1
 1036 1577 l 1,1,-1
 1392 1577 l 1,2,-1
 766 518 l 1,3,-1
 694 0 l 1,4,-1
 377 0 l 1,5,-1
 448 518 l 1,6,-1
 135 1577 l 1,7,-1
 477 1577 l 1,8,-1
 659 921 l 1,0,-1
EndSplineSet
EndChar

StartChar: Z
Encoding: 90 90 61
Width: 1179
GlyphClass: 2
Flags: W
HStem: 0 237<450 1075> 1338 239<264 887>
DStem2: 78 248 450 237 0.59029 0.807191<210.709 1357.38>
LayerCount: 2
Fore
SplineSet
1294 1577 m 1,0,-1
 1261 1346 l 1,1,-1
 450 237 l 1,2,-1
 1103 237 l 1,3,-1
 1075 0 l 1,4,-1
 43 0 l 1,5,-1
 78 248 l 1,6,-1
 887 1338 l 1,7,-1
 236 1338 l 1,8,-1
 264 1577 l 1,9,-1
 1294 1577 l 1,0,-1
EndSplineSet
EndChar

StartChar: bracketleft
Encoding: 91 91 62
Width: 1067
GlyphClass: 2
Flags: W
HStem: 0 262<555 905> 1270 262<696 1083>
DStem2: 209 0 519.11 0 0.135716 0.990748<306.534 1324.34>
LayerCount: 2
Fore
SplineSet
424 1532 m 1,0,-1
 1120 1532 l 1,1,-1
 1083 1270 l 1,2,-1
 696 1270 l 1,3,-1
 555 262 l 1,4,-1
 942 262 l 1,5,-1
 905 0 l 1,6,-1
 209 0 l 1,7,-1
 424 1532 l 1,0,-1
EndSplineSet
EndChar

StartChar: backslash
Encoding: 92 92 63
Width: 1243
GlyphClass: 2
Flags: W
VStem: 440 580
DStem2: 719 1667 440 1616 0.168296 -0.985736<3.31785 1788.51>
LayerCount: 2
Fore
SplineSet
719 1667 m 1,0,-1
 1020 -96 l 1,1,-1
 735 -147 l 1,2,-1
 440 1616 l 1,3,-1
 719 1667 l 1,0,-1
EndSplineSet
EndChar

StartChar: bracketright
Encoding: 93 93 64
Width: 1097
GlyphClass: 2
Flags: W
HStem: 0 262<156 543> 1270 262<334 684>
DStem2: 507.11 0 815 0 0.135716 0.990748<264.447 1282.26>
LayerCount: 2
Fore
SplineSet
334 1532 m 1,0,-1
 1030 1532 l 1,1,-1
 815 0 l 1,2,-1
 119 0 l 1,3,-1
 156 262 l 1,4,-1
 543 262 l 1,5,-1
 684 1270 l 1,6,-1
 297 1270 l 1,7,-1
 334 1532 l 1,0,-1
EndSplineSet
EndChar

StartChar: asciicircum
Encoding: 94 94 65
Width: 1881
GlyphClass: 2
Flags: W
HStem: 563 639<878 959>
LayerCount: 2
Fore
SplineSet
959 1202 m 1,0,-1
 1185 1202 l 1,1,-1
 1354 563 l 1,2,-1
 1104 563 l 1,3,-1
 1039 877 l 1,4,-1
 897 563 l 1,5,-1
 635 563 l 1,6,-1
 959 1202 l 1,0,-1
EndSplineSet
EndChar

StartChar: underscore
Encoding: 95 95 66
Width: 1144
GlyphClass: 2
Flags: W
HStem: -98 262<98 987>
LayerCount: 2
Fore
SplineSet
987 -98 m 1,0,-1
 61 -98 l 1,1,-1
 98 164 l 1,2,-1
 1024 164 l 1,3,-1
 987 -98 l 1,0,-1
EndSplineSet
EndChar

StartChar: grave
Encoding: 96 96 67
Width: 668
GlyphClass: 2
Flags: W
VStem: 153 395<970.41 1023>
LayerCount: 2
Fore
SplineSet
548 315 m 1,0,-1
 346 315 l 1,1,-1
 153 1023 l 1,2,-1
 548 1023 l 1,3,-1
 548 315 l 1,0,-1
EndSplineSet
EndChar

StartChar: a
Encoding: 97 97 68
Width: 1157
GlyphClass: 2
Flags: W
HStem: -15 233<340 598.871> 1 21G<754 984.807> 886 231<570.521 791.256>
VStem: 80 316<255.803 651.277>
DStem2: 670.494 -15 979.808 -15 0.135716 0.990748<258.187 898.893>
LayerCount: 2
Fore
SplineSet
1119 977 m 1,0,-1
 982 1 l 1,1,-1
 759 1 l 1,2,-1
 718 165 l 1,3,4
 687 90 687 90 611.5 37.5 c 128,-1,5
 536 -15 536 -15 430 -15 c 0,6,7
 250 -15 250 -15 165 96.5 c 128,-1,8
 80 208 80 208 80 396 c 0,9,10
 80 525 80 525 125.5 655 c 128,-1,11
 171 785 171 785 246.5 887 c 128,-1,12
 322 989 322 989 428.5 1053 c 128,-1,13
 535 1117 535 1117 649 1117 c 0,14,15
 728 1117 728 1117 805.5 1102.5 c 128,-1,16
 883 1088 883 1088 937 1067.5 c 128,-1,17
 991 1047 991 1047 1034 1026.5 c 128,-1,18
 1077 1006 1077 1006 1098 992 c 2,19,-1
 1119 977 l 1,0,-1
396 430 m 0,20,21
 396 218 396 218 530 218 c 0,22,23
 655 218 655 218 712 288 c 1,24,-1
 793 872 l 1,25,26
 747 886 747 886 680 886 c 0,27,28
 630 886 630 886 579 849 c 128,-1,29
 528 812 528 812 487.5 751.5 c 128,-1,30
 447 691 447 691 421.5 605.5 c 128,-1,31
 396 520 396 520 396 430 c 0,20,21
EndSplineSet
EndChar

StartChar: b
Encoding: 98 98 69
Width: 1185
GlyphClass: 2
Flags: W
HStem: -16 236<477.863 706.379> 0 21G<84 313.084> 886 234<634.436 900.5>
VStem: 834 308<409.886 857.985>
DStem2: 81.8083 -16 393.083 -16 0.135716 0.990748<315.462 905.936 1062.16 1621.57>
LayerCount: 2
Fore
SplineSet
1131 549 m 0,0,1
 1114 428 1114 428 1078 329.5 c 128,-1,2
 1042 231 1042 231 983.5 151.5 c 128,-1,3
 925 72 925 72 836.5 28 c 128,-1,4
 748 -16 748 -16 635 -16 c 0,5,6
 528 -16 528 -16 465.5 37.5 c 128,-1,7
 403 91 403 91 394 166 c 1,8,-1
 302 0 l 1,9,-1
 84 0 l 1,10,-1
 306 1590 l 1,11,-1
 624 1636 l 1,12,-1
 535 994 l 1,13,14
 641 1120 641 1120 823 1120 c 0,15,16
 978 1120 978 1120 1060 1006.5 c 128,-1,17
 1142 893 1142 893 1142 698 c 0,18,19
 1142 631 1142 631 1131 549 c 0,0,1
599 220 m 0,20,21
 665 220 665 220 714 271.5 c 128,-1,22
 763 323 763 323 787.5 404 c 128,-1,23
 812 485 812 485 823 561 c 128,-1,24
 834 637 834 637 834 708 c 0,25,26
 834 886 834 886 720 886 c 0,27,28
 603 886 603 886 507 797 c 1,29,-1
 435 290 l 1,30,31
 473 220 473 220 599 220 c 0,20,21
EndSplineSet
EndChar

StartChar: c
Encoding: 99 99 70
Width: 978
GlyphClass: 2
Flags: W
HStem: -15 236<526.781 804.475> 885 236<584.235 912.11>
VStem: 139 315<294.173 706.259>
LayerCount: 2
Fore
SplineSet
139 438 m 0,0,1
 139 588 139 588 187.5 718 c 128,-1,2
 236 848 236 848 316.5 935 c 128,-1,3
 397 1022 397 1022 501 1071.5 c 128,-1,4
 605 1121 605 1121 717 1121 c 0,5,6
 832 1121 832 1121 905 1095.5 c 128,-1,7
 978 1070 978 1070 1052 1023 c 1,8,-1
 965 803 l 1,9,10
 946 827 946 827 878 856 c 128,-1,11
 810 885 810 885 741 885 c 0,12,13
 613 885 613 885 549 808 c 128,-1,14
 485 731 485 731 461 557 c 0,15,16
 454 508 454 508 454 460 c 0,17,18
 454 221 454 221 670 221 c 0,19,20
 717 221 717 221 765 237 c 128,-1,21
 813 253 813 253 832 264 c 2,22,-1
 893 303 l 1,23,-1
 918 83 l 1,24,25
 831 36 831 36 751 10.5 c 128,-1,26
 671 -15 671 -15 556 -15 c 0,27,28
 370 -15 370 -15 254.5 104 c 128,-1,29
 139 223 139 223 139 438 c 0,0,1
EndSplineSet
EndChar

StartChar: d
Encoding: 100 100 71
Width: 1220
GlyphClass: 2
Flags: W
HStem: -17 236<377.5 637.562> -1 21G<795.94 1026.82> 886 234<538.029 770.469>
VStem: 120 313<260.86 706.429>
DStem2: 711.083 -17 1021.81 -17 0.135716 0.990748<261.18 856.939 1006.76 1616.58>
LayerCount: 2
Fore
SplineSet
606 1120 m 0,0,1
 783 1120 783 1120 851 980 c 1,2,-1
 935 1584 l 1,3,-1
 1255 1637 l 1,4,-1
 1024 -1 l 1,5,-1
 801 -1 l 1,6,-1
 759 165 l 1,7,8
 728 90 728 90 651.5 36.5 c 128,-1,9
 575 -17 575 -17 468 -17 c 0,10,11
 287 -17 287 -17 203.5 95.5 c 128,-1,12
 120 208 120 208 120 399 c 0,13,14
 120 533 120 533 152 660 c 128,-1,15
 184 787 184 787 243 890.5 c 128,-1,16
 302 994 302 994 396.5 1057 c 128,-1,17
 491 1120 491 1120 606 1120 c 0,0,1
443 556 m 0,18,19
 433 488 433 488 433 433 c 0,20,21
 433 219 433 219 569 219 c 0,22,23
 696 219 696 219 753 289 c 1,24,-1
 825 797 l 1,25,26
 753 886 753 886 637 886 c 0,27,28
 598 886 598 886 567 866 c 128,-1,29
 536 846 536 846 516.5 816 c 128,-1,30
 497 786 497 786 482 739 c 128,-1,31
 467 692 467 692 459 651.5 c 128,-1,32
 451 611 451 611 443 556 c 0,18,19
EndSplineSet
EndChar

StartChar: e
Encoding: 101 101 72
Width: 1003
GlyphClass: 2
Flags: W
HStem: -15 226<485.682 773.82> 897 223<559.747 753.994>
VStem: 114 306<282.442 431 571 695.333> 776 232<684.978 874.237>
LayerCount: 2
Fore
SplineSet
434 571 m 1,0,1
 441 572 441 572 453.5 573.5 c 128,-1,2
 466 575 466 575 501.5 582 c 128,-1,3
 537 589 537 589 569 598.5 c 128,-1,4
 601 608 601 608 640.5 625.5 c 128,-1,5
 680 643 680 643 708.5 664.5 c 128,-1,6
 737 686 737 686 756.5 718.5 c 128,-1,7
 776 751 776 751 776 789 c 0,8,9
 776 836 776 836 751.5 866.5 c 128,-1,10
 727 897 727 897 673 897 c 0,11,12
 604 897 604 897 548.5 843 c 128,-1,13
 493 789 493 789 465.5 716.5 c 128,-1,14
 438 644 438 644 434 571 c 1,0,1
420 431 m 1,15,16
 420 334 420 334 469.5 272.5 c 128,-1,17
 519 211 519 211 610 211 c 0,18,19
 750 211 750 211 867 298 c 1,20,-1
 922 95 l 1,21,22
 720 -15 720 -15 526 -15 c 0,23,24
 336 -15 336 -15 225 105 c 128,-1,25
 114 225 114 225 114 429 c 0,26,27
 114 531 114 531 139 631 c 128,-1,28
 164 731 164 731 213.5 819 c 128,-1,29
 263 907 263 907 331.5 974.5 c 128,-1,30
 400 1042 400 1042 492.5 1081 c 128,-1,31
 585 1120 585 1120 689 1120 c 0,32,33
 843 1120 843 1120 925.5 1040 c 128,-1,34
 1008 960 1008 960 1008 849 c 0,35,36
 1008 646 1008 646 853.5 542 c 128,-1,37
 699 438 699 438 420 431 c 1,15,16
EndSplineSet
EndChar

StartChar: f
Encoding: 102 102 73
Width: 782
GlyphClass: 2
Flags: W
HStem: 944 158<193 299 634 850> 1345 259<702.393 912.043>
DStem2: 135 -225 447 -225 0.135716 0.990748<42.3433 1180.44 1382.44 1586.66>
LayerCount: 2
Fore
SplineSet
785 1345 m 0,0,1
 727 1345 727 1345 688.5 1280.5 c 128,-1,2
 650 1216 650 1216 634 1102 c 1,3,-1
 873 1102 l 1,4,-1
 850 944 l 1,5,-1
 610 944 l 1,6,-1
 447 -225 l 1,7,-1
 135 -225 l 1,8,-1
 299 944 l 1,9,-1
 170 944 l 1,10,-1
 193 1102 l 1,11,-1
 321 1102 l 1,12,13
 335 1204 335 1204 369 1293 c 128,-1,14
 403 1382 403 1382 455.5 1452.5 c 128,-1,15
 508 1523 508 1523 584.5 1563.5 c 128,-1,16
 661 1604 661 1604 753 1604 c 0,17,18
 847 1604 847 1604 944 1574 c 1,19,-1
 909 1320 l 1,20,21
 855 1345 855 1345 785 1345 c 0,0,1
EndSplineSet
EndChar

StartChar: g
Encoding: 103 103 74
Width: 1122
GlyphClass: 2
Flags: W
HStem: -546 230<262.93 695.634> 900 221<475.118 733.118 999.672 1150>
VStem: -31 251<-313.5 -107.185> 179 260<633.653 861.912> 748 267<-265.478 -73.1011 626.778 881.626>
DStem2: 307 261 378 11 0.977802 -0.209529<88.7762 457.929>
LayerCount: 2
Fore
SplineSet
439 745 m 0,0,1
 439 818 439 818 476 859 c 128,-1,2
 513 900 513 900 617 900 c 0,3,4
 754 900 754 900 754 780 c 0,5,6
 754 751 754 751 750.5 727 c 128,-1,7
 747 703 747 703 734 674 c 128,-1,8
 721 645 721 645 699 622 c 128,-1,9
 677 599 677 599 638 577 c 128,-1,10
 599 555 599 555 545 539 c 1,11,12
 546 539 546 539 520 576 c 128,-1,13
 494 613 494 613 466.5 665 c 128,-1,14
 439 717 439 717 439 745 c 0,0,1
220 -196 m 0,15,16
 220 -163 220 -163 260 -110.5 c 128,-1,17
 300 -58 300 -58 336.5 -25 c 128,-1,18
 373 8 373 8 378 11 c 1,19,-1
 551 -22 l 2,20,21
 663 -44 663 -44 705.5 -72 c 128,-1,22
 748 -100 748 -100 748 -145 c 0,23,24
 748 -239 748 -239 687 -277.5 c 128,-1,25
 626 -316 626 -316 503 -316 c 0,26,27
 220 -316 220 -316 220 -196 c 0,15,16
1019 775 m 0,28,29
 1019 797 1019 797 1013.5 828 c 128,-1,30
 1008 859 1008 859 1003 880 c 2,31,-1
 998 900 l 1,32,-1
 1224 901 l 1,33,-1
 1255 1127 l 1,34,-1
 1150 1120 l 1,35,36
 1013 1120 1013 1120 888 1063 c 1,37,38
 818 1121 818 1121 624 1121 c 0,39,40
 507 1121 507 1121 417.5 1086 c 128,-1,41
 328 1051 328 1051 278 994 c 128,-1,42
 228 937 228 937 203.5 874 c 128,-1,43
 179 811 179 811 179 745 c 0,44,45
 179 712 179 712 188 678.5 c 128,-1,46
 197 645 197 645 212 619 c 128,-1,47
 227 593 227 593 244.5 569 c 128,-1,48
 262 545 262 545 279 527.5 c 128,-1,49
 296 510 296 510 310.5 497 c 128,-1,50
 325 484 325 484 333 477.5 c 128,-1,51
 341 471 341 471 340 470 c 2,52,-1
 264 449 l 2,53,54
 127 411 127 411 91 351 c 0,55,56
 72 320 72 320 67 242 c 0,57,58
 66 227 66 227 65 220 c 1,59,60
 65 203 65 203 68.5 187.5 c 128,-1,61
 72 172 72 172 82 160 c 1,62,-1
 98 138 l 2,63,64
 105 129 105 129 121 118.5 c 128,-1,65
 137 108 137 108 144.5 103.5 c 128,-1,66
 152 99 152 99 170.5 89 c 128,-1,67
 189 79 189 79 193 77 c 1,68,-1
 65 -45 l 2,69,70
 14 -94 14 -94 -8.5 -149.5 c 128,-1,71
 -31 -205 -31 -205 -31 -293 c 0,72,73
 -31 -334 -31 -334 -19.5 -368 c 128,-1,74
 -8 -402 -8 -402 24.5 -436 c 128,-1,75
 57 -470 57 -470 110 -493.5 c 128,-1,76
 163 -517 163 -517 251.5 -531.5 c 128,-1,77
 340 -546 340 -546 458 -546 c 0,78,79
 556 -546 556 -546 637.5 -531.5 c 128,-1,80
 719 -517 719 -517 775.5 -492.5 c 128,-1,81
 832 -468 832 -468 875.5 -433.5 c 128,-1,82
 919 -399 919 -399 945 -362 c 128,-1,83
 971 -325 971 -325 987 -281.5 c 128,-1,84
 1003 -238 1003 -238 1009 -200 c 128,-1,85
 1015 -162 1015 -162 1015 -122 c 0,86,87
 1015 3 1015 3 918.5 77 c 128,-1,88
 822 151 822 151 587 201 c 2,89,-1
 307 261 l 1,90,-1
 588 349 l 1,91,92
 822 409 822 409 918.5 503.5 c 128,-1,93
 1015 598 1015 598 1019 775 c 0,28,29
EndSplineSet
EndChar

StartChar: h
Encoding: 104 104 75
Width: 1217
GlyphClass: 2
Flags: W
HStem: 0 21G<101 414.706 735 1050.83> 887 234<653.399 915>
VStem: 836 316<587.771 847.804>
DStem2: 101 0 412 0 0.135716 0.990748<42.2075 908.166 1033.17 1604.16> 735 0 1048 0 0.135716 0.990748<42.479 743.053>
LayerCount: 2
Fore
SplineSet
638 1649 m 1,0,-1
 545 982 l 1,1,2
 547 986 547 986 556 997.5 c 128,-1,3
 565 1009 565 1009 590.5 1031.5 c 128,-1,4
 616 1054 616 1054 647.5 1073 c 128,-1,5
 679 1092 679 1092 731 1106.5 c 128,-1,6
 783 1121 783 1121 840 1121 c 0,7,8
 990 1121 990 1121 1071 1036.5 c 128,-1,9
 1152 952 1152 952 1152 785 c 0,10,11
 1152 732 1152 732 1143 671 c 2,12,-1
 1048 0 l 1,13,-1
 735 0 l 1,14,-1
 832 685 l 2,15,16
 836 710 836 710 836 737 c 0,17,18
 836 811 836 811 801.5 849 c 128,-1,19
 767 887 767 887 707 887 c 0,20,21
 644 887 644 887 605 869 c 128,-1,22
 566 851 566 851 522 813 c 1,23,-1
 412 0 l 1,24,-1
 101 0 l 1,25,-1
 321 1589 l 1,26,-1
 638 1649 l 1,0,-1
EndSplineSet
EndChar

StartChar: i
Encoding: 105 105 76
Width: 623
GlyphClass: 2
Flags: W
HStem: 0 21G<110 423.756> 1083 20G<259.244 573> 1282 365<392.124 574.614>
VStem: 110 542
DStem2: 110 0 421 0 0.135716 0.990748<42.2075 1113.42>
LayerCount: 2
Fore
SplineSet
313 1464 m 128,-1,1
 324 1540 324 1540 381 1593.5 c 128,-1,2
 438 1647 438 1647 508 1647 c 128,-1,3
 578 1647 578 1647 620.5 1593.5 c 128,-1,4
 663 1540 663 1540 652 1464 c 0,5,6
 642 1388 642 1388 585 1335 c 128,-1,7
 528 1282 528 1282 457 1282 c 0,8,9
 387 1282 387 1282 344.5 1335 c 128,-1,0
 302 1388 302 1388 313 1464 c 128,-1,1
421 0 m 1,10,-1
 110 0 l 1,11,-1
 262 1103 l 1,12,-1
 573 1103 l 1,13,-1
 421 0 l 1,10,-1
EndSplineSet
EndChar

StartChar: j
Encoding: 106 106 77
Width: 695
GlyphClass: 2
Flags: W
HStem: 1083 20G<351.136 664> 1282 365<458.124 640.614>
DStem2: 149.783 -348 460.522 -348 0.135716 0.990748<366.255 1465.29>
LayerCount: 2
Fore
SplineSet
379 1464 m 128,-1,1
 390 1540 390 1540 447 1593.5 c 128,-1,2
 504 1647 504 1647 574 1647 c 128,-1,3
 644 1647 644 1647 686.5 1593.5 c 128,-1,4
 729 1540 729 1540 718 1464 c 0,5,6
 708 1388 708 1388 651 1335 c 128,-1,7
 594 1282 594 1282 523 1282 c 0,8,9
 453 1282 453 1282 410.5 1335 c 128,-1,0
 368 1388 368 1388 379 1464 c 128,-1,1
0 -113 m 1,10,11
 100 -53 100 -53 154.5 18.5 c 128,-1,12
 209 90 209 90 228 223 c 2,13,-1
 354 1103 l 1,14,-1
 664 1103 l 1,15,-1
 536 203 l 2,16,17
 521 97 521 97 475.5 2 c 128,-1,18
 430 -93 430 -93 365.5 -162 c 128,-1,19
 301 -231 301 -231 223 -279 c 128,-1,20
 145 -327 145 -327 62 -348 c 1,21,-1
 0 -113 l 1,10,11
EndSplineSet
EndChar

StartChar: k
Encoding: 107 107 78
Width: 1119
GlyphClass: 2
Flags: W
HStem: 0 21G<92 406.595 768.98 1112> 1083 20G<843.578 1209>
DStem2: 91.863 -1 403.863 -1 0.135716 0.990748<43.3526 439.638 759.812 1605.17> 500 710 762 623 0.681503 0.731815<114.886 534.307> 762 623 526 460 0.489796 -0.871837<26.5176 552.843>
LayerCount: 2
Fore
SplineSet
455 393 m 1,0,-1
 404 0 l 1,1,-1
 92 0 l 1,2,-1
 312 1589 l 1,3,-1
 631 1638 l 1,4,-1
 500 710 l 1,5,-1
 862 1103 l 1,6,-1
 1209 1103 l 1,7,-1
 762 623 l 1,8,-1
 1112 0 l 1,9,-1
 780 -1 l 1,10,-1
 526 460 l 1,11,-1
 455 393 l 1,0,-1
EndSplineSet
EndChar

StartChar: l
Encoding: 108 108 79
Width: 648
GlyphClass: 2
Flags: W
HStem: 0 21G<134 449.81>
VStem: 134 543
DStem2: 134 0 447 0 0.135716 0.990748<42.479 1604.7>
LayerCount: 2
Fore
SplineSet
677 1637 m 1,0,-1
 447 0 l 1,1,-1
 134 0 l 1,2,-1
 358 1589 l 1,3,-1
 677 1637 l 1,0,-1
EndSplineSet
EndChar

StartChar: m
Encoding: 109 109 80
Width: 1705
GlyphClass: 2
Flags: W
HStem: 0 21G<70 384.839 652 964.799 1226 1537.79> 885 236<632.28 832.5 1179.22 1437.5> 1083 20G<221.208 451.227>
VStem: 1331 310<619.969 875.472>
DStem2: 70 0 382 0 0.135716 0.990748<42.3433 879.624> 652 0 962 0 0.135716 0.990748<42.0718 794.03> 1226 0 1535 0 0.135716 0.990748<41.9361 778.668>
LayerCount: 2
Fore
SplineSet
1370 1121 m 0,0,1
 1505 1121 1505 1121 1573 1041.5 c 128,-1,2
 1641 962 1641 962 1641 814 c 0,3,4
 1641 766 1641 766 1633 702 c 2,5,-1
 1535 0 l 1,6,-1
 1226 0 l 1,7,-1
 1327 718 l 1,8,9
 1331 758 1331 758 1331 772 c 0,10,11
 1331 885 1331 885 1245 885 c 0,12,13
 1204 885 1204 885 1165.5 864 c 128,-1,14
 1127 843 1127 843 1073 793 c 1,15,-1
 962 0 l 1,16,-1
 652 0 l 1,17,-1
 753 727 l 2,18,19
 757 758 757 758 757 788 c 0,20,21
 757 842 757 842 736.5 863.5 c 128,-1,22
 716 885 716 885 677 885 c 0,23,24
 661 885 661 885 644.5 881.5 c 128,-1,25
 628 878 628 878 612 870 c 2,26,-1
 583 854 l 2,27,28
 571 848 571 848 554.5 835 c 128,-1,29
 538 822 538 822 531 816 c 2,30,-1
 509 796 l 2,31,32
 494 783 494 783 493 782 c 2,33,-1
 382 0 l 1,34,-1
 70 0 l 1,35,-1
 224 1103 l 1,36,-1
 446 1103 l 1,37,-1
 492 927 l 1,38,39
 527 1003 527 1003 610 1062 c 128,-1,40
 693 1121 693 1121 778 1121 c 0,41,42
 887 1121 887 1121 950 1082.5 c 128,-1,43
 1013 1044 1013 1044 1042 947 c 1,44,45
 1106 1035 1106 1035 1182 1078 c 128,-1,46
 1258 1121 1258 1121 1370 1121 c 0,0,1
EndSplineSet
EndChar

StartChar: n
Encoding: 110 110 81
Width: 1158
GlyphClass: 2
Flags: W
HStem: 0 21G<69 384.808 678 993.789> 885 234<626.614 866.5> 1083 20G<220.208 465.714>
VStem: 780 314<416.539 860.847>
DStem2: 69 0 382 0 0.135716 0.990748<42.479 908.609> 678 0 991 0 0.135716 0.990748<42.479 765.756>
LayerCount: 2
Fore
SplineSet
774 683 m 2,0,1
 780 726 780 726 780 760 c 0,2,3
 780 826 780 826 752.5 855.5 c 128,-1,4
 725 885 725 885 662 885 c 0,5,6
 564 885 564 885 496 812 c 1,7,-1
 382 0 l 1,8,-1
 69 0 l 1,9,-1
 223 1103 l 1,10,-1
 460 1103 l 1,11,-1
 500 963 l 1,12,13
 547 1028 547 1028 624.5 1073.5 c 128,-1,14
 702 1119 702 1119 787 1119 c 0,15,16
 946 1119 946 1119 1020 1040 c 128,-1,17
 1094 961 1094 961 1094 801 c 0,18,19
 1094 737 1094 737 1084 667 c 2,20,-1
 991 0 l 1,21,-1
 678 0 l 1,22,-1
 774 683 l 2,0,1
EndSplineSet
EndChar

StartChar: o
Encoding: 111 111 82
Width: 1140
GlyphClass: 2
Flags: W
HStem: -16 234<458.971 682.281> 885 236<536.569 767.151>
VStem: 101 311<265.208 705.752> 809 309<402.685 833.94>
LayerCount: 2
Fore
SplineSet
101 425 m 0,0,1
 101 483 101 483 108.5 543.5 c 128,-1,2
 116 604 116 604 135.5 673 c 128,-1,3
 155 742 155 742 184.5 805 c 128,-1,4
 214 868 214 868 261 926.5 c 128,-1,5
 308 985 308 985 367.5 1027.5 c 128,-1,6
 427 1070 427 1070 510 1095.5 c 128,-1,7
 593 1121 593 1121 691 1121 c 0,8,9
 900 1121 900 1121 1009 1006 c 128,-1,10
 1118 891 1118 891 1118 681 c 0,11,12
 1118 623 1118 623 1110.5 562 c 128,-1,13
 1103 501 1103 501 1083.5 432 c 128,-1,14
 1064 363 1064 363 1035 300 c 128,-1,15
 1006 237 1006 237 958.5 178.5 c 128,-1,16
 911 120 911 120 852 77.5 c 128,-1,17
 793 35 793 35 710 9.5 c 128,-1,18
 627 -16 627 -16 530 -16 c 0,19,20
 320 -16 320 -16 210.5 100 c 128,-1,21
 101 216 101 216 101 425 c 0,0,1
563 218 m 0,22,23
 659 218 659 218 717 301.5 c 128,-1,24
 775 385 775 385 799 555 c 1,25,26
 809 633 809 633 809 681 c 0,27,28
 809 786 809 786 772 835.5 c 128,-1,29
 735 885 735 885 658 885 c 0,30,31
 561 885 561 885 503.5 804.5 c 128,-1,32
 446 724 446 724 422 555 c 0,33,34
 412 488 412 488 412 429 c 0,35,36
 412 218 412 218 563 218 c 0,22,23
EndSplineSet
EndChar

StartChar: p
Encoding: 112 112 83
Width: 1167
GlyphClass: 2
Flags: W
HStem: -393 21G<23 335.863> -16 234<479.337 720.914> 884 236<632.57 885.5> 1083 20G<229.206 476.532>
VStem: 835 312<395.503 845.174>
DStem2: 23 -393 333 -393 0.135716 0.990748<42.0718 550.19 716.964 1298.35>
LayerCount: 2
Fore
SplineSet
1147 693 m 0,0,1
 1147 495 1147 495 1083.5 334.5 c 128,-1,2
 1020 174 1020 174 899 79 c 128,-1,3
 778 -16 778 -16 620 -16 c 0,4,5
 466 -16 466 -16 405 110 c 1,6,-1
 333 -393 l 1,7,-1
 23 -393 l 1,8,-1
 232 1103 l 1,9,-1
 471 1103 l 1,10,-1
 510 962 l 1,11,12
 559 1038 559 1038 638.5 1079 c 128,-1,13
 718 1120 718 1120 798 1120 c 0,14,15
 973 1120 973 1120 1060 1006 c 128,-1,16
 1147 892 1147 892 1147 693 c 0,0,1
825 559 m 0,17,18
 835 626 835 626 835 678 c 0,19,20
 835 884 835 884 697 884 c 0,21,22
 579 884 579 884 504 813 c 1,23,-1
 433 306 l 1,24,25
 504 218 504 218 622 218 c 0,26,27
 661 218 661 218 693 239 c 128,-1,28
 725 260 725 260 745.5 292 c 128,-1,29
 766 324 766 324 782.5 371.5 c 128,-1,30
 799 419 799 419 808.5 462.5 c 128,-1,31
 818 506 818 506 825 559 c 0,17,18
EndSplineSet
EndChar

StartChar: q
Encoding: 113 113 84
Width: 1197
GlyphClass: 2
Flags: W
HStem: -393 21G<639 950.834> -16 234<440.667 623.821> 884 236<536.809 764.101> 1083 20G<886.293 1160>
VStem: 108 304<244.414 700.843>
DStem2: 639 -393 948 -393 0.135716 0.990748<41.9361 508.118 656.438 1244.93>
LayerCount: 2
Fore
SplineSet
624 1120 m 0,0,1
 713 1120 713 1120 762.5 1079.5 c 128,-1,2
 812 1039 812 1039 831 956 c 1,3,-1
 895 1103 l 1,4,-1
 1160 1103 l 1,5,-1
 948 -393 l 1,6,-1
 639 -393 l 1,7,-1
 711 110 l 1,8,9
 615 -16 615 -16 461 -16 c 0,10,11
 370 -16 370 -16 299 17.5 c 128,-1,12
 228 51 228 51 192 110 c 0,13,14
 108 244 108 244 108 418 c 0,15,16
 108 474 108 474 117 537 c 0,17,18
 136 668 136 668 174 772 c 128,-1,19
 212 876 212 876 272.5 955.5 c 128,-1,20
 333 1035 333 1035 422 1077.5 c 128,-1,21
 511 1120 511 1120 624 1120 c 0,0,1
426 559 m 0,22,23
 412 464 412 464 412 395 c 0,24,25
 412 218 412 218 524 218 c 0,26,27
 644 218 644 218 739 306 c 1,28,-1
 807 791 l 1,29,30
 791 830 791 830 749 857 c 128,-1,31
 707 884 707 884 646 884 c 0,32,33
 472 884 472 884 426 559 c 0,22,23
EndSplineSet
EndChar

StartChar: r
Encoding: 114 114 85
Width: 796
GlyphClass: 2
Flags: W
HStem: 0 21G<90 405.817> 863 255<632.272 812.716> 1083 20G<242.189 515.286>
DStem2: 90 0 403 0 0.135716 0.990748<42.479 873.269>
LayerCount: 2
Fore
SplineSet
529 963 m 1,0,1
 555 1006 555 1006 585.5 1036 c 128,-1,2
 616 1066 616 1066 644 1082.5 c 128,-1,3
 672 1099 672 1099 710 1107.5 c 128,-1,4
 748 1116 748 1116 777.5 1118 c 128,-1,5
 807 1120 807 1120 853 1120 c 1,6,-1
 814 846 l 1,7,8
 773 863 773 863 719 863 c 0,9,10
 616 863 616 863 514 788 c 1,11,-1
 403 0 l 1,12,-1
 90 0 l 1,13,-1
 245 1103 l 1,14,-1
 513 1103 l 1,15,-1
 529 963 l 1,0,1
EndSplineSet
EndChar

StartChar: s
Encoding: 115 115 86
Width: 1003
GlyphClass: 2
Flags: W
HStem: -15 238<253.649 589.848> 881 238<475.884 842.477>
VStem: 170 282<744.409 861.043> 622 290<248.297 396.404>
LayerCount: 2
Fore
SplineSet
170 753 m 0,0,1
 170 918 170 918 292 1018.5 c 128,-1,2
 414 1119 414 1119 626 1119 c 0,3,4
 707 1119 707 1119 797 1096.5 c 128,-1,5
 887 1074 887 1074 937 1051 c 2,6,-1
 987 1028 l 1,7,-1
 898 814 l 1,8,9
 881 822 881 822 852 833 c 128,-1,10
 823 844 823 844 749.5 862.5 c 128,-1,11
 676 881 676 881 622 881 c 0,12,13
 523 881 523 881 487.5 859.5 c 128,-1,14
 452 838 452 838 452 796 c 0,15,16
 452 769 452 769 467 755 c 128,-1,17
 482 741 482 741 520 725 c 2,18,-1
 640 676 l 2,19,20
 694 654 694 654 727.5 637.5 c 128,-1,21
 761 621 761 621 800 595 c 128,-1,22
 839 569 839 569 861 542 c 128,-1,23
 883 515 883 515 897.5 475.5 c 128,-1,24
 912 436 912 436 912 388 c 0,25,26
 912 208 912 208 786 96.5 c 128,-1,27
 660 -15 660 -15 448 -15 c 0,28,29
 212 -15 212 -15 76 88 c 1,30,-1
 165 306 l 1,31,32
 183 297 183 297 213.5 283 c 128,-1,33
 244 269 244 269 322.5 246 c 128,-1,34
 401 223 401 223 462 223 c 0,35,36
 539 223 539 223 580.5 247.5 c 128,-1,37
 622 272 622 272 622 344 c 0,38,39
 622 375 622 375 604.5 389 c 128,-1,40
 587 403 587 403 540 421 c 1,41,-1
 412 477 l 2,42,43
 285 532 285 532 227.5 596 c 128,-1,44
 170 660 170 660 170 753 c 0,0,1
EndSplineSet
EndChar

StartChar: t
Encoding: 116 116 87
Width: 781
GlyphClass: 2
Flags: W
HStem: -16 207<366 673.454> 946 156<125 223 555 789> 1557 20G<547.286 620.137>
VStem: 144 309<206.013 473.591>
DStem2: 89.755 -16 404.851 -16 0.135716 0.990748<373.059 971.183 1170.8 1524.25>
LayerCount: 2
Fore
SplineSet
546 191 m 0,0,1
 575 191 575 191 613.5 201.5 c 128,-1,2
 652 212 652 212 676.5 222 c 128,-1,3
 701 232 701 232 701 234 c 2,4,-1
 751 63 l 1,5,6
 735 54 735 54 706 41 c 128,-1,7
 677 28 677 28 594 6 c 128,-1,8
 511 -16 511 -16 434 -16 c 0,9,10
 298 -16 298 -16 221 64.5 c 128,-1,11
 144 145 144 145 144 319 c 0,12,13
 144 383 144 383 154 453 c 2,14,-1
 223 946 l 1,15,-1
 104 946 l 1,16,-1
 125 1102 l 1,17,-1
 253 1102 l 1,18,-1
 305 1493 l 1,19,-1
 623 1577 l 1,20,-1
 555 1102 l 1,21,-1
 810 1102 l 1,22,-1
 789 946 l 1,23,-1
 534 946 l 1,24,-1
 458 372 l 2,25,26
 453 335 453 335 453 310 c 0,27,28
 453 191 453 191 546 191 c 0,0,1
EndSplineSet
EndChar

StartChar: u
Encoding: 117 117 88
Width: 1218
GlyphClass: 2
Flags: W
HStem: 0 21G<369.5 503.5 758.611 987.777> 1082 20G<200.232 516 822.253 1138>
VStem: 104 314<255.087 707.477>
DStem2: 48.9331 -16 362.495 -16 0.135716 0.990748<418.741 1128.57> 671.535 -16 982.808 -16 0.135716 0.990748<265.42 1128.48>
LayerCount: 2
Fore
SplineSet
424 433 m 2,0,1
 418 390 418 390 418 355 c 0,2,3
 418 295 418 295 453.5 258.5 c 128,-1,4
 489 222 489 222 544 218 c 1,5,6
 654 226 654 226 714 294 c 1,7,-1
 825 1102 l 1,8,-1
 1138 1102 l 1,9,-1
 985 0 l 1,10,-1
 764 0 l 1,11,-1
 719 167 l 1,12,13
 691 95 691 95 622.5 39.5 c 128,-1,14
 554 -16 554 -16 453 -16 c 0,15,16
 286 -16 286 -16 195 71 c 128,-1,17
 104 158 104 158 104 324 c 0,18,19
 104 389 104 389 114 459 c 2,20,-1
 203 1102 l 1,21,-1
 516 1102 l 1,22,-1
 424 433 l 2,0,1
EndSplineSet
EndChar

StartChar: v
Encoding: 118 118 89
Width: 1008
GlyphClass: 2
Flags: W
HStem: 0 21G<268.477 642.221> 1082 20G<132 420.136 772.47 1087>
DStem2: 418 1102 132 1102 0.125143 -0.992139<0 753.123> 498 353 634 0 0.380201 0.924904<0 799.97>
LayerCount: 2
Fore
SplineSet
634 0 m 1,0,-1
 271 0 l 1,1,-1
 132 1102 l 1,2,-1
 418 1102 l 1,3,-1
 498 353 l 1,4,-1
 780 1102 l 1,5,-1
 1087 1102 l 1,6,-1
 634 0 l 1,0,-1
EndSplineSet
EndChar

StartChar: w
Encoding: 119 119 90
Width: 1353
GlyphClass: 2
Flags: W
HStem: 0 21G<204.475 510.656 755.896 1066.13> 1082 20G<122 399.687 648.362 919.775 1184.94 1452>
VStem: 122 277<913.925 1102>
DStem2: 423 403 721 652 0.315006 0.94909<0 330.195> 946 405 1059 0 0.335903 0.941896<0 739.134>
LayerCount: 2
Fore
SplineSet
757 0 m 1,0,-1
 721 652 l 1,1,-1
 504 0 l 1,2,-1
 206 0 l 1,3,-1
 122 1102 l 1,4,-1
 399 1102 l 1,5,-1
 423 403 l 1,6,-1
 655 1102 l 1,7,-1
 919 1102 l 1,8,-1
 946 405 l 1,9,-1
 1192 1102 l 1,10,-1
 1452 1102 l 1,11,-1
 1059 0 l 1,12,-1
 757 0 l 1,0,-1
EndSplineSet
EndChar

StartChar: x
Encoding: 120 120 91
Width: 1023
GlyphClass: 2
Flags: W
HStem: 1 21G<0 326.938 633.5 951> 1083 20G<149 477.079 782.424 1111>
DStem2: 591 801 713 555 0.585544 0.81064<0 364.85>
LayerCount: 2
Fore
SplineSet
521 321 m 1,0,-1
 314 1 l 1,1,-1
 0 1 l 1,2,-1
 399 555 l 1,3,-1
 149 1103 l 1,4,-1
 469 1103 l 1,5,-1
 591 801 l 1,6,-1
 796 1103 l 1,7,-1
 1111 1103 l 1,8,-1
 713 555 l 1,9,-1
 951 1 l 1,10,-1
 641 1 l 1,11,-1
 521 321 l 1,0,-1
EndSplineSet
EndChar

StartChar: y
Encoding: 121 121 92
Width: 1002
GlyphClass: 2
Flags: W
HStem: -475 21G<62.1587 134.179> 1082 20G<104 401.142 801.454 1104>
DStem2: 397 1102 104 1102 0.218845 -0.97576<0 719.862> 543 397 650 -32 0.371673 0.928364<0 753.361>
LayerCount: 2
Fore
SplineSet
114 -188 m 2,0,1
 219 -154 219 -154 287.5 -87.5 c 128,-1,2
 356 -21 356 -21 346 23 c 2,3,-1
 104 1102 l 1,4,-1
 397 1102 l 1,5,-1
 543 397 l 1,6,-1
 809 1102 l 1,7,-1
 1104 1102 l 1,8,-1
 650 -32 l 2,9,10
 583 -200 583 -200 476.5 -291.5 c 128,-1,11
 370 -383 370 -383 198 -436 c 1,12,-1
 67 -475 l 1,13,-1
 6 -223 l 1,14,-1
 114 -188 l 2,0,1
EndSplineSet
EndChar

StartChar: z
Encoding: 122 122 93
Width: 1006
GlyphClass: 2
Flags: W
HStem: 0 234<453 843> 866 236<262 640>
LayerCount: 2
Fore
SplineSet
640 866 m 1,0,-1
 233 866 l 1,1,-1
 262 1102 l 1,2,-1
 990 1102 l 1,3,-1
 958 880 l 1,4,-1
 453 234 l 1,5,-1
 873 234 l 1,6,-1
 843 0 l 1,7,-1
 95 0 l 1,8,-1
 128 233 l 1,9,-1
 640 866 l 1,0,-1
EndSplineSet
EndChar

StartChar: braceleft
Encoding: 123 123 94
Width: 816
GlyphClass: 2
Flags: W
VStem: 257.5 295.5<-12.2285 488.099>
LayerCount: 2
Fore
SplineSet
662 982 m 0,0,1
 652 911 652 911 633 854.5 c 128,-1,2
 614 798 614 798 593.5 764 c 128,-1,3
 573 730 573 730 545 704.5 c 128,-1,4
 517 679 517 679 495 667 c 128,-1,5
 473 655 473 655 446 645 c 1,6,7
 607 576 607 576 569 307 c 0,8,9
 553 192 553 192 548.5 126.5 c 128,-1,10
 544 61 544 61 553 28.5 c 128,-1,11
 562 -4 562 -4 577 -12.5 c 128,-1,12
 592 -21 592 -21 623 -21 c 1,13,-1
 596 -210 l 1,14,15
 557 -210 557 -210 523.5 -206 c 128,-1,16
 490 -202 490 -202 453.5 -192 c 128,-1,17
 417 -182 417 -182 389 -165.5 c 128,-1,18
 361 -149 361 -149 332.5 -123.5 c 128,-1,19
 304 -98 304 -98 287.5 -63 c 128,-1,20
 271 -28 271 -28 257.5 19.5 c 128,-1,21
 244 67 244 67 245.5 127 c 128,-1,22
 247 187 247 187 255 262 c 1,23,24
 277 430 277 430 263.5 490 c 128,-1,25
 250 550 250 550 194 550 c 1,26,-1
 221 739 l 1,27,28
 277 739 277 739 308 801 c 128,-1,29
 339 863 339 863 362 1027 c 0,30,31
 378 1143 378 1143 415 1229.5 c 128,-1,32
 452 1316 452 1316 497 1366 c 128,-1,33
 542 1416 542 1416 602.5 1447 c 128,-1,34
 663 1478 663 1478 717.5 1488.5 c 128,-1,35
 772 1499 772 1499 836 1499 c 1,36,-1
 810 1310 l 1,37,38
 769 1310 769 1310 747.5 1292.5 c 128,-1,39
 726 1275 726 1275 705 1203.5 c 128,-1,40
 684 1132 684 1132 662 982 c 0,0,1
EndSplineSet
EndChar

StartChar: bar
Encoding: 124 124 95
Width: 791
GlyphClass: 2
Flags: W
VStem: 296 287<-120 1680>
LayerCount: 2
Fore
SplineSet
296 -120 m 1,0,-1
 296 1681 l 1,1,-1
 583 1680 l 1,2,-1
 583 -121 l 1,3,-1
 296 -120 l 1,0,-1
EndSplineSet
EndChar

StartChar: braceright
Encoding: 125 125 96
Width: 834
GlyphClass: 2
Flags: W
VStem: 380 294.5<739.86 1301.23> 407.5 281<801.417 1301.23>
LayerCount: 2
Fore
SplineSet
384 982 m 0,0,1
 402 1096 402 1096 407.5 1162 c 128,-1,2
 413 1228 413 1228 405 1260.5 c 128,-1,3
 397 1293 397 1293 383.5 1301.5 c 128,-1,4
 370 1310 370 1310 341 1310 c 1,5,-1
 371 1499 l 1,6,7
 412 1499 412 1499 447.5 1493.5 c 128,-1,8
 483 1488 483 1488 521 1475 c 128,-1,9
 559 1462 559 1462 586 1439 c 128,-1,10
 613 1416 613 1416 638.5 1380.5 c 128,-1,11
 664 1345 664 1345 674.5 1295.5 c 128,-1,12
 685 1246 685 1246 688.5 1179 c 128,-1,13
 692 1112 692 1112 676 1027 c 1,14,15
 651 860 651 860 662 799.5 c 128,-1,16
 673 739 673 739 725 739 c 1,17,-1
 696 550 l 1,18,19
 644 550 644 550 613.5 488.5 c 128,-1,20
 583 427 583 427 557 262 c 0,21,22
 539 146 539 146 502.5 59.5 c 128,-1,23
 466 -27 466 -27 422.5 -77 c 128,-1,24
 379 -127 379 -127 322 -158 c 128,-1,25
 265 -189 265 -189 214 -199.5 c 128,-1,26
 163 -210 163 -210 104 -210 c 1,27,-1
 133 -21 l 1,28,29
 171 -21 171 -21 191 -3.5 c 128,-1,30
 211 14 211 14 232 85 c 128,-1,31
 253 156 253 156 277 307 c 0,32,33
 319 576 319 576 489 645 c 1,34,35
 470 653 470 653 455.5 663 c 128,-1,36
 441 673 441 673 424.5 689.5 c 128,-1,37
 408 706 408 706 397.5 731 c 128,-1,38
 387 756 387 756 380 790 c 128,-1,39
 373 824 373 824 374 873 c 128,-1,40
 375 922 375 922 384 982 c 0,0,1
EndSplineSet
EndChar

StartChar: asciitilde
Encoding: 126 126 97
Width: 1147
GlyphClass: 2
Flags: W
HStem: 310 221<652.085 806.073> 461 213<388.112 532.338>
VStem: 169 194<336 431.6> 829 204<552.151 635>
DStem2: 535 651.5 499.5 437.5 0.898123 -0.439745<-4.43566 254.109>
LayerCount: 2
Fore
SplineSet
772 310 m 0,0,1
 719 310 719 310 665 333.5 c 128,-1,2
 611 357 611 357 574.5 385.5 c 128,-1,3
 538 414 538 414 499.5 437.5 c 128,-1,4
 461 461 461 461 436 461 c 0,5,6
 407 461 407 461 389.5 432.5 c 128,-1,7
 372 404 372 404 363 336 c 1,8,-1
 169 336 l 1,9,10
 217 674 217 674 431 674 c 0,11,12
 485 674 485 674 535 651.5 c 128,-1,13
 585 629 585 629 616.5 602.5 c 128,-1,14
 648 576 648 576 687 553.5 c 128,-1,15
 726 531 726 531 760 531 c 0,16,17
 793 531 793 531 806.5 551.5 c 128,-1,18
 820 572 820 572 829 635 c 1,19,-1
 1033 635 l 1,20,21
 1012 487 1012 487 942 398 c 128,-1,22
 872 309 872 309 772 310 c 0,0,1
EndSplineSet
EndChar

StartChar: exclamdown
Encoding: 161 161 99
Width: 667
GlyphClass: 2
Flags: W
HStem: 0 21G<111 501.163> 1284 316<417.824 609.176>
VStem: 111 565
LayerCount: 2
Fore
SplineSet
676 1442 m 128,-1,1
 667 1375 667 1375 611 1329.5 c 128,-1,2
 555 1284 555 1284 491 1284 c 128,-1,3
 427 1284 427 1284 384.5 1329.5 c 128,-1,4
 342 1375 342 1375 351 1442 c 128,-1,5
 360 1509 360 1509 416 1554.5 c 128,-1,6
 472 1600 472 1600 536 1600 c 128,-1,7
 600 1600 600 1600 642.5 1554.5 c 128,-1,0
 685 1509 685 1509 676 1442 c 128,-1,1
111 0 m 1,8,-1
 372 1152 l 1,9,-1
 567 1152 l 1,10,-1
 500 0 l 1,11,-1
 111 0 l 1,8,-1
EndSplineSet
EndChar

StartChar: cent
Encoding: 162 162 100
Width: 980
GlyphClass: 2
Flags: W
HStem: 1101 20G<630 700>
VStem: 108 315<294.102 706.232>
DStem2: 467 -172 586 -192 0.197224 0.980358<3.86252 161.208 426.101 1077.07 1320.84 1561.67>
LayerCount: 2
Fore
SplineSet
108 438 m 0,0,1
 108 588 108 588 156.5 718 c 128,-1,2
 205 848 205 848 285.5 935 c 128,-1,3
 366 1022 366 1022 470 1071.5 c 128,-1,4
 574 1121 574 1121 686 1121 c 0,5,6
 714 1121 714 1121 727 1120 c 1,7,-1
 775 1359 l 1,8,-1
 892 1339 l 1,9,-1
 845 1104 l 1,10,11
 925 1084 925 1084 1021 1023 c 1,12,-1
 934 803 l 1,13,14
 922 818 922 818 884 838.5 c 128,-1,15
 846 859 846 859 799 872 c 1,16,-1
 669 222 l 1,17,18
 709 226 709 226 750 242 c 128,-1,19
 791 258 791 258 808 268 c 2,20,-1
 862 303 l 1,21,-1
 887 83 l 1,22,23
 747 6 747 6 623 -9 c 1,24,-1
 586 -192 l 1,25,-1
 467 -172 l 1,26,-1
 499 -14 l 1,27,28
 323 -6 323 -6 215.5 112.5 c 128,-1,29
 108 231 108 231 108 438 c 0,0,1
549 234 m 1,30,-1
 679 884 l 1,31,32
 567 875 567 875 510 798 c 128,-1,33
 453 721 453 721 430 557 c 0,34,35
 423 508 423 508 423 460 c 0,36,37
 423 279 423 279 549 234 c 1,30,-1
EndSplineSet
EndChar

StartChar: sterling
Encoding: 163 163 101
Width: 1121
GlyphClass: 2
Flags: W
HStem: 0 232<401 927> 563 109<225 320 578 952> 1061 261<591.286 913.502>
VStem: 254 281<707.295 1005.28> 319 261<406.066 563>
LayerCount: 2
Fore
SplineSet
740 1061 m 0,0,1
 699 1061 699 1061 665 1052 c 128,-1,2
 631 1043 631 1043 600.5 1023 c 128,-1,3
 570 1003 570 1003 552.5 963.5 c 128,-1,4
 535 924 535 924 535 869 c 0,5,6
 535 825 535 825 545.5 776 c 128,-1,7
 556 727 556 727 567 700 c 2,8,-1
 578 672 l 1,9,-1
 968 672 l 1,10,-1
 952 563 l 1,11,-1
 580 563 l 1,12,13
 571 499 571 499 549.5 441.5 c 128,-1,14
 528 384 528 384 503.5 347.5 c 128,-1,15
 479 311 479 311 455.5 283.5 c 128,-1,16
 432 256 432 256 416 244 c 2,17,-1
 401 232 l 1,18,-1
 960 232 l 1,19,-1
 927 0 l 1,20,-1
 117 0 l 1,21,-1
 146 226 l 1,22,-1
 237 335 l 1,23,-1
 240 338 l 2,24,25
 242 341 242 341 246.5 346.5 c 128,-1,26
 251 352 251 352 256.5 360 c 128,-1,27
 262 368 262 368 268.5 379 c 128,-1,28
 275 390 275 390 281.5 403.5 c 128,-1,29
 288 417 288 417 295 434.5 c 128,-1,30
 302 452 302 452 308 471 c 128,-1,31
 314 490 314 490 319 514 c 128,-1,32
 324 538 324 538 328 564 c 1,33,-1
 210 563 l 1,34,-1
 225 667 l 1,35,-1
 320 667 l 1,36,-1
 305 694 l 1,37,38
 254 802 254 802 254 909 c 0,39,40
 254 961 254 961 269.5 1015.5 c 128,-1,41
 285 1070 285 1070 321.5 1125.5 c 128,-1,42
 358 1181 358 1181 412 1224 c 128,-1,43
 466 1267 466 1267 550.5 1294.5 c 128,-1,44
 635 1322 635 1322 738 1322 c 0,45,46
 815 1322 815 1322 883 1308 c 128,-1,47
 951 1294 951 1294 994 1274.5 c 128,-1,48
 1037 1255 1037 1255 1068.5 1234.5 c 128,-1,49
 1100 1214 1100 1214 1114 1202 c 1,50,-1
 1127 1189 l 1,51,-1
 972 971 l 1,52,53
 969 975 969 975 963 981 c 128,-1,54
 957 987 957 987 935.5 1002.5 c 128,-1,55
 914 1018 914 1018 889 1030 c 128,-1,56
 864 1042 864 1042 824 1051.5 c 128,-1,57
 784 1061 784 1061 740 1061 c 0,0,1
EndSplineSet
EndChar

StartChar: currency
Encoding: 164 164 102
Width: 1410
GlyphClass: 2
Flags: W
HStem: 541 186<598.628 860.882> 1238 188<668.373 932.627>
VStem: 346 178<803.035 1086.51> 1007 176<880.09 1162.05>
DStem2: 175 538 278 408 0.730673 0.682727<0 285.237 1188.9 1467.33> 438 1549 299 1419 0.619569 -0.784942<15.9225 262.367 1029.95 1287.99>
LayerCount: 2
Fore
SplineSet
1007 1028 m 0,0,1
 1007 1113 1007 1113 951.5 1175.5 c 128,-1,2
 896 1238 896 1238 809 1238 c 0,3,4
 699 1238 699 1238 611.5 1144 c 128,-1,5
 524 1050 524 1050 524 937 c 0,6,7
 524 852 524 852 579.5 789.5 c 128,-1,8
 635 727 635 727 722 727 c 0,9,10
 831 727 831 727 919 821.5 c 128,-1,11
 1007 916 1007 916 1007 1028 c 0,0,1
1151 1224 m 1,12,13
 1183 1151 1183 1151 1183 1065 c 0,14,15
 1183 895 1183 895 1070 748 c 1,16,-1
 1236 538 l 1,17,-1
 1097 408 l 1,18,-1
 931 619 l 1,19,20
 812 541 812 541 687 541 c 0,21,22
 574 541 574 541 488 604 c 1,23,-1
 278 408 l 1,24,-1
 175 538 l 1,25,-1
 383 732 l 1,26,27
 346 809 346 809 346 903 c 0,28,29
 346 1074 346 1074 458 1217 c 1,30,-1
 299 1419 l 1,31,-1
 438 1549 l 1,32,-1
 597 1347 l 1,33,34
 716 1426 716 1426 843 1426 c 0,35,36
 963 1426 963 1426 1051 1356 c 1,37,-1
 1257 1549 l 1,38,-1
 1360 1419 l 1,39,-1
 1151 1224 l 1,12,13
EndSplineSet
EndChar

StartChar: yen
Encoding: 165 165 103
Width: 1189
GlyphClass: 2
Flags: W
HStem: 0 21G<430 756.836> 402 120<203 487 829 1112> 651 120<238 427 976 1147> 1557 20G<183 539.465 1082.9 1450>
LayerCount: 2
Fore
SplineSet
706 811 m 1,0,-1
 1093 1577 l 1,1,-1
 1450 1577 l 1,2,-1
 976 771 l 1,3,-1
 1164 771 l 1,4,-1
 1147 651 l 1,5,-1
 905 651 l 1,6,-1
 829 522 l 1,7,-1
 1129 522 l 1,8,-1
 1112 402 l 1,9,-1
 811 402 l 1,10,-1
 754 0 l 1,11,-1
 430 0 l 1,12,-1
 487 402 l 1,13,-1
 186 402 l 1,14,-1
 203 522 l 1,15,-1
 502 522 l 1,16,-1
 463 651 l 1,17,-1
 221 651 l 1,18,-1
 238 771 l 1,19,-1
 427 771 l 1,20,-1
 183 1577 l 1,21,-1
 535 1577 l 1,22,-1
 706 811 l 1,0,-1
EndSplineSet
EndChar

StartChar: brokenbar
Encoding: 166 166 104
Width: 717
GlyphClass: 2
Flags: W
VStem: 171 542
DStem2: 171 -147 459 -147 0.135716 0.990748<39.0861 753.484 1117.56 1831.96>
LayerCount: 2
Fore
SplineSet
171 -147 m 1,0,-1
 277 599 l 1,1,-1
 563 599 l 1,2,-1
 459 -147 l 1,3,-1
 171 -147 l 1,0,-1
321 921 m 1,4,-1
 427 1667 l 1,5,-1
 713 1667 l 1,6,-1
 609 921 l 1,7,-1
 321 921 l 1,4,-1
EndSplineSet
EndChar

StartChar: section
Encoding: 167 167 105
Width: 1039
GlyphClass: 2
Flags: W
HStem: -110 238<330.967 670.06> 1340 238<537.722 858.192>
VStem: 200 240<666.999 822.579> 273 239<1181.46 1310.02> 713 250<171.26 344.208> 788 247<680.637 832.821>
LayerCount: 2
Fore
SplineSet
273 1215 m 0,0,1
 273 1375 273 1375 392 1476.5 c 128,-1,2
 511 1578 511 1578 717 1578 c 0,3,4
 777 1578 777 1578 837 1562 c 128,-1,5
 897 1546 897 1546 940.5 1523 c 128,-1,6
 984 1500 984 1500 1019 1477.5 c 128,-1,7
 1054 1455 1054 1455 1072 1439 c 2,8,-1
 1090 1423 l 1,9,-1
 976 1220 l 1,10,11
 932 1262 932 1262 847 1301 c 128,-1,12
 762 1340 762 1340 694 1340 c 0,13,14
 512 1340 512 1340 512 1230 c 0,15,16
 512 1213 512 1213 532 1196 c 128,-1,17
 552 1179 552 1179 613 1154 c 2,18,-1
 750 1098 l 2,19,20
 914 1031 914 1031 974.5 966 c 128,-1,21
 1035 901 1035 901 1035 811 c 0,22,23
 1035 684 1035 684 974.5 608.5 c 128,-1,24
 914 533 914 533 825 506 c 1,25,26
 963 438 963 438 963 279 c 0,27,28
 963 237 963 237 954.5 196 c 128,-1,29
 946 155 946 155 927 109.5 c 128,-1,30
 908 64 908 64 871 26 c 128,-1,31
 834 -12 834 -12 782.5 -43.5 c 128,-1,32
 731 -75 731 -75 653 -92.5 c 128,-1,33
 575 -110 575 -110 478 -110 c 0,34,35
 384 -110 384 -110 279 -71 c 128,-1,36
 174 -32 174 -32 126 18 c 1,37,-1
 103 43 l 1,38,-1
 221 258 l 1,39,-1
 228 251 l 2,40,41
 234 244 234 244 247 232.5 c 128,-1,42
 260 221 260 221 277.5 207.5 c 128,-1,43
 295 194 295 194 319.5 179.5 c 128,-1,44
 344 165 344 165 371 153.5 c 128,-1,45
 398 142 398 142 432 135 c 128,-1,46
 466 128 466 128 500 128 c 0,47,48
 565 128 565 128 610 141.5 c 128,-1,49
 655 155 655 155 676 178.5 c 128,-1,50
 697 202 697 202 705 224 c 128,-1,51
 713 246 713 246 713 271 c 0,52,53
 713 312 713 312 685.5 335 c 128,-1,54
 658 358 658 358 593 383 c 2,55,-1
 452 437 l 2,56,57
 309 492 309 492 254.5 550 c 128,-1,58
 200 608 200 608 200 697 c 0,59,60
 200 765 200 765 219 820.5 c 128,-1,61
 238 876 238 876 270.5 912 c 128,-1,62
 303 948 303 948 339 971 c 128,-1,63
 375 994 375 994 416 1005 c 1,64,65
 273 1062 273 1062 273 1215 c 0,0,1
627 852 m 0,66,67
 538 852 538 852 489 825.5 c 128,-1,68
 440 799 440 799 440 733 c 0,69,70
 440 648 440 648 598 648 c 0,71,72
 788 648 788 648 788 768 c 0,73,74
 788 809 788 809 753.5 830.5 c 128,-1,75
 719 852 719 852 627 852 c 0,66,67
EndSplineSet
EndChar

StartChar: dieresis
Encoding: 168 168 106
Width: 1348
GlyphClass: 2
Flags: W
HStem: -12 365<267.124 449.614 877.124 1059.61>
LayerCount: 2
Fore
SplineSet
188 170 m 128,-1,1
 199 246 199 246 256 299.5 c 128,-1,2
 313 353 313 353 383 353 c 128,-1,3
 453 353 453 353 495.5 299.5 c 128,-1,4
 538 246 538 246 527 170 c 0,5,6
 517 94 517 94 460 41 c 128,-1,7
 403 -12 403 -12 332 -12 c 0,8,9
 262 -12 262 -12 219.5 41 c 128,-1,0
 177 94 177 94 188 170 c 128,-1,1
798 170 m 128,-1,11
 809 246 809 246 866 299.5 c 128,-1,12
 923 353 923 353 993 353 c 128,-1,13
 1063 353 1063 353 1105.5 299.5 c 128,-1,14
 1148 246 1148 246 1137 170 c 0,15,16
 1127 94 1127 94 1070 41 c 128,-1,17
 1013 -12 1013 -12 942 -12 c 0,18,19
 872 -12 872 -12 829.5 41 c 128,-1,10
 787 94 787 94 798 170 c 128,-1,11
EndSplineSet
EndChar

StartChar: copyright
Encoding: 169 169 107
Width: 1940
GlyphClass: 2
Flags: W
HStem: -69 220<674.275 1130.51> 281 209<831.472 1128.55> 1100 209<896.928 1230.92> 1440 221<850.151 1299.68>
LayerCount: 2
Fore
SplineSet
901 151 m 0,0,1
 1071 151 1071 151 1220 238.5 c 128,-1,2
 1369 326 1369 326 1465 474.5 c 128,-1,3
 1561 623 1561 623 1586 800 c 1,4,5
 1595 848 1595 848 1592 901 c 128,-1,6
 1589 954 1589 954 1582.5 1008 c 128,-1,7
 1576 1062 1576 1062 1555 1115 c 128,-1,8
 1534 1168 1534 1168 1506.5 1216 c 128,-1,9
 1479 1264 1479 1264 1435 1305 c 128,-1,10
 1391 1346 1391 1346 1339 1376 c 128,-1,11
 1287 1406 1287 1406 1216.5 1423 c 128,-1,12
 1146 1440 1146 1440 1064 1440 c 0,13,14
 956 1440 956 1440 845.5 1394 c 128,-1,15
 735 1348 735 1348 641.5 1266.5 c 128,-1,16
 548 1185 548 1185 480 1061.5 c 128,-1,17
 412 938 412 938 392 794 c 0,18,19
 367 615 367 615 420.5 469 c 128,-1,20
 474 323 474 323 600 237 c 128,-1,21
 726 151 726 151 901 151 c 0,0,1
1100 1661 m 0,22,23
 1214 1661 1214 1661 1314 1634.5 c 128,-1,24
 1414 1608 1414 1608 1487 1561.5 c 128,-1,25
 1560 1515 1560 1515 1618 1456 c 128,-1,26
 1676 1397 1676 1397 1714.5 1327.5 c 128,-1,27
 1753 1258 1753 1258 1777 1190.5 c 128,-1,28
 1801 1123 1801 1123 1811 1055 c 0,29,30
 1830 926 1830 926 1808 767 c 0,31,32
 1800 710 1800 710 1781 647.5 c 128,-1,33
 1762 585 1762 585 1729.5 511 c 128,-1,34
 1697 437 1697 437 1646.5 364.5 c 128,-1,35
 1596 292 1596 292 1531.5 223.5 c 128,-1,36
 1467 155 1467 155 1376 94.5 c 128,-1,37
 1285 34 1285 34 1180 -8 c 0,38,39
 1025 -69 1025 -69 861 -69 c 0,40,41
 701 -69 701 -69 562 -5.5 c 128,-1,42
 423 58 423 58 326 168.5 c 128,-1,43
 229 279 229 279 184.5 442.5 c 128,-1,44
 140 606 140 606 166 794 c 0,45,46
 193 984 193 984 286 1149 c 128,-1,47
 379 1314 379 1314 509 1424.5 c 128,-1,48
 639 1535 639 1535 793.5 1598 c 128,-1,49
 948 1661 948 1661 1100 1661 c 0,22,23
776 795 m 0,50,51
 760 682 760 682 779 613 c 128,-1,52
 798 544 798 544 841 517 c 128,-1,53
 884 490 884 490 954 490 c 0,54,55
 1052 490 1052 490 1168 547 c 2,56,-1
 1242 584 l 1,57,-1
 1212 365 l 1,58,-1
 1184 351 l 2,59,60
 1044 281 1044 281 936 281 c 0,61,62
 851 281 851 281 783.5 302.5 c 128,-1,63
 716 324 716 324 674 361.5 c 128,-1,64
 632 399 632 399 602 449.5 c 128,-1,65
 572 500 572 500 562 557 c 128,-1,66
 552 614 552 614 549 675 c 128,-1,67
 546 736 546 736 557 795 c 1,68,69
 590 1029 590 1029 725 1169 c 128,-1,70
 860 1309 860 1309 1064 1309 c 0,71,72
 1130 1309 1130 1309 1201.5 1287.5 c 128,-1,73
 1273 1266 1273 1266 1304 1243 c 2,74,-1
 1325 1228 l 1,75,-1
 1295 1018 l 1,76,-1
 1231 1055 l 2,77,78
 1205 1071 1205 1071 1149.5 1085.5 c 128,-1,79
 1094 1100 1094 1100 1031 1100 c 0,80,81
 982 1100 982 1100 941.5 1082.5 c 128,-1,82
 901 1065 901 1065 874 1036.5 c 128,-1,83
 847 1008 847 1008 826.5 967.5 c 128,-1,84
 806 927 806 927 794.5 885 c 128,-1,85
 783 843 783 843 776 795 c 0,50,51
EndSplineSet
EndChar

StartChar: ordfeminine
Encoding: 170 170 108
Width: 1157
GlyphClass: 2
Flags: W
HStem: 731 186.397<479.796 700.138> 1451.79 184.798<654.083 842.391>
VStem: 271.999 252.796<939.606 1289.22>
DStem2: 744.388 731 991.835 731 0.135716 0.990748<199.906 719.033>
LayerCount: 2
Fore
SplineSet
1103.19 1524.59 m 1,0,-1
 993.588 743.8 l 1,1,-1
 815.19 743.8 l 1,2,-1
 782.392 874.998 l 1,3,4
 757.592 814.999 757.592 814.999 697.192 773 c 128,-1,5
 636.794 731 636.794 731 551.995 731 c 0,6,7
 407.997 731 407.997 731 339.998 820.199 c 128,-1,8
 271.999 909.397 271.999 909.397 271.999 1059.79 c 0,9,10
 271.999 1162.99 271.999 1162.99 308.398 1266.99 c 128,-1,11
 344.798 1370.99 344.798 1370.99 405.197 1452.59 c 128,-1,12
 465.596 1534.19 465.596 1534.19 550.795 1585.39 c 128,-1,13
 635.993 1636.59 635.993 1636.59 727.192 1636.59 c 0,14,15
 790.392 1636.59 790.392 1636.59 852.391 1624.99 c 128,-1,16
 914.39 1613.39 914.39 1613.39 957.589 1596.99 c 128,-1,17
 1000.79 1580.59 1000.79 1580.59 1035.19 1564.19 c 128,-1,18
 1069.59 1547.79 1069.59 1547.79 1086.39 1536.59 c 2,19,-1
 1103.19 1524.59 l 1,0,-1
524.795 1087 m 0,20,21
 524.795 917.397 524.795 917.397 631.994 917.397 c 0,22,23
 731.992 917.397 731.992 917.397 777.592 973.396 c 1,24,-1
 842.391 1440.59 l 1,25,26
 805.591 1451.79 805.591 1451.79 751.992 1451.79 c 0,27,28
 711.992 1451.79 711.992 1451.79 671.193 1422.19 c 128,-1,29
 630.394 1392.59 630.394 1392.59 597.994 1344.19 c 128,-1,30
 565.595 1295.79 565.595 1295.79 545.195 1227.39 c 128,-1,31
 524.795 1158.99 524.795 1158.99 524.795 1087 c 0,20,21
EndSplineSet
EndChar

StartChar: guillemotleft
Encoding: 171 171 109
Width: 1879
GlyphClass: 2
Flags: W
DStem2: 519 575 197 453 0.80297 -0.596019<0 497.246> 231 696 519 575 0.852228 0.52317<182.138 745.619> 1267 575 945 453 0.80297 -0.596019<0 497.246> 979 696 1267 575 0.852228 0.52317<182.138 745.619>
LayerCount: 2
Fore
SplineSet
1004 862 m 1,0,-1
 519 575 l 1,1,-1
 923 285 l 1,2,-1
 876 -51 l 1,3,-1
 197 453 l 1,4,-1
 231 696 l 1,5,-1
 1052 1200 l 1,6,-1
 1004 862 l 1,0,-1
1752 862 m 1,7,-1
 1267 575 l 1,8,-1
 1671 285 l 1,9,-1
 1624 -51 l 1,10,-1
 945 453 l 1,11,-1
 979 696 l 1,12,-1
 1800 1200 l 1,13,-1
 1752 862 l 1,7,-1
EndSplineSet
EndChar

StartChar: logicalnot
Encoding: 172 172 110
Width: 1572
GlyphClass: 2
Flags: W
HStem: 299 242<184 1152>
DStem2: 1118.85 299 1417 299 0.135716 0.990748<244.26 883.753>
LayerCount: 2
Fore
SplineSet
1540 1174 m 1,0,-1
 1417 299 l 1,1,-1
 151 299 l 1,2,-1
 184 541 l 1,3,-1
 1152 541 l 1,4,-1
 1243 1174 l 1,5,-1
 1540 1174 l 1,0,-1
EndSplineSet
EndChar

StartChar: uni00AD
Encoding: 173 173 111
Width: 1229
GlyphClass: 2
Flags: W
HStem: 584 262<202 1092>
LayerCount: 2
Fore
SplineSet
1092 584 m 1,0,-1
 165 584 l 1,1,-1
 202 846 l 1,2,-1
 1129 846 l 1,3,-1
 1092 584 l 1,0,-1
EndSplineSet
EndChar

StartChar: registered
Encoding: 174 174 112
Width: 1313
GlyphClass: 2
Flags: W
HStem: 574 112<461.748 839.625> 1316 98<674 797.562> 1528 114<570.022 946.938>
DStem2: 457.576 574 567.576 574 0.135716 0.990748<261.207 505.583 606.965 769.035>
LayerCount: 2
Fore
SplineSet
693 1160 m 2,0,1
 753 1160 753 1160 784 1178 c 128,-1,2
 815 1196 815 1196 822 1245 c 0,3,4
 828 1287 828 1287 798.5 1301.5 c 128,-1,5
 769 1316 769 1316 674 1316 c 1,6,-1
 652 1160 l 1,7,-1
 693 1160 l 2,0,1
894 851 m 1,8,-1
 780 795 l 1,9,-1
 666 1060 l 1,10,-1
 635 1060 l 1,11,-1
 601 818 l 1,12,-1
 491 818 l 1,13,-1
 575 1414 l 1,14,-1
 687 1414 l 2,15,16
 747 1414 747 1414 791.5 1406.5 c 128,-1,17
 836 1399 836 1399 872 1381.5 c 128,-1,18
 908 1364 908 1364 924 1331 c 128,-1,19
 940 1298 940 1298 933 1250 c 0,20,21
 923 1181 923 1181 887.5 1143 c 128,-1,22
 852 1105 852 1105 772 1082 c 1,23,-1
 894 851 l 1,8,-1
189 1108 m 0,24,25
 204 1216 204 1216 257 1314 c 128,-1,26
 310 1412 310 1412 388 1484.5 c 128,-1,27
 466 1557 466 1557 568.5 1599.5 c 128,-1,28
 671 1642 671 1642 780 1642 c 0,29,30
 923 1642 923 1642 1032.5 1571 c 128,-1,31
 1142 1500 1142 1500 1193 1377.5 c 128,-1,32
 1244 1255 1244 1255 1223 1108 c 128,-1,33
 1202 961 1202 961 1116.5 838.5 c 128,-1,34
 1031 716 1031 716 902 645 c 128,-1,35
 773 574 773 574 630 574 c 0,36,37
 485 574 485 574 376 646.5 c 128,-1,38
 267 719 267 719 218 841 c 128,-1,39
 169 963 169 963 189 1108 c 0,24,25
764 1528 m 0,40,41
 589 1528 589 1528 457.5 1406.5 c 128,-1,42
 326 1285 326 1285 301 1106 c 128,-1,43
 276 927 276 927 373 806.5 c 128,-1,44
 470 686 470 686 645 686 c 0,45,46
 821 686 821 686 953 807.5 c 128,-1,47
 1085 929 1085 929 1110 1106 c 0,48,49
 1136 1286 1136 1286 1037 1407 c 128,-1,50
 938 1528 938 1528 764 1528 c 0,40,41
EndSplineSet
EndChar

StartChar: macron
Encoding: 175 175 113
Width: 961
GlyphClass: 2
Flags: W
HStem: 0 262<112 804>
LayerCount: 2
Fore
SplineSet
804 0 m 1,0,-1
 75 0 l 1,1,-1
 112 262 l 1,2,-1
 841 262 l 1,3,-1
 804 0 l 1,0,-1
EndSplineSet
EndChar

StartChar: degree
Encoding: 176 176 114
Width: 868
GlyphClass: 2
Flags: W
HStem: -204 155<285.132 526.824> 315 155<324.135 564.556>
VStem: 69 168<-1.53882 232.075> 613 168<34.4246 268.004>
LayerCount: 2
Fore
SplineSet
452 315 m 0,0,1
 373 315 373 315 305 255.5 c 128,-1,2
 237 196 237 196 237 109 c 0,3,4
 237 40 237 40 284.5 -4.5 c 128,-1,5
 332 -49 332 -49 400 -49 c 0,6,7
 479 -49 479 -49 546 10.5 c 128,-1,8
 613 70 613 70 613 157 c 0,9,10
 613 226 613 226 566 270.5 c 128,-1,11
 519 315 519 315 452 315 c 0,0,1
69 87 m 0,12,13
 69 191 69 191 129.5 280.5 c 128,-1,14
 190 370 190 370 283 420 c 128,-1,15
 376 470 376 470 474 470 c 0,16,17
 602 470 602 470 691.5 388 c 128,-1,18
 781 306 781 306 781 180 c 0,19,20
 781 76 781 76 722 -13.5 c 128,-1,21
 663 -103 663 -103 570.5 -153.5 c 128,-1,22
 478 -204 478 -204 378 -204 c 0,23,24
 251 -204 251 -204 160 -121.5 c 128,-1,25
 69 -39 69 -39 69 87 c 0,12,13
EndSplineSet
EndChar

StartChar: plusminus
Encoding: 177 177 115
Width: 1336
GlyphClass: 2
Flags: W
HStem: 10 232<273 1055> 639 252<419 641 944 1168>
DStem2: 553.617 10 821.617 10 0.135716 0.990748<363.397 635.04 925.83 1197.47>
LayerCount: 2
Fore
SplineSet
1055 10 m 1,0,-1
 241 10 l 1,1,-1
 273 242 l 1,2,-1
 1088 242 l 1,3,-1
 1055 10 l 1,0,-1
1168 639 m 1,4,-1
 909 639 l 1,5,-1
 866 334 l 1,6,-1
 598 334 l 1,7,-1
 641 639 l 1,8,-1
 383 639 l 1,9,-1
 419 891 l 1,10,-1
 676 891 l 1,11,-1
 719 1196 l 1,12,-1
 987 1196 l 1,13,-1
 944 891 l 1,14,-1
 1204 891 l 1,15,-1
 1168 639 l 1,4,-1
EndSplineSet
EndChar

StartChar: uni00B2
Encoding: 178 178 116
Width: 1032
GlyphClass: 2
Flags: W
HStem: 686 214.396<626.593 872.989> 1429.99 208.797<465.462 724.813>
DStem2: 531.395 1079.59 626.593 900.396 0.777048 0.629441<-38.8206 295.132>
LayerCount: 2
Fore
SplineSet
736.191 1314.79 m 0,0,1
 744.191 1372.39 744.191 1372.39 720.992 1401.19 c 128,-1,2
 697.792 1429.99 697.792 1429.99 637.793 1429.99 c 0,3,4
 593.794 1429.99 593.794 1429.99 527.795 1409.19 c 128,-1,5
 461.796 1388.39 461.796 1388.39 417.796 1367.59 c 2,6,-1
 373.797 1345.99 l 1,7,-1
 333.798 1537.19 l 1,8,-1
 340.997 1540.39 l 1,9,10
 347.397 1544.39 347.397 1544.39 360.197 1549.99 c 2,11,-1
 389.797 1562.79 l 2,12,13
 406.597 1570.79 406.597 1570.79 428.196 1579.59 c 128,-1,14
 449.796 1588.39 449.796 1588.39 473.396 1596.79 c 128,-1,15
 496.995 1605.19 496.995 1605.19 523.395 1612.79 c 128,-1,16
 549.794 1620.39 549.794 1620.39 576.194 1625.99 c 128,-1,17
 602.594 1631.59 602.594 1631.59 630.593 1635.19 c 128,-1,18
 658.593 1638.79 658.593 1638.79 683.393 1638.79 c 0,19,20
 735.392 1638.79 735.392 1638.79 781.791 1629.99 c 128,-1,21
 828.19 1621.19 828.19 1621.19 870.989 1599.99 c 128,-1,22
 913.789 1578.79 913.789 1578.79 942.589 1547.19 c 128,-1,23
 971.388 1515.59 971.388 1515.59 984.988 1465.59 c 128,-1,24
 998.588 1415.59 998.588 1415.59 989.788 1353.19 c 0,25,26
 976.988 1258.79 976.988 1258.79 923.389 1181.59 c 128,-1,27
 869.789 1104.39 869.789 1104.39 748.191 1002.79 c 2,28,-1
 626.593 900.396 l 1,29,-1
 903.389 900.396 l 1,30,-1
 872.989 686 l 1,31,-1
 234.599 686 l 1,32,-1
 258.599 859.598 l 1,33,-1
 531.395 1079.59 l 2,34,35
 534.595 1081.99 534.595 1081.99 560.194 1102.79 c 2,36,-1
 593.794 1129.99 l 1,37,-1
 624.993 1156.39 l 1,38,39
 648.193 1177.19 648.193 1177.19 657.793 1187.59 c 2,40,-1
 684.992 1217.19 l 2,41,42
 701.792 1235.59 701.792 1235.59 709.792 1249.59 c 128,-1,43
 717.792 1263.59 717.792 1263.59 725.792 1281.19 c 128,-1,44
 733.792 1298.79 733.792 1298.79 736.191 1314.79 c 0,0,1
EndSplineSet
EndChar

StartChar: uni00B3
Encoding: 179 179 117
Width: 995
GlyphClass: 2
Flags: W
HStem: 537.202 206.396<275.336 628.05> 1017.2 196.797<489.996 614.104> 1429.99 209.598<405.223 687.633>
VStem: 662.793 242.396<777.847 981.078> 712.393 232.796<1256.95 1412.21>
LayerCount: 2
Fore
SplineSet
461.996 1017.2 m 1,0,-1
 489.996 1213.99 l 1,1,2
 609.193 1213.99 609.193 1213.99 660.793 1251.19 c 128,-1,3
 712.393 1288.39 712.393 1288.39 712.393 1338.79 c 0,4,5
 712.393 1382.79 712.393 1382.79 688.393 1406.39 c 128,-1,6
 664.393 1429.99 664.393 1429.99 601.194 1429.99 c 0,7,8
 553.994 1429.99 553.994 1429.99 498.796 1415.99 c 128,-1,9
 443.597 1401.99 443.597 1401.99 412.396 1388.39 c 2,10,-1
 381.197 1373.99 l 1,11,-1
 322.798 1557.19 l 1,12,-1
 337.998 1565.99 l 2,13,14
 353.197 1573.99 353.197 1573.99 380.797 1585.99 c 128,-1,15
 408.396 1597.99 408.396 1597.99 442.396 1610.39 c 128,-1,16
 476.396 1622.79 476.396 1622.79 522.396 1631.19 c 128,-1,17
 568.395 1639.59 568.395 1639.59 612.394 1639.59 c 0,18,19
 772.392 1639.59 772.392 1639.59 858.79 1581.19 c 128,-1,20
 945.188 1522.79 945.188 1522.79 945.188 1390.79 c 0,21,22
 945.188 1327.59 945.188 1327.59 926.789 1275.59 c 128,-1,23
 908.39 1223.59 908.39 1223.59 878.79 1191.99 c 128,-1,24
 849.19 1160.39 849.19 1160.39 819.591 1141.59 c 128,-1,25
 789.991 1122.79 789.991 1122.79 761.191 1115.59 c 1,26,27
 825.99 1097.99 825.99 1097.99 865.59 1039.19 c 128,-1,28
 905.189 980.396 905.189 980.396 905.189 905.996 c 0,29,30
 905.189 868.397 905.189 868.397 895.989 825.998 c 128,-1,31
 886.79 783.599 886.79 783.599 857.59 730.399 c 128,-1,32
 828.391 677.2 828.391 677.2 782.791 635.601 c 128,-1,33
 737.191 594.001 737.191 594.001 655.993 565.602 c 128,-1,34
 574.794 537.202 574.794 537.202 470.796 537.202 c 0,35,36
 395.597 537.202 395.597 537.202 333.998 550.802 c 128,-1,37
 272.398 564.401 272.398 564.401 248.399 578.002 c 2,38,-1
 224.399 591.602 l 1,39,-1
 287.599 785.198 l 1,40,41
 395.597 743.599 395.597 743.599 492.396 743.599 c 0,42,43
 544.395 743.599 544.395 743.599 580.395 757.199 c 128,-1,44
 616.394 770.799 616.394 770.799 633.193 793.599 c 128,-1,45
 649.993 816.398 649.993 816.398 656.394 837.998 c 128,-1,46
 662.793 859.598 662.793 859.598 662.793 884.396 c 0,47,48
 662.793 950.796 662.793 950.796 615.594 983.596 c 128,-1,49
 568.395 1016.39 568.395 1016.39 461.996 1017.2 c 1,0,-1
EndSplineSet
EndChar

StartChar: acute
Encoding: 180 180 118
Width: 903
GlyphClass: 2
Flags: W
VStem: 389 584
LayerCount: 2
Fore
SplineSet
590 313 m 1,0,-1
 389 313 l 1,1,-1
 584 997 l 1,2,-1
 973 997 l 1,3,-1
 590 313 l 1,0,-1
EndSplineSet
EndChar

StartChar: uni00B5
Encoding: 181 181 119
Width: 1236
GlyphClass: 2
Flags: W
HStem: -468 21G<189.5 330.851> -15 234<465.08 659.115> 1 21G<809.667 1039.78> 1083 20G<257.27 558 874.256 1190>
DStem2: 45.5207 -468 328 -468 0.135716 0.990748<40.3735 527.223 792.051 792.051> 661.619 -468 972.755 -468 0.135716 0.990748<721.296 1585.7>
LayerCount: 2
Fore
SplineSet
504 -15 m 0,0,1
 480 -15 480 -15 453.5 -7.5 c 128,-1,2
 427 0 427 0 412.5 7 c 128,-1,3
 398 14 398 14 397 16 c 1,4,-1
 328 -468 l 1,5,-1
 51 -428 l 1,6,-1
 260 1103 l 1,7,-1
 558 1103 l 1,8,-1
 443 277 l 1,9,-1
 452 272 l 2,10,11
 461 266 461 266 478 256.5 c 128,-1,12
 495 247 495 247 514 238.5 c 128,-1,13
 533 230 533 230 555 224 c 128,-1,14
 577 218 577 218 595 219 c 0,15,16
 706 225 706 225 766 294 c 1,17,-1
 877 1103 l 1,18,-1
 1190 1103 l 1,19,-1
 1037 1 l 1,20,-1
 815 1 l 1,21,-1
 771 166 l 1,22,23
 743 95 743 95 674.5 40 c 128,-1,24
 606 -15 606 -15 504 -15 c 0,0,1
EndSplineSet
EndChar

StartChar: paragraph
Encoding: 182 182 120
Width: 1379
GlyphClass: 2
Flags: W
HStem: 0 21G<522 765.815 889 1129.81> 1428 149<964 1089>
DStem2: 522 0 763 0 0.135716 0.990748<32.7075 717.993> 889 0 1127 0 0.135716 0.990748<32.3003 1441.93>
LayerCount: 2
Fore
SplineSet
1349 1578 m 1,0,-1
 1127 0 l 1,1,-1
 889 0 l 1,2,-1
 1089 1428 l 1,3,-1
 964 1428 l 1,4,-1
 763 0 l 1,5,-1
 522 0 l 1,6,-1
 622 711 l 1,7,8
 543 711 543 711 477 721.5 c 128,-1,9
 411 732 411 732 351 757.5 c 128,-1,10
 291 783 291 783 249.5 823 c 128,-1,11
 208 863 208 863 183.5 925.5 c 128,-1,12
 159 988 159 988 159 1068 c 0,13,14
 159 1108 159 1108 165 1155 c 0,15,16
 177 1242 177 1242 209.5 1311 c 128,-1,17
 242 1380 242 1380 290 1425 c 128,-1,18
 338 1470 338 1470 393.5 1501 c 128,-1,19
 449 1532 449 1532 517.5 1548 c 128,-1,20
 586 1564 586 1564 649 1570.5 c 128,-1,21
 712 1577 712 1577 785 1577 c 2,22,-1
 883 1577 l 1,23,-1
 1349 1578 l 1,0,-1
EndSplineSet
EndChar

StartChar: periodcentered
Encoding: 183 183 121
Width: 545
GlyphClass: 2
Flags: W
HStem: 523 364<199.997 441.009>
VStem: 138 365<586.14 823.86>
LayerCount: 2
Fore
SplineSet
138 705 m 128,-1,1
 138 781 138 781 191.5 834 c 128,-1,2
 245 887 245 887 321 887 c 0,3,4
 396 887 396 887 449.5 834 c 128,-1,5
 503 781 503 781 503 705 c 128,-1,6
 503 629 503 629 449.5 576 c 128,-1,7
 396 523 396 523 321 523 c 0,8,9
 245 523 245 523 191.5 576 c 128,-1,0
 138 629 138 629 138 705 c 128,-1,1
EndSplineSet
EndChar

StartChar: cedilla
Encoding: 184 184 122
Width: 376
GlyphClass: 2
Flags: W
HStem: -612 148<-87.875 166.929> -441 20G<-90.7737 -80> -186 88<117 171.373>
VStem: 212 180<-441.3 -226.508>
DStem2: -8 -186 117 -98 0.205446 0.978669<111.804 267.711>
LayerCount: 2
Fore
SplineSet
-107 -558 m 1,0,-1
 -88 -421 l 1,1,-1
 -80 -425 l 2,2,3
 -73 -429 -73 -429 -58.5 -435.5 c 128,-1,4
 -44 -442 -44 -442 -26 -448.5 c 128,-1,5
 -8 -455 -8 -455 17 -459.5 c 128,-1,6
 42 -464 42 -464 66 -464 c 0,7,8
 134 -464 134 -464 168 -442 c 128,-1,9
 202 -420 202 -420 212 -348 c 0,10,11
 223 -267 223 -267 168 -226.5 c 128,-1,12
 113 -186 113 -186 -8 -186 c 1,13,-1
 47 76 l 1,14,-1
 160 76 l 1,15,-1
 117 -98 l 1,16,17
 147 -98 147 -98 182.5 -104.5 c 128,-1,18
 218 -111 218 -111 259.5 -128 c 128,-1,19
 301 -145 301 -145 332.5 -171.5 c 128,-1,20
 364 -198 364 -198 381.5 -242.5 c 128,-1,21
 399 -287 399 -287 392 -342 c 0,22,23
 374 -474 374 -474 295 -543 c 128,-1,24
 216 -612 216 -612 84 -612 c 0,25,26
 66 -612 66 -612 47.5 -610 c 128,-1,27
 29 -608 29 -608 13.5 -605 c 128,-1,28
 -2 -602 -2 -602 -16.5 -598 c 128,-1,29
 -31 -594 -31 -594 -43 -589.5 c 128,-1,30
 -55 -585 -55 -585 -65.5 -580.5 c 128,-1,31
 -76 -576 -76 -576 -84 -572 c 2,32,-1
 -96 -565 l 2,33,34
 -102 -562 -102 -562 -104 -560 c 2,35,-1
 -107 -558 l 1,0,-1
EndSplineSet
EndChar

StartChar: uni00B9
Encoding: 185 185 123
Width: 801
GlyphClass: 2
Flags: W
VStem: 274.798 441.594
DStem2: 337.197 692 582.793 692 0.135716 0.990748<33.3312 733.891>
LayerCount: 2
Fore
SplineSet
337.197 692 m 1,0,-1
 441.995 1418.39 l 1,1,-1
 317.997 1374.39 l 1,2,-1
 274.798 1564.79 l 1,3,-1
 472.395 1638.39 l 1,4,-1
 716.392 1636.79 l 1,5,-1
 582.793 692 l 1,6,-1
 337.197 692 l 1,0,-1
EndSplineSet
EndChar

StartChar: ordmasculine
Encoding: 186 186 124
Width: 1140
GlyphClass: 2
Flags: W
HStem: 727.2 187.197<559.499 756.283> 1447.99 188.797<621.044 818.037>
VStem: 281.799 248.796<943.748 1330.74> 848.19 247.196<1036.56 1407.14>
LayerCount: 2
Fore
SplineSet
281.799 1080 m 0,0,1
 281.799 1126.39 281.799 1126.39 287.799 1174.79 c 128,-1,2
 293.799 1223.19 293.799 1223.19 309.398 1278.39 c 128,-1,3
 324.998 1333.59 324.998 1333.59 348.598 1383.99 c 128,-1,4
 372.197 1434.39 372.197 1434.39 409.797 1481.19 c 128,-1,5
 447.396 1527.99 447.396 1527.99 494.995 1561.99 c 128,-1,6
 542.595 1595.99 542.595 1595.99 608.994 1616.39 c 128,-1,7
 675.393 1636.79 675.393 1636.79 753.792 1636.79 c 0,8,9
 920.989 1636.79 920.989 1636.79 1008.19 1544.79 c 128,-1,10
 1095.39 1452.79 1095.39 1452.79 1095.39 1284.79 c 0,11,12
 1095.39 1238.39 1095.39 1238.39 1089.39 1189.59 c 128,-1,13
 1083.39 1140.79 1083.39 1140.79 1067.79 1085.59 c 128,-1,14
 1052.19 1030.4 1052.19 1030.4 1028.99 979.996 c 128,-1,15
 1005.79 929.598 1005.79 929.598 967.788 882.798 c 128,-1,16
 929.789 835.998 929.789 835.998 882.59 801.999 c 128,-1,17
 835.391 768 835.391 768 768.991 747.6 c 128,-1,18
 702.593 727.2 702.593 727.2 624.994 727.2 c 0,19,20
 456.996 727.2 456.996 727.2 369.397 819.999 c 128,-1,21
 281.799 912.798 281.799 912.798 281.799 1080 c 0,0,1
651.394 914.397 m 0,22,23
 728.192 914.397 728.192 914.397 774.592 981.196 c 128,-1,24
 820.99 1048 820.99 1048 840.19 1183.99 c 1,25,26
 848.19 1246.39 848.19 1246.39 848.19 1284.79 c 0,27,28
 848.19 1368.79 848.19 1368.79 818.591 1408.39 c 128,-1,29
 788.991 1447.99 788.991 1447.99 727.393 1447.99 c 0,30,31
 649.793 1447.99 649.793 1447.99 603.794 1383.59 c 128,-1,32
 557.795 1319.19 557.795 1319.19 538.595 1183.99 c 0,33,34
 530.595 1130.39 530.595 1130.39 530.595 1083.2 c 0,35,36
 530.595 914.397 530.595 914.397 651.394 914.397 c 0,22,23
EndSplineSet
EndChar

StartChar: guillemotright
Encoding: 187 187 125
Width: 1736
GlyphClass: 2
Flags: W
DStem2: 136 285 89 -51 0.852228 0.52317<0 577.369> 265 1191 218 862 0.80297 -0.596019<158.351 660.257> 884 285 837 -51 0.851944 0.523634<0 577.364> 1013 1191 965 862 0.80297 -0.596019<157.548 660.257>
LayerCount: 2
Fore
SplineSet
965 862 m 1,0,-1
 1013 1191 l 1,1,-1
 1692 687 l 1,2,-1
 1657 453 l 1,3,-1
 837 -51 l 1,4,-1
 884 285 l 1,5,-1
 1381 579 l 1,6,-1
 965 862 l 1,0,-1
218 862 m 1,7,-1
 265 1191 l 1,8,-1
 944 687 l 1,9,-1
 910 453 l 1,10,-1
 89 -51 l 1,11,-1
 136 285 l 1,12,-1
 633 579 l 1,13,-1
 218 862 l 1,7,-1
EndSplineSet
EndChar

StartChar: onequarter
Encoding: 188 188 126
Width: 1824
GlyphClass: 2
Flags: W
HStem: 96 205<1184 1319 1575 1675>
DStem2: 144.577 -125 389.577 -125 0.135716 0.990748<574.256 1261.97> 332 -29 524 -107 0.487672 0.873027<25.5369 1798.34> 893 257 1184 301 0.61021 0.792239<212.43 572.026> 1287.86 -125 1514 -125 0.135716 0.990748<30.6903 223.181 463.009 729.046>
LayerCount: 2
Fore
SplineSet
332 -29 m 1,0,-1
 1209 1541 l 1,1,-1
 1408 1458 l 1,2,-1
 524 -107 l 1,3,-1
 332 -29 l 1,0,-1
1483 1023 m 1,4,-1
 1668 970 l 1,5,-1
 1575 303 l 1,6,-1
 1704 303 l 1,7,-1
 1675 96 l 1,8,-1
 1545 96 l 1,9,-1
 1514 -125 l 1,10,-1
 1288 -124 l 1,11,-1
 1319 96 l 1,12,-1
 901 96 l 1,13,-1
 893 257 l 1,14,-1
 1483 1023 l 1,4,-1
1184 301 m 1,15,-1
 1347 301 l 1,16,-1
 1389 597 l 1,17,-1
 1184 301 l 1,15,-1
218 411 m 1,18,-1
 318 1125 l 1,19,-1
 194 1071 l 1,20,-1
 151 1261 l 1,21,-1
 433 1373 l 1,22,-1
 593 1333 l 1,23,-1
 463 411 l 1,24,-1
 218 411 l 1,18,-1
EndSplineSet
EndChar

StartChar: onehalf
Encoding: 189 189 127
Width: 1950
GlyphClass: 2
Flags: W
HStem: 1 214<1543 1790> 745 209<1384.66 1647.37>
VStem: 1656 253<541.428 734.261>
DStem2: 202.043 -107 447.043 -107 0.135716 0.990748<556.088 1243.8> 387 -29 579 -107 0.487672 0.873027<25.5369 1798.34> 1449 394 1543 215 0.780032 0.62574<-38.6844 292.903>
LayerCount: 2
Fore
SplineSet
387 -29 m 1,0,-1
 1264 1541 l 1,1,-1
 1463 1458 l 1,2,-1
 579 -107 l 1,3,-1
 387 -29 l 1,0,-1
273 411 m 1,4,-1
 373 1125 l 1,5,-1
 249 1071 l 1,6,-1
 206 1261 l 1,7,-1
 488 1373 l 1,8,-1
 648 1333 l 1,9,-1
 518 411 l 1,10,-1
 273 411 l 1,4,-1
1449 394 m 2,11,12
 1566 488 1566 488 1611 541 c 128,-1,13
 1656 594 1656 594 1656 659 c 0,14,15
 1656 745 1656 745 1555 745 c 0,16,17
 1511 745 1511 745 1445 724 c 128,-1,18
 1379 703 1379 703 1335 682 c 2,19,-1
 1291 661 l 1,20,-1
 1251 852 l 1,21,-1
 1258 856 l 2,22,23
 1265 859 1265 859 1277.5 865 c 128,-1,24
 1290 871 1290 871 1308 878 c 2,25,-1
 1346 894 l 1,26,-1
 1392 912 l 2,27,28
 1415 920 1415 920 1441.5 927.5 c 128,-1,29
 1468 935 1468 935 1494 941 c 128,-1,30
 1520 947 1520 947 1548 950.5 c 128,-1,31
 1576 954 1576 954 1601 954 c 0,32,33
 1661 954 1661 954 1713.5 941.5 c 128,-1,34
 1766 929 1766 929 1811.5 902.5 c 128,-1,35
 1857 876 1857 876 1883 828 c 128,-1,36
 1909 780 1909 780 1909 716 c 0,37,38
 1909 654 1909 654 1890.5 598 c 128,-1,39
 1872 542 1872 542 1835 492 c 128,-1,40
 1798 442 1798 442 1759.5 403.5 c 128,-1,41
 1721 365 1721 365 1665 318 c 2,42,-1
 1543 215 l 1,43,-1
 1820 215 l 1,44,-1
 1790 1 l 1,45,-1
 1152 1 l 1,46,-1
 1176 175 l 1,47,-1
 1449 394 l 2,11,12
EndSplineSet
EndChar

StartChar: threequarters
Encoding: 190 190 128
Width: 2035
GlyphClass: 2
Flags: W
HStem: 96 205<1394 1529 1785 1886> 409 206<208.856 550.743> 889 197<423 542.118> 1302 209<341.533 618.541>
DStem2: 542 -29 735 -107 0.487672 0.873027<26.0245 1798.34> 1104 257 1394 301 0.61021 0.792239<211.82 572.026> 1497.86 -125 1725 -125 0.135716 0.990748<30.826 223.181 463.009 729.182>
LayerCount: 2
Fore
SplineSet
1694 1023 m 1,0,-1
 1879 970 l 1,1,-1
 1785 303 l 1,2,-1
 1915 303 l 1,3,-1
 1886 96 l 1,4,-1
 1756 96 l 1,5,-1
 1725 -125 l 1,6,-1
 1498 -124 l 1,7,-1
 1529 96 l 1,8,-1
 1112 96 l 1,9,-1
 1104 257 l 1,10,-1
 1694 1023 l 1,0,-1
1394 301 m 1,11,-1
 1558 301 l 1,12,-1
 1600 597 l 1,13,-1
 1394 301 l 1,11,-1
542 -29 m 1,14,-1
 1419 1541 l 1,15,-1
 1618 1458 l 1,16,-1
 735 -107 l 1,17,-1
 542 -29 l 1,14,-1
644 1213 m 0,18,19
 650 1258 650 1258 619.5 1280 c 128,-1,20
 589 1302 589 1302 534 1302 c 0,21,22
 493 1302 493 1302 438 1288 c 128,-1,23
 383 1274 383 1274 348 1260 c 2,24,-1
 314 1246 l 1,25,-1
 255 1429 l 1,26,-1
 270 1437 l 2,27,28
 285 1445 285 1445 313 1457.5 c 128,-1,29
 341 1470 341 1470 375 1482 c 128,-1,30
 409 1494 409 1494 455 1502.5 c 128,-1,31
 501 1511 501 1511 545 1511 c 0,32,33
 720 1511 720 1511 807 1440.5 c 128,-1,34
 894 1370 894 1370 875 1208 c 1,35,36
 865 1133 865 1133 815 1069.5 c 128,-1,37
 765 1006 765 1006 693 987 c 1,38,39
 767 967 767 967 807.5 896.5 c 128,-1,40
 848 826 848 826 836 741 c 0,41,42
 812 574 812 574 695.5 491.5 c 128,-1,43
 579 409 579 409 404 409 c 0,44,45
 329 409 329 409 261 422.5 c 128,-1,46
 193 436 193 436 163 450 c 2,47,-1
 133 463 l 1,48,-1
 223 665 l 1,49,50
 328 615 328 615 425 615 c 0,51,52
 501 615 501 615 543 643 c 128,-1,53
 585 671 585 671 594 738 c 0,54,55
 604 809 604 809 544 850.5 c 128,-1,56
 484 892 484 892 395 889 c 1,57,-1
 423 1086 l 1,58,59
 510 1086 510 1086 572.5 1116.5 c 128,-1,60
 635 1147 635 1147 644 1213 c 0,18,19
EndSplineSet
EndChar

StartChar: questiondown
Encoding: 191 191 129
Width: 1081
GlyphClass: 2
Flags: W
HStem: -25 273<458.189 867.425> 1159 316<753.348 944.652>
VStem: 111 323<275.858 491.036> 685 328<1226.39 1407.61>
LayerCount: 2
Fore
SplineSet
434 368 m 0,0,1
 434 328 434 328 451 302 c 128,-1,2
 468 276 468 276 502 265 c 128,-1,3
 536 254 536 254 567 251 c 128,-1,4
 598 248 598 248 647 248 c 0,5,6
 756 248 756 248 940 297 c 1,7,-1
 962 54 l 1,8,9
 881 16 881 16 755 -4.5 c 128,-1,10
 629 -25 629 -25 534 -25 c 0,11,12
 111 -25 111 -25 111 286 c 0,13,14
 111 678 111 678 602 856 c 1,15,-1
 635 1087 l 1,16,-1
 961 1087 l 1,17,-1
 913 741 l 1,18,19
 878 723 878 723 816 696 c 2,20,-1
 708 648 l 2,21,22
 661 628 661 628 606.5 596.5 c 128,-1,23
 552 565 552 565 517 534.5 c 128,-1,24
 482 504 482 504 458 460.5 c 128,-1,25
 434 417 434 417 434 368 c 0,0,1
1013 1339 m 0,26,27
 1013 1268 1013 1268 956.5 1213.5 c 128,-1,28
 900 1159 900 1159 827 1159 c 0,29,30
 769 1159 769 1159 727 1197.5 c 128,-1,31
 685 1236 685 1236 685 1295 c 0,32,33
 685 1366 685 1366 741.5 1420.5 c 128,-1,34
 798 1475 798 1475 871 1475 c 0,35,36
 929 1475 929 1475 971 1436.5 c 128,-1,37
 1013 1398 1013 1398 1013 1339 c 0,26,27
EndSplineSet
EndChar

StartChar: Agrave
Encoding: 192 192 130
Width: 1349
GlyphClass: 2
Flags: W
HStem: 0 21G<-11 339.9 978.084 1305> 391 160<564 891> 1557 20G<702.831 1027.56>
DStem2: -11 0 331 0 0.416754 0.909019<142.53 570.472 740.503 1072.72> 1024 1577 843 874 0.175423 -0.984493<392.049 986.759 1150.07 1545>
LayerCount: 2
Fore
SplineSet
812 1141 m 1,0,-1
 726 926 l 1,1,-1
 564 551 l 1,2,-1
 891 551 l 1,3,-1
 843 874 l 1,4,-1
 812 1141 l 1,0,-1
712 1577 m 1,5,-1
 1024 1577 l 1,6,-1
 1305 0 l 1,7,-1
 981 0 l 1,8,-1
 924 391 l 1,9,-1
 505 391 l 1,10,-1
 331 0 l 1,11,-1
 -11 0 l 1,12,-1
 712 1577 l 1,5,-1
989 1719 m 1,13,-1
 787 1719 l 1,14,-1
 594 2427 l 1,15,-1
 989 2427 l 1,16,-1
 989 1719 l 1,13,-1
EndSplineSet
EndChar

StartChar: Aacute
Encoding: 193 193 131
Width: 1349
GlyphClass: 2
Flags: W
HStem: 0 21G<-11 339.9 978.084 1305> 391 160<564 891> 1557 20G<702.831 1027.56>
DStem2: -11 0 331 0 0.416754 0.909019<142.53 570.472 740.503 1072.72> 1024 1577 843 874 0.175423 -0.984493<392.049 986.759 1150.07 1545>
LayerCount: 2
Fore
SplineSet
812 1141 m 1,0,-1
 726 926 l 1,1,-1
 564 551 l 1,2,-1
 891 551 l 1,3,-1
 843 874 l 1,4,-1
 812 1141 l 1,0,-1
712 1577 m 1,5,-1
 1024 1577 l 1,6,-1
 1305 0 l 1,7,-1
 981 0 l 1,8,-1
 924 391 l 1,9,-1
 505 391 l 1,10,-1
 331 0 l 1,11,-1
 -11 0 l 1,12,-1
 712 1577 l 1,5,-1
989 1719 m 1,13,-1
 788 1719 l 1,14,-1
 983 2403 l 1,15,-1
 1372 2403 l 1,16,-1
 989 1719 l 1,13,-1
EndSplineSet
EndChar

StartChar: Acircumflex
Encoding: 194 194 132
Width: 1349
GlyphClass: 2
Flags: W
HStem: 0 21G<-11 339.9 978.084 1305> 391 160<564 891> 1557 20G<702.831 1027.56>
DStem2: -11 0 331 0 0.416754 0.909019<142.53 570.472 740.503 1072.72> 1024 1577 843 874 0.175423 -0.984493<392.049 986.759 1150.07 1545>
LayerCount: 2
Fore
SplineSet
812 1141 m 1,0,-1
 726 926 l 1,1,-1
 564 551 l 1,2,-1
 891 551 l 1,3,-1
 843 874 l 1,4,-1
 812 1141 l 1,0,-1
712 1577 m 1,5,-1
 1024 1577 l 1,6,-1
 1305 0 l 1,7,-1
 981 0 l 1,8,-1
 924 391 l 1,9,-1
 505 391 l 1,10,-1
 331 0 l 1,11,-1
 -11 0 l 1,12,-1
 712 1577 l 1,5,-1
853 2358 m 1,13,-1
 1079 2358 l 1,14,-1
 1248 1719 l 1,15,-1
 998 1719 l 1,16,-1
 933 2033 l 1,17,-1
 791 1719 l 1,18,-1
 529 1719 l 1,19,-1
 853 2358 l 1,13,-1
EndSplineSet
EndChar

StartChar: Atilde
Encoding: 195 195 133
Width: 1349
GlyphClass: 2
Flags: W
HStem: 0 21G<-11 339.9 978.084 1305> 391 160<564 891> 1557 20G<702.831 1027.56> 1719 221<964.085 1118.07> 1870 213<700.112 844.338>
VStem: 481 194<1745 1840.6> 1141 204<1961.15 2044>
DStem2: -11 0 331 0 0.416754 0.909019<142.53 570.472 740.503 1072.72> 847 2060.5 811.5 1846.5 0.898123 -0.439745<-4.43566 254.109> 1024 1577 843 874 0.175423 -0.984493<392.049 986.759 1150.07 1545>
LayerCount: 2
Fore
SplineSet
812 1141 m 1,0,-1
 726 926 l 1,1,-1
 564 551 l 1,2,-1
 891 551 l 1,3,-1
 843 874 l 1,4,-1
 812 1141 l 1,0,-1
712 1577 m 1,5,-1
 1024 1577 l 1,6,-1
 1305 0 l 1,7,-1
 981 0 l 1,8,-1
 924 391 l 1,9,-1
 505 391 l 1,10,-1
 331 0 l 1,11,-1
 -11 0 l 1,12,-1
 712 1577 l 1,5,-1
1084 1719 m 0,13,14
 1031 1719 1031 1719 977 1742.5 c 128,-1,15
 923 1766 923 1766 886.5 1794.5 c 128,-1,16
 850 1823 850 1823 811.5 1846.5 c 128,-1,17
 773 1870 773 1870 748 1870 c 0,18,19
 719 1870 719 1870 701.5 1841.5 c 128,-1,20
 684 1813 684 1813 675 1745 c 1,21,-1
 481 1745 l 1,22,23
 529 2083 529 2083 743 2083 c 0,24,25
 797 2083 797 2083 847 2060.5 c 128,-1,26
 897 2038 897 2038 928.5 2011.5 c 128,-1,27
 960 1985 960 1985 999 1962.5 c 128,-1,28
 1038 1940 1038 1940 1072 1940 c 0,29,30
 1105 1940 1105 1940 1118.5 1960.5 c 128,-1,31
 1132 1981 1132 1981 1141 2044 c 1,32,-1
 1345 2044 l 1,33,34
 1324 1896 1324 1896 1254 1807 c 128,-1,35
 1184 1718 1184 1718 1084 1719 c 0,13,14
EndSplineSet
EndChar

StartChar: Adieresis
Encoding: 196 196 134
Width: 1349
GlyphClass: 2
Flags: W
HStem: 0 21G<-11 339.9 978.084 1305> 391 160<564 891> 1557 20G<702.831 1027.56> 1758 365<518.124 700.614 1128.12 1310.61>
DStem2: -11 0 331 0 0.416754 0.909019<142.53 570.472 740.503 1072.72> 1024 1577 843 874 0.175423 -0.984493<392.049 986.759 1150.07 1545>
LayerCount: 2
Fore
SplineSet
812 1141 m 1,0,-1
 726 926 l 1,1,-1
 564 551 l 1,2,-1
 891 551 l 1,3,-1
 843 874 l 1,4,-1
 812 1141 l 1,0,-1
712 1577 m 1,5,-1
 1024 1577 l 1,6,-1
 1305 0 l 1,7,-1
 981 0 l 1,8,-1
 924 391 l 1,9,-1
 505 391 l 1,10,-1
 331 0 l 1,11,-1
 -11 0 l 1,12,-1
 712 1577 l 1,5,-1
439 1940 m 128,-1,14
 450 2016 450 2016 507 2069.5 c 128,-1,15
 564 2123 564 2123 634 2123 c 128,-1,16
 704 2123 704 2123 746.5 2069.5 c 128,-1,17
 789 2016 789 2016 778 1940 c 0,18,19
 768 1864 768 1864 711 1811 c 128,-1,20
 654 1758 654 1758 583 1758 c 0,21,22
 513 1758 513 1758 470.5 1811 c 128,-1,13
 428 1864 428 1864 439 1940 c 128,-1,14
1049 1940 m 128,-1,24
 1060 2016 1060 2016 1117 2069.5 c 128,-1,25
 1174 2123 1174 2123 1244 2123 c 128,-1,26
 1314 2123 1314 2123 1356.5 2069.5 c 128,-1,27
 1399 2016 1399 2016 1388 1940 c 0,28,29
 1378 1864 1378 1864 1321 1811 c 128,-1,30
 1264 1758 1264 1758 1193 1758 c 0,31,32
 1123 1758 1123 1758 1080.5 1811 c 128,-1,23
 1038 1864 1038 1864 1049 1940 c 128,-1,24
EndSplineSet
EndChar

StartChar: Aring
Encoding: 197 197 135
Width: 1349
GlyphClass: 2
Flags: W
HStem: 0 21G<-11 339.9 978.084 1305> 391 160<564 891> 2057 155<803.135 1043.56>
VStem: 548 168<1740.46 1974.08> 1092 168<1776.42 2010>
DStem2: -11 0 331 0 0.416754 0.909019<142.53 570.472 740.503 1072.72> 709.532 1571.62 726 926 0.416754 0.909019<-988.411 -348.735> 1024.23 1575.71 843 874 0.175423 -0.984493<390.74 985.45 1148.76 1543.69>
LayerCount: 2
Fore
SplineSet
548 1829 m 0,0,1
 548 1933 548 1933 608.5 2022.5 c 128,-1,2
 669 2112 669 2112 762 2162 c 128,-1,3
 855 2212 855 2212 953 2212 c 0,4,5
 1081 2212 1081 2212 1170.5 2130 c 128,-1,6
 1260 2048 1260 2048 1260 1922 c 0,7,8
 1260 1818 1260 1818 1201 1728.5 c 128,-1,9
 1142 1639 1142 1639 1049.5 1588.5 c 0,10,11
 1036.93 1581.64 1036.93 1581.64 1024.23 1575.71 c 1,12,-1
 1305 0 l 1,13,-1
 981 0 l 1,14,-1
 924 391 l 1,15,-1
 505 391 l 1,16,-1
 331 0 l 1,17,-1
 -11 0 l 1,18,-1
 709.532 1571.62 l 1,19,20
 671.911 1590.66 671.911 1590.66 639 1620.5 c 0,21,22
 548 1703 548 1703 548 1829 c 0,0,1
931 2057 m 0,23,24
 852 2057 852 2057 784 1997.5 c 128,-1,25
 716 1938 716 1938 716 1851 c 0,26,27
 716 1782 716 1782 763.5 1737.5 c 128,-1,28
 811 1693 811 1693 879 1693 c 0,29,30
 958 1693 958 1693 1025 1752.5 c 128,-1,31
 1092 1812 1092 1812 1092 1899 c 0,32,33
 1092 1968 1092 1968 1045 2012.5 c 128,-1,34
 998 2057 998 2057 931 2057 c 0,23,24
812 1141 m 1,35,-1
 726 926 l 1,36,-1
 564 551 l 1,37,-1
 891 551 l 1,38,-1
 843 874 l 1,39,-1
 812 1141 l 1,35,-1
EndSplineSet
EndChar

StartChar: AE
Encoding: 198 198 136
Width: 1853
GlyphClass: 2
Flags: W
HStem: 0 268<1139 1683> 338 231<653 860> 709 241<1235 1722> 1311 266<1284 1843>
DStem2: -37 0 315 0 0.531302 0.847182<187.018 581.22 848.645 1436.21>
LayerCount: 2
Fore
SplineSet
1235 950 m 1,0,-1
 1757 950 l 1,1,-1
 1722 709 l 1,2,-1
 1202 709 l 1,3,-1
 1139 268 l 1,4,-1
 1720 268 l 1,5,-1
 1683 0 l 1,6,-1
 813 0 l 1,7,-1
 860 338 l 1,8,-1
 518 338 l 1,9,-1
 315 0 l 1,10,-1
 -37 0 l 1,11,-1
 952 1577 l 1,12,-1
 1882 1577 l 1,13,-1
 1843 1311 l 1,14,-1
 1284 1311 l 1,15,-1
 1235 950 l 1,0,-1
891 569 m 1,16,-1
 968 1065 l 1,17,-1
 653 569 l 1,18,-1
 891 569 l 1,16,-1
EndSplineSet
EndChar

StartChar: Ccedilla
Encoding: 199 199 137
Width: 1181
GlyphClass: 2
Flags: W
HStem: -702 148<389.125 643.929> -276 88<594 648.373> -37 277<631.528 931.943> 1319 280<715.574 1101.53>
VStem: 128 328<364.175 952.252> 689 180<-531.3 -316.508>
DStem2: 469 -276 594 -188 0.205446 0.978669<111.804 260.792>
LayerCount: 2
Fore
SplineSet
370 -648 m 1,0,-1
 389 -511 l 1,1,-1
 397 -515 l 2,2,3
 404 -519 404 -519 418.5 -525.5 c 128,-1,4
 433 -532 433 -532 451 -538.5 c 128,-1,5
 469 -545 469 -545 494 -549.5 c 128,-1,6
 519 -554 519 -554 543 -554 c 0,7,8
 611 -554 611 -554 645 -532 c 128,-1,9
 679 -510 679 -510 689 -438 c 0,10,11
 700 -357 700 -357 645 -316.5 c 128,-1,12
 590 -276 590 -276 469 -276 c 1,13,-1
 522.213 -22.5117 l 1,14,15
 486.538 -14.9691 486.538 -14.9691 453.5 -3.5 c 0,16,17
 357 30 357 30 283 99 c 128,-1,18
 209 168 209 168 168.5 284.5 c 128,-1,19
 128 401 128 401 128 558 c 0,20,21
 128 731 128 731 154.5 882 c 128,-1,22
 181 1033 181 1033 241 1166 c 128,-1,23
 301 1299 301 1299 391 1394 c 128,-1,24
 481 1489 481 1489 615 1543.5 c 128,-1,25
 749 1598 749 1598 916 1599 c 0,26,27
 956 1599 956 1599 995 1595.5 c 128,-1,28
 1034 1592 1034 1592 1066 1586 c 128,-1,29
 1098 1580 1098 1580 1128.5 1571.5 c 128,-1,30
 1159 1563 1159 1563 1182.5 1554 c 128,-1,31
 1206 1545 1206 1545 1226.5 1536 c 128,-1,32
 1247 1527 1247 1527 1262 1519 c 128,-1,33
 1277 1511 1277 1511 1287.5 1504.5 c 128,-1,34
 1298 1498 1298 1498 1303 1494 c 2,35,-1
 1308 1491 l 1,36,-1
 1199 1227 l 1,37,38
 1193 1231 1193 1231 1182 1237 c 128,-1,39
 1171 1243 1171 1243 1136.5 1259 c 128,-1,40
 1102 1275 1102 1275 1066 1287 c 128,-1,41
 1030 1299 1030 1299 978 1309 c 128,-1,42
 926 1319 926 1319 877 1319 c 0,43,44
 685 1319 685 1319 570.5 1120.5 c 128,-1,45
 456 922 456 922 456 589 c 0,46,47
 456 240 456 240 724 240 c 0,48,49
 773 240 773 240 825.5 251 c 128,-1,50
 878 262 878 262 917 278 c 128,-1,51
 956 294 956 294 988.5 310 c 128,-1,52
 1021 326 1021 326 1038 337 c 2,53,-1
 1055 348 l 1,54,-1
 1111 94 l 1,55,56
 1049 42 1049 42 935.5 2.5 c 128,-1,57
 822 -37 822 -37 669 -37 c 0,58,59
 649.976 -37 649.976 -37 631.528 -36.1439 c 1,60,-1
 594 -188 l 1,61,62
 624 -188 624 -188 659.5 -194.5 c 128,-1,63
 695 -201 695 -201 736.5 -218 c 128,-1,64
 778 -235 778 -235 809.5 -261.5 c 128,-1,65
 841 -288 841 -288 858.5 -332.5 c 128,-1,66
 876 -377 876 -377 869 -432 c 0,67,68
 851 -564 851 -564 772 -633 c 128,-1,69
 693 -702 693 -702 561 -702 c 0,70,71
 543 -702 543 -702 524.5 -700 c 128,-1,72
 506 -698 506 -698 490.5 -695 c 128,-1,73
 475 -692 475 -692 460.5 -688 c 128,-1,74
 446 -684 446 -684 434 -679.5 c 128,-1,75
 422 -675 422 -675 411.5 -670.5 c 128,-1,76
 401 -666 401 -666 393 -662 c 2,77,-1
 381 -655 l 2,78,79
 375 -652 375 -652 373 -650 c 2,80,-1
 370 -648 l 1,0,-1
EndSplineSet
EndChar

StartChar: Egrave
Encoding: 200 200 138
Width: 1113
GlyphClass: 2
Flags: W
HStem: 0 234<440 1043> 710 233<540 1055> 1339 238<594 1203>
DStem2: 92 0 407.946 0 0.135716 0.990748<279.064 759.617 995.076 1394.74>
LayerCount: 2
Fore
SplineSet
1043 0 m 1,0,-1
 92 0 l 1,1,-1
 304 1577 l 1,2,-1
 1238 1577 l 1,3,-1
 1203 1339 l 1,4,-1
 594 1339 l 1,5,-1
 540 943 l 1,6,-1
 1086 943 l 1,7,-1
 1055 710 l 1,8,-1
 506 710 l 1,9,-1
 440 234 l 1,10,-1
 1089 234 l 1,11,-1
 1043 0 l 1,0,-1
880 1719 m 1,12,-1
 678 1719 l 1,13,-1
 485 2427 l 1,14,-1
 880 2427 l 1,15,-1
 880 1719 l 1,12,-1
EndSplineSet
EndChar

StartChar: Eacute
Encoding: 201 201 139
Width: 1113
GlyphClass: 2
Flags: W
HStem: 0 234<440 1043> 710 233<540 1055> 1339 238<594 1203>
DStem2: 92 0 407.946 0 0.135716 0.990748<279.064 759.617 995.076 1394.74>
LayerCount: 2
Fore
SplineSet
1043 0 m 1,0,-1
 92 0 l 1,1,-1
 304 1577 l 1,2,-1
 1238 1577 l 1,3,-1
 1203 1339 l 1,4,-1
 594 1339 l 1,5,-1
 540 943 l 1,6,-1
 1086 943 l 1,7,-1
 1055 710 l 1,8,-1
 506 710 l 1,9,-1
 440 234 l 1,10,-1
 1089 234 l 1,11,-1
 1043 0 l 1,0,-1
880 1719 m 1,12,-1
 679 1719 l 1,13,-1
 874 2403 l 1,14,-1
 1263 2403 l 1,15,-1
 880 1719 l 1,12,-1
EndSplineSet
EndChar

StartChar: Ecircumflex
Encoding: 202 202 140
Width: 1113
GlyphClass: 2
Flags: W
HStem: 0 234<440 1043> 710 233<540 1055> 1339 238<594 1203>
DStem2: 92 0 407.946 0 0.135716 0.990748<279.064 759.617 995.076 1394.74>
LayerCount: 2
Fore
SplineSet
1043 0 m 1,0,-1
 92 0 l 1,1,-1
 304 1577 l 1,2,-1
 1238 1577 l 1,3,-1
 1203 1339 l 1,4,-1
 594 1339 l 1,5,-1
 540 943 l 1,6,-1
 1086 943 l 1,7,-1
 1055 710 l 1,8,-1
 506 710 l 1,9,-1
 440 234 l 1,10,-1
 1089 234 l 1,11,-1
 1043 0 l 1,0,-1
744 2358 m 1,12,-1
 970 2358 l 1,13,-1
 1139 1719 l 1,14,-1
 889 1719 l 1,15,-1
 824 2033 l 1,16,-1
 682 1719 l 1,17,-1
 420 1719 l 1,18,-1
 744 2358 l 1,12,-1
EndSplineSet
EndChar

StartChar: Edieresis
Encoding: 203 203 141
Width: 1113
GlyphClass: 2
Flags: W
HStem: 0 234<440 1043> 710 233<540 1055> 1339 238<594 1203> 1719 365<409.124 591.614 1019.12 1201.61>
DStem2: 92 0 407.946 0 0.135716 0.990748<279.064 759.617 995.076 1394.74>
LayerCount: 2
Fore
SplineSet
1043 0 m 1,0,-1
 92 0 l 1,1,-1
 304 1577 l 1,2,-1
 1238 1577 l 1,3,-1
 1203 1339 l 1,4,-1
 594 1339 l 1,5,-1
 540 943 l 1,6,-1
 1086 943 l 1,7,-1
 1055 710 l 1,8,-1
 506 710 l 1,9,-1
 440 234 l 1,10,-1
 1089 234 l 1,11,-1
 1043 0 l 1,0,-1
330 1901 m 128,-1,13
 341 1977 341 1977 398 2030.5 c 128,-1,14
 455 2084 455 2084 525 2084 c 128,-1,15
 595 2084 595 2084 637.5 2030.5 c 128,-1,16
 680 1977 680 1977 669 1901 c 0,17,18
 659 1825 659 1825 602 1772 c 128,-1,19
 545 1719 545 1719 474 1719 c 0,20,21
 404 1719 404 1719 361.5 1772 c 128,-1,12
 319 1825 319 1825 330 1901 c 128,-1,13
940 1901 m 128,-1,23
 951 1977 951 1977 1008 2030.5 c 128,-1,24
 1065 2084 1065 2084 1135 2084 c 128,-1,25
 1205 2084 1205 2084 1247.5 2030.5 c 128,-1,26
 1290 1977 1290 1977 1279 1901 c 0,27,28
 1269 1825 1269 1825 1212 1772 c 128,-1,29
 1155 1719 1155 1719 1084 1719 c 0,30,31
 1014 1719 1014 1719 971.5 1772 c 128,-1,22
 929 1825 929 1825 940 1901 c 128,-1,23
EndSplineSet
EndChar

StartChar: Igrave
Encoding: 204 204 142
Width: 881
GlyphClass: 2
Flags: W
HStem: 0 154<66 240 552 702> 1416 160<264 412 724 900>
DStem2: 218.905 0 530.905 0 0.135716 0.990748<197.781 1429.1>
LayerCount: 2
Fore
SplineSet
66 154 m 1,0,-1
 240 154 l 1,1,-1
 412 1416 l 1,2,-1
 238 1416 l 1,3,-1
 264 1576 l 1,4,-1
 925 1576 l 1,5,-1
 900 1416 l 1,6,-1
 724 1416 l 1,7,-1
 552 154 l 1,8,-1
 728 154 l 1,9,-1
 702 0 l 1,10,-1
 43 0 l 1,11,-1
 66 154 l 1,0,-1
716 1719 m 1,12,-1
 514 1719 l 1,13,-1
 321 2427 l 1,14,-1
 716 2427 l 1,15,-1
 716 1719 l 1,12,-1
EndSplineSet
EndChar

StartChar: Iacute
Encoding: 205 205 143
Width: 881
GlyphClass: 2
Flags: W
HStem: 0 154<66 240 552 702> 1416 160<264 412 724 900>
DStem2: 218.905 0 530.905 0 0.135716 0.990748<197.781 1429.1>
LayerCount: 2
Fore
SplineSet
66 154 m 1,0,-1
 240 154 l 1,1,-1
 412 1416 l 1,2,-1
 238 1416 l 1,3,-1
 264 1576 l 1,4,-1
 925 1576 l 1,5,-1
 900 1416 l 1,6,-1
 724 1416 l 1,7,-1
 552 154 l 1,8,-1
 728 154 l 1,9,-1
 702 0 l 1,10,-1
 43 0 l 1,11,-1
 66 154 l 1,0,-1
716 1719 m 1,12,-1
 515 1719 l 1,13,-1
 710 2403 l 1,14,-1
 1099 2403 l 1,15,-1
 716 1719 l 1,12,-1
EndSplineSet
EndChar

StartChar: Icircumflex
Encoding: 206 206 144
Width: 881
GlyphClass: 2
Flags: W
HStem: 0 154<66 240 552 702> 1416 160<264 412 724 900>
DStem2: 218.905 0 530.905 0 0.135716 0.990748<197.781 1429.1>
LayerCount: 2
Fore
SplineSet
66 154 m 1,0,-1
 240 154 l 1,1,-1
 412 1416 l 1,2,-1
 238 1416 l 1,3,-1
 264 1576 l 1,4,-1
 925 1576 l 1,5,-1
 900 1416 l 1,6,-1
 724 1416 l 1,7,-1
 552 154 l 1,8,-1
 728 154 l 1,9,-1
 702 0 l 1,10,-1
 43 0 l 1,11,-1
 66 154 l 1,0,-1
580 2358 m 1,12,-1
 806 2358 l 1,13,-1
 975 1719 l 1,14,-1
 725 1719 l 1,15,-1
 660 2033 l 1,16,-1
 518 1719 l 1,17,-1
 256 1719 l 1,18,-1
 580 2358 l 1,12,-1
EndSplineSet
EndChar

StartChar: Idieresis
Encoding: 207 207 145
Width: 881
GlyphClass: 2
Flags: W
HStem: 0 154<66 240 552 702> 1416 160<264 412 724 900> 1719 365<245.124 427.614 855.124 1037.61>
DStem2: 218.905 0 530.905 0 0.135716 0.990748<197.781 1429.1>
LayerCount: 2
Fore
SplineSet
66 154 m 1,0,-1
 240 154 l 1,1,-1
 412 1416 l 1,2,-1
 238 1416 l 1,3,-1
 264 1576 l 1,4,-1
 925 1576 l 1,5,-1
 900 1416 l 1,6,-1
 724 1416 l 1,7,-1
 552 154 l 1,8,-1
 728 154 l 1,9,-1
 702 0 l 1,10,-1
 43 0 l 1,11,-1
 66 154 l 1,0,-1
166 1901 m 128,-1,13
 177 1977 177 1977 234 2030.5 c 128,-1,14
 291 2084 291 2084 361 2084 c 128,-1,15
 431 2084 431 2084 473.5 2030.5 c 128,-1,16
 516 1977 516 1977 505 1901 c 0,17,18
 495 1825 495 1825 438 1772 c 128,-1,19
 381 1719 381 1719 310 1719 c 0,20,21
 240 1719 240 1719 197.5 1772 c 128,-1,12
 155 1825 155 1825 166 1901 c 128,-1,13
776 1901 m 128,-1,23
 787 1977 787 1977 844 2030.5 c 128,-1,24
 901 2084 901 2084 971 2084 c 128,-1,25
 1041 2084 1041 2084 1083.5 2030.5 c 128,-1,26
 1126 1977 1126 1977 1115 1901 c 0,27,28
 1105 1825 1105 1825 1048 1772 c 128,-1,29
 991 1719 991 1719 920 1719 c 0,30,31
 850 1719 850 1719 807.5 1772 c 128,-1,22
 765 1825 765 1825 776 1901 c 128,-1,23
EndSplineSet
EndChar

StartChar: Eth
Encoding: 208 208 146
Width: 1423
GlyphClass: 2
Flags: W
HStem: 0 235<469 836.988> 722 182<137 208.053 565.957 766> 1339 240<629 990.404>
VStem: 1093 328<604.747 1220.99>
DStem2: 107 0 436.809 0 0.135716 0.990748<281.955 729.034 957.924 1397.45>
LayerCount: 2
Fore
SplineSet
1421 1009 m 0,0,1
 1421 528 1421 528 1219.5 264 c 128,-1,2
 1018 0 1018 0 656 0 c 2,3,-1
 107 0 l 1,4,-1
 208.053 722 l 1,5,-1
 109 722 l 1,6,-1
 137 904 l 1,7,-1
 233.526 904 l 1,8,-1
 328 1579 l 1,9,-1
 877 1579 l 2,10,11
 1001 1579 1001 1579 1099.5 1546.5 c 128,-1,12
 1198 1514 1198 1514 1270.5 1446 c 128,-1,13
 1343 1378 1343 1378 1382 1268 c 128,-1,14
 1421 1158 1421 1158 1421 1009 c 0,0,1
1093 989 m 0,15,16
 1093 1156 1093 1156 1033.5 1247.5 c 128,-1,17
 974 1339 974 1339 854 1339 c 2,18,-1
 629 1339 l 1,19,-1
 565.957 904 l 1,20,-1
 795 904 l 1,21,-1
 766 722 l 1,22,-1
 539.58 722 l 1,23,-1
 469 235 l 1,24,-1
 673 235 l 2,25,26
 759 235 759 235 829.5 273.5 c 128,-1,27
 900 312 900 312 948.5 379.5 c 128,-1,28
 997 447 997 447 1029.5 542.5 c 128,-1,29
 1062 638 1062 638 1077.5 749.5 c 128,-1,30
 1093 861 1093 861 1093 989 c 0,15,16
EndSplineSet
EndChar

StartChar: Ntilde
Encoding: 209 209 147
Width: 1556
GlyphClass: 2
Flags: W
HStem: 0 21G<107 408.787 1002.39 1343.29> 1556 20G<334.699 683.466 1269.37 1571> 1719 221<1051.09 1205.07> 1870 213<787.112 931.338>
VStem: 568 194<1745 1840.6> 1228 204<1961.15 2044>
DStem2: 107 0 406 0 0.135716 0.990748<40.579 1156.26> 824 1224 560 1105 0.377882 -0.925854<10.4156 807.963> 934 2060.5 898.5 1846.5 0.898123 -0.439745<-4.43564 254.109> 1061.93 0 1351.47 0 0.135716 0.990748<479.436 1589.93>
LayerCount: 2
Fore
SplineSet
1340 0 m 1,0,-1
 1011 0 l 1,1,-1
 856 360 l 1,2,-1
 560 1105 l 1,3,-1
 406 0 l 1,4,-1
 107 0 l 1,5,-1
 269 1158 l 1,6,-1
 338 1576 l 1,7,-1
 675 1576 l 1,8,-1
 824 1224 l 1,9,-1
 1127 475 l 1,10,-1
 1272 1576 l 1,11,-1
 1571 1576 l 1,12,-1
 1409 420 l 1,13,-1
 1340 0 l 1,0,-1
1171 1719 m 0,14,15
 1118 1719 1118 1719 1064 1742.5 c 128,-1,16
 1010 1766 1010 1766 973.5 1794.5 c 128,-1,17
 937 1823 937 1823 898.5 1846.5 c 128,-1,18
 860 1870 860 1870 835 1870 c 0,19,20
 806 1870 806 1870 788.5 1841.5 c 128,-1,21
 771 1813 771 1813 762 1745 c 1,22,-1
 568 1745 l 1,23,24
 616 2083 616 2083 830 2083 c 0,25,26
 884 2083 884 2083 934 2060.5 c 128,-1,27
 984 2038 984 2038 1015.5 2011.5 c 128,-1,28
 1047 1985 1047 1985 1086 1962.5 c 128,-1,29
 1125 1940 1125 1940 1159 1940 c 0,30,31
 1192 1940 1192 1940 1205.5 1960.5 c 128,-1,32
 1219 1981 1219 1981 1228 2044 c 1,33,-1
 1432 2044 l 1,34,35
 1411 1896 1411 1896 1341 1807 c 128,-1,36
 1271 1718 1271 1718 1171 1719 c 0,14,15
EndSplineSet
EndChar

StartChar: Ograve
Encoding: 210 210 148
Width: 1430
GlyphClass: 2
Flags: W
HStem: -37 277<564.82 862.043> 1321 276<706.352 998.891>
VStem: 129 329<366.489 960.976> 1104 326<593.45 1195.18>
LayerCount: 2
Fore
SplineSet
1430 953 m 0,0,1
 1430 765 1430 765 1389.5 603.5 c 128,-1,2
 1349 442 1349 442 1278 325.5 c 128,-1,3
 1207 209 1207 209 1111 126.5 c 128,-1,4
 1015 44 1015 44 902.5 3.5 c 128,-1,5
 790 -37 790 -37 668 -37 c 0,6,7
 420 -37 420 -37 274.5 119.5 c 128,-1,8
 129 276 129 276 129 588 c 0,9,10
 129 823 129 823 189.5 1015.5 c 128,-1,11
 250 1208 250 1208 355 1334 c 128,-1,12
 460 1460 460 1460 599 1528.5 c 128,-1,13
 738 1597 738 1597 897 1597 c 0,14,15
 1014 1597 1014 1597 1110.5 1557.5 c 128,-1,16
 1207 1518 1207 1518 1279 1440 c 128,-1,17
 1351 1362 1351 1362 1390.5 1238 c 128,-1,18
 1430 1114 1430 1114 1430 953 c 0,0,1
1104 946 m 0,19,20
 1106 1320 1106 1320 858 1321 c 0,21,22
 797 1321 797 1321 740 1295 c 128,-1,23
 683 1269 683 1269 631.5 1212.5 c 128,-1,24
 580 1156 580 1156 542 1074.5 c 128,-1,25
 504 993 504 993 481 874.5 c 128,-1,26
 458 756 458 756 458 614 c 0,27,28
 458 240 458 240 707 240 c 0,29,30
 888 240 888 240 995.5 435.5 c 128,-1,31
 1103 631 1103 631 1104 946 c 0,19,20
1016 1719 m 1,32,-1
 814 1719 l 1,33,-1
 621 2427 l 1,34,-1
 1016 2427 l 1,35,-1
 1016 1719 l 1,32,-1
EndSplineSet
EndChar

StartChar: Oacute
Encoding: 211 211 149
Width: 1430
GlyphClass: 2
Flags: W
HStem: -37 277<564.82 862.043> 1321 276<706.352 998.891>
VStem: 129 329<366.489 960.976> 1104 326<593.45 1195.18>
LayerCount: 2
Fore
SplineSet
1430 953 m 0,0,1
 1430 765 1430 765 1389.5 603.5 c 128,-1,2
 1349 442 1349 442 1278 325.5 c 128,-1,3
 1207 209 1207 209 1111 126.5 c 128,-1,4
 1015 44 1015 44 902.5 3.5 c 128,-1,5
 790 -37 790 -37 668 -37 c 0,6,7
 420 -37 420 -37 274.5 119.5 c 128,-1,8
 129 276 129 276 129 588 c 0,9,10
 129 823 129 823 189.5 1015.5 c 128,-1,11
 250 1208 250 1208 355 1334 c 128,-1,12
 460 1460 460 1460 599 1528.5 c 128,-1,13
 738 1597 738 1597 897 1597 c 0,14,15
 1014 1597 1014 1597 1110.5 1557.5 c 128,-1,16
 1207 1518 1207 1518 1279 1440 c 128,-1,17
 1351 1362 1351 1362 1390.5 1238 c 128,-1,18
 1430 1114 1430 1114 1430 953 c 0,0,1
1104 946 m 0,19,20
 1106 1320 1106 1320 858 1321 c 0,21,22
 797 1321 797 1321 740 1295 c 128,-1,23
 683 1269 683 1269 631.5 1212.5 c 128,-1,24
 580 1156 580 1156 542 1074.5 c 128,-1,25
 504 993 504 993 481 874.5 c 128,-1,26
 458 756 458 756 458 614 c 0,27,28
 458 240 458 240 707 240 c 0,29,30
 888 240 888 240 995.5 435.5 c 128,-1,31
 1103 631 1103 631 1104 946 c 0,19,20
1015 1719 m 1,32,-1
 814 1719 l 1,33,-1
 1009 2403 l 1,34,-1
 1398 2403 l 1,35,-1
 1015 1719 l 1,32,-1
EndSplineSet
EndChar

StartChar: Ocircumflex
Encoding: 212 212 150
Width: 1430
GlyphClass: 2
Flags: W
HStem: -37 277<564.82 862.043> 1321 276<706.352 998.891>
VStem: 129 329<366.489 960.976> 1104 326<593.45 1195.18>
LayerCount: 2
Fore
SplineSet
1430 953 m 0,0,1
 1430 765 1430 765 1389.5 603.5 c 128,-1,2
 1349 442 1349 442 1278 325.5 c 128,-1,3
 1207 209 1207 209 1111 126.5 c 128,-1,4
 1015 44 1015 44 902.5 3.5 c 128,-1,5
 790 -37 790 -37 668 -37 c 0,6,7
 420 -37 420 -37 274.5 119.5 c 128,-1,8
 129 276 129 276 129 588 c 0,9,10
 129 823 129 823 189.5 1015.5 c 128,-1,11
 250 1208 250 1208 355 1334 c 128,-1,12
 460 1460 460 1460 599 1528.5 c 128,-1,13
 738 1597 738 1597 897 1597 c 0,14,15
 1014 1597 1014 1597 1110.5 1557.5 c 128,-1,16
 1207 1518 1207 1518 1279 1440 c 128,-1,17
 1351 1362 1351 1362 1390.5 1238 c 128,-1,18
 1430 1114 1430 1114 1430 953 c 0,0,1
1104 946 m 0,19,20
 1106 1320 1106 1320 858 1321 c 0,21,22
 797 1321 797 1321 740 1295 c 128,-1,23
 683 1269 683 1269 631.5 1212.5 c 128,-1,24
 580 1156 580 1156 542 1074.5 c 128,-1,25
 504 993 504 993 481 874.5 c 128,-1,26
 458 756 458 756 458 614 c 0,27,28
 458 240 458 240 707 240 c 0,29,30
 888 240 888 240 995.5 435.5 c 128,-1,31
 1103 631 1103 631 1104 946 c 0,19,20
879 2358 m 1,32,-1
 1105 2358 l 1,33,-1
 1274 1719 l 1,34,-1
 1024 1719 l 1,35,-1
 959 2033 l 1,36,-1
 817 1719 l 1,37,-1
 555 1719 l 1,38,-1
 879 2358 l 1,32,-1
EndSplineSet
EndChar

StartChar: Otilde
Encoding: 213 213 151
Width: 1430
GlyphClass: 2
Flags: W
HStem: -37 277<564.82 862.043> 1321 276<706.352 998.891> 1719 221<990.085 1144.07> 1870 213<726.112 870.338>
VStem: 129 329<366.489 960.976> 507 194<1745 1840.6> 1104 326<593.45 1195.18> 1167 204<1961.15 2044>
DStem2: 873 2060.5 837.5 1846.5 0.898123 -0.439745<-4.43566 254.109>
LayerCount: 2
Fore
SplineSet
1430 953 m 0,0,1
 1430 765 1430 765 1389.5 603.5 c 128,-1,2
 1349 442 1349 442 1278 325.5 c 128,-1,3
 1207 209 1207 209 1111 126.5 c 128,-1,4
 1015 44 1015 44 902.5 3.5 c 128,-1,5
 790 -37 790 -37 668 -37 c 0,6,7
 420 -37 420 -37 274.5 119.5 c 128,-1,8
 129 276 129 276 129 588 c 0,9,10
 129 823 129 823 189.5 1015.5 c 128,-1,11
 250 1208 250 1208 355 1334 c 128,-1,12
 460 1460 460 1460 599 1528.5 c 128,-1,13
 738 1597 738 1597 897 1597 c 0,14,15
 1014 1597 1014 1597 1110.5 1557.5 c 128,-1,16
 1207 1518 1207 1518 1279 1440 c 128,-1,17
 1351 1362 1351 1362 1390.5 1238 c 128,-1,18
 1430 1114 1430 1114 1430 953 c 0,0,1
1104 946 m 0,19,20
 1106 1320 1106 1320 858 1321 c 0,21,22
 797 1321 797 1321 740 1295 c 128,-1,23
 683 1269 683 1269 631.5 1212.5 c 128,-1,24
 580 1156 580 1156 542 1074.5 c 128,-1,25
 504 993 504 993 481 874.5 c 128,-1,26
 458 756 458 756 458 614 c 0,27,28
 458 240 458 240 707 240 c 0,29,30
 888 240 888 240 995.5 435.5 c 128,-1,31
 1103 631 1103 631 1104 946 c 0,19,20
1110 1719 m 0,32,33
 1057 1719 1057 1719 1003 1742.5 c 128,-1,34
 949 1766 949 1766 912.5 1794.5 c 128,-1,35
 876 1823 876 1823 837.5 1846.5 c 128,-1,36
 799 1870 799 1870 774 1870 c 0,37,38
 745 1870 745 1870 727.5 1841.5 c 128,-1,39
 710 1813 710 1813 701 1745 c 1,40,-1
 507 1745 l 1,41,42
 555 2083 555 2083 769 2083 c 0,43,44
 823 2083 823 2083 873 2060.5 c 128,-1,45
 923 2038 923 2038 954.5 2011.5 c 128,-1,46
 986 1985 986 1985 1025 1962.5 c 128,-1,47
 1064 1940 1064 1940 1098 1940 c 0,48,49
 1131 1940 1131 1940 1144.5 1960.5 c 128,-1,50
 1158 1981 1158 1981 1167 2044 c 1,51,-1
 1371 2044 l 1,52,53
 1350 1896 1350 1896 1280 1807 c 128,-1,54
 1210 1718 1210 1718 1110 1719 c 0,32,33
EndSplineSet
EndChar

StartChar: Odieresis
Encoding: 214 214 152
Width: 1430
GlyphClass: 2
Flags: W
HStem: -37 277<564.82 862.043> 1321 276<706.352 998.891> 1719 365<545.124 727.614 1155.12 1337.61>
VStem: 129 329<366.489 960.976> 1104 326<593.45 1195.18>
LayerCount: 2
Fore
SplineSet
1430 953 m 0,0,1
 1430 765 1430 765 1389.5 603.5 c 128,-1,2
 1349 442 1349 442 1278 325.5 c 128,-1,3
 1207 209 1207 209 1111 126.5 c 128,-1,4
 1015 44 1015 44 902.5 3.5 c 128,-1,5
 790 -37 790 -37 668 -37 c 0,6,7
 420 -37 420 -37 274.5 119.5 c 128,-1,8
 129 276 129 276 129 588 c 0,9,10
 129 823 129 823 189.5 1015.5 c 128,-1,11
 250 1208 250 1208 355 1334 c 128,-1,12
 460 1460 460 1460 599 1528.5 c 128,-1,13
 738 1597 738 1597 897 1597 c 0,14,15
 1014 1597 1014 1597 1110.5 1557.5 c 128,-1,16
 1207 1518 1207 1518 1279 1440 c 128,-1,17
 1351 1362 1351 1362 1390.5 1238 c 128,-1,18
 1430 1114 1430 1114 1430 953 c 0,0,1
1104 946 m 0,19,20
 1106 1320 1106 1320 858 1321 c 0,21,22
 797 1321 797 1321 740 1295 c 128,-1,23
 683 1269 683 1269 631.5 1212.5 c 128,-1,24
 580 1156 580 1156 542 1074.5 c 128,-1,25
 504 993 504 993 481 874.5 c 128,-1,26
 458 756 458 756 458 614 c 0,27,28
 458 240 458 240 707 240 c 0,29,30
 888 240 888 240 995.5 435.5 c 128,-1,31
 1103 631 1103 631 1104 946 c 0,19,20
466 1901 m 128,-1,33
 477 1977 477 1977 534 2030.5 c 128,-1,34
 591 2084 591 2084 661 2084 c 128,-1,35
 731 2084 731 2084 773.5 2030.5 c 128,-1,36
 816 1977 816 1977 805 1901 c 0,37,38
 795 1825 795 1825 738 1772 c 128,-1,39
 681 1719 681 1719 610 1719 c 0,40,41
 540 1719 540 1719 497.5 1772 c 128,-1,32
 455 1825 455 1825 466 1901 c 128,-1,33
1076 1901 m 128,-1,43
 1087 1977 1087 1977 1144 2030.5 c 128,-1,44
 1201 2084 1201 2084 1271 2084 c 128,-1,45
 1341 2084 1341 2084 1383.5 2030.5 c 128,-1,46
 1426 1977 1426 1977 1415 1901 c 0,47,48
 1405 1825 1405 1825 1348 1772 c 128,-1,49
 1291 1719 1291 1719 1220 1719 c 0,50,51
 1150 1719 1150 1719 1107.5 1772 c 128,-1,42
 1065 1825 1065 1825 1076 1901 c 128,-1,43
EndSplineSet
EndChar

StartChar: multiply
Encoding: 215 215 153
Width: 1386
GlyphClass: 2
Flags: W
DStem2: 157 189 352 -9 0.728263 0.685298<6.32236 512.85 843.256 1396.47> 517 1137 286 970 0.566741 -0.823896<6.67356 448.794 773.908 1201.61>
LayerCount: 2
Fore
SplineSet
1369 948 m 1,0,-1
 1174 1146 l 1,1,-1
 771 767 l 1,2,-1
 517 1137 l 1,3,-1
 286 970 l 1,4,-1
 561 570 l 1,5,-1
 157 189 l 1,6,-1
 352 -9 l 1,7,-1
 721 338 l 1,8,-1
 967 -20 l 1,9,-1
 1198 147 l 1,10,-1
 931 536 l 1,11,-1
 1369 948 l 1,0,-1
EndSplineSet
EndChar

StartChar: Oslash
Encoding: 216 216 154
Width: 1429
GlyphClass: 2
Flags: W
HStem: -37 255<643 870.147> 1343 254<708.429 925>
VStem: 128 277<361.397 937.181> 1151 278<604.347 1204.87>
DStem2: 332 -123 481 -179 0.37619 0.926542<4.16596 166.161 443.633 1564.57 1835.35 2009.62>
LayerCount: 2
Fore
SplineSet
1151 957 m 0,0,1
 1151 1175 1151 1175 1065 1268 c 1,2,-1
 643 222 l 1,3,4
 664 218 664 218 694 218 c 0,5,6
 835 218 835 218 939.5 312.5 c 128,-1,7
 1044 407 1044 407 1097.5 573.5 c 128,-1,8
 1151 740 1151 740 1151 957 c 0,0,1
1429 953 m 0,9,10
 1429 765 1429 765 1388.5 603.5 c 128,-1,11
 1348 442 1348 442 1277 325.5 c 128,-1,12
 1206 209 1206 209 1110 126.5 c 128,-1,13
 1014 44 1014 44 901.5 3.5 c 128,-1,14
 789 -37 789 -37 667 -37 c 0,15,16
 604 -37 604 -37 543 -26 c 1,17,-1
 481 -179 l 1,18,-1
 332 -123 l 1,19,-1
 392 26 l 1,20,21
 128 169 128 169 128 588 c 0,22,23
 128 823 128 823 188.5 1015.5 c 128,-1,24
 249 1208 249 1208 354 1334 c 128,-1,25
 459 1460 459 1460 598 1528.5 c 128,-1,26
 737 1597 737 1597 896 1597 c 0,27,28
 966 1597 966 1597 1025 1584 c 1,29,-1
 1088 1739 l 1,30,-1
 1232 1683 l 1,31,-1
 1170 1528 l 1,32,33
 1293 1456 1293 1456 1361 1311.5 c 128,-1,34
 1429 1167 1429 1167 1429 953 c 0,9,10
869 1343 m 0,35,36
 805 1343 805 1343 741 1315.5 c 128,-1,37
 677 1288 677 1288 616 1228.5 c 128,-1,38
 555 1169 555 1169 508.5 1084.5 c 128,-1,39
 462 1000 462 1000 433.5 875.5 c 128,-1,40
 405 751 405 751 405 604 c 0,41,42
 405 382 405 382 499 288 c 1,43,-1
 925 1338 l 1,44,45
 897 1343 897 1343 869 1343 c 0,35,36
EndSplineSet
EndChar

StartChar: Ugrave
Encoding: 217 217 155
Width: 1527
GlyphClass: 2
Flags: W
HStem: -37 266<585.93 909.497> 1557 20G<330.213 655 1205.18 1530>
VStem: 198 319<300.285 908.25>
DStem2: 109.893 -37 430.441 -37 0.135716 0.990748<600.761 1629.35> 983.441 -37 1306.89 -37 0.135716 0.990748<440.766 1629.54>
LayerCount: 2
Fore
SplineSet
740 229 m 0,0,1
 845 229 845 229 910.5 273.5 c 128,-1,2
 976 318 976 318 1018 423.5 c 128,-1,3
 1060 529 1060 529 1087 719 c 2,4,-1
 1208 1577 l 1,5,-1
 1530 1577 l 1,6,-1
 1411 723 l 2,7,8
 1386 546 1386 546 1336.5 412 c 128,-1,9
 1287 278 1287 278 1223 193.5 c 128,-1,10
 1159 109 1159 109 1073.5 56.5 c 128,-1,11
 988 4 988 4 899.5 -16.5 c 128,-1,12
 811 -37 811 -37 703 -37 c 0,13,14
 610 -37 610 -37 536.5 -22 c 128,-1,15
 463 -7 463 -7 398 30.5 c 128,-1,16
 333 68 333 68 290 128.5 c 128,-1,17
 247 189 247 189 222.5 283 c 128,-1,18
 198 377 198 377 198 501 c 0,19,20
 198 604 198 604 214 723 c 2,21,-1
 333 1577 l 1,22,-1
 655 1577 l 1,23,-1
 534 719 l 2,24,25
 517 594 517 594 517 511 c 0,26,27
 517 354 517 354 567.5 291.5 c 128,-1,28
 618 229 618 229 740 229 c 0,0,1
1017 1719 m 1,29,-1
 815 1719 l 1,30,-1
 622 2427 l 1,31,-1
 1017 2427 l 1,32,-1
 1017 1719 l 1,29,-1
EndSplineSet
EndChar

StartChar: Uacute
Encoding: 218 218 156
Width: 1527
GlyphClass: 2
Flags: W
HStem: -37 266<585.93 909.497> 1557 20G<330.213 655 1205.18 1530>
VStem: 198 319<300.285 908.25>
DStem2: 109.893 -37 430.441 -37 0.135716 0.990748<600.761 1629.35> 983.441 -37 1306.89 -37 0.135716 0.990748<440.766 1629.54>
LayerCount: 2
Fore
SplineSet
740 229 m 0,0,1
 845 229 845 229 910.5 273.5 c 128,-1,2
 976 318 976 318 1018 423.5 c 128,-1,3
 1060 529 1060 529 1087 719 c 2,4,-1
 1208 1577 l 1,5,-1
 1530 1577 l 1,6,-1
 1411 723 l 2,7,8
 1386 546 1386 546 1336.5 412 c 128,-1,9
 1287 278 1287 278 1223 193.5 c 128,-1,10
 1159 109 1159 109 1073.5 56.5 c 128,-1,11
 988 4 988 4 899.5 -16.5 c 128,-1,12
 811 -37 811 -37 703 -37 c 0,13,14
 610 -37 610 -37 536.5 -22 c 128,-1,15
 463 -7 463 -7 398 30.5 c 128,-1,16
 333 68 333 68 290 128.5 c 128,-1,17
 247 189 247 189 222.5 283 c 128,-1,18
 198 377 198 377 198 501 c 0,19,20
 198 604 198 604 214 723 c 2,21,-1
 333 1577 l 1,22,-1
 655 1577 l 1,23,-1
 534 719 l 2,24,25
 517 594 517 594 517 511 c 0,26,27
 517 354 517 354 567.5 291.5 c 128,-1,28
 618 229 618 229 740 229 c 0,0,1
1016 1719 m 1,29,-1
 815 1719 l 1,30,-1
 1010 2403 l 1,31,-1
 1399 2403 l 1,32,-1
 1016 1719 l 1,29,-1
EndSplineSet
EndChar

StartChar: Ucircumflex
Encoding: 219 219 157
Width: 1527
GlyphClass: 2
Flags: W
HStem: -37 266<585.93 909.497> 1557 20G<330.213 655 1205.18 1530>
VStem: 198 319<300.285 908.25>
DStem2: 109.893 -37 430.441 -37 0.135716 0.990748<600.761 1629.35> 983.441 -37 1306.89 -37 0.135716 0.990748<440.766 1629.54>
LayerCount: 2
Fore
SplineSet
740 229 m 0,0,1
 845 229 845 229 910.5 273.5 c 128,-1,2
 976 318 976 318 1018 423.5 c 128,-1,3
 1060 529 1060 529 1087 719 c 2,4,-1
 1208 1577 l 1,5,-1
 1530 1577 l 1,6,-1
 1411 723 l 2,7,8
 1386 546 1386 546 1336.5 412 c 128,-1,9
 1287 278 1287 278 1223 193.5 c 128,-1,10
 1159 109 1159 109 1073.5 56.5 c 128,-1,11
 988 4 988 4 899.5 -16.5 c 128,-1,12
 811 -37 811 -37 703 -37 c 0,13,14
 610 -37 610 -37 536.5 -22 c 128,-1,15
 463 -7 463 -7 398 30.5 c 128,-1,16
 333 68 333 68 290 128.5 c 128,-1,17
 247 189 247 189 222.5 283 c 128,-1,18
 198 377 198 377 198 501 c 0,19,20
 198 604 198 604 214 723 c 2,21,-1
 333 1577 l 1,22,-1
 655 1577 l 1,23,-1
 534 719 l 2,24,25
 517 594 517 594 517 511 c 0,26,27
 517 354 517 354 567.5 291.5 c 128,-1,28
 618 229 618 229 740 229 c 0,0,1
909 2358 m 5,29,-1
 1135 2358 l 5,30,-1
 1304 1719 l 5,31,-1
 1054 1719 l 5,32,-1
 989 2033 l 5,33,-1
 847 1719 l 5,34,-1
 585 1719 l 5,35,-1
 909 2358 l 5,29,-1
EndSplineSet
EndChar

StartChar: Udieresis
Encoding: 220 220 158
Width: 1527
GlyphClass: 2
Flags: W
HStem: -37 266<585.93 909.497> 1557 20G<330.213 655 1205.18 1530> 1720 365<556.124 738.614 1166.12 1348.61>
VStem: 198 319<300.285 908.25>
DStem2: 109.893 -37 430.441 -37 0.135716 0.990748<600.761 1629.35> 983.441 -37 1306.89 -37 0.135716 0.990748<440.766 1629.54>
LayerCount: 2
Fore
SplineSet
740 229 m 0,0,1
 845 229 845 229 910.5 273.5 c 128,-1,2
 976 318 976 318 1018 423.5 c 128,-1,3
 1060 529 1060 529 1087 719 c 2,4,-1
 1208 1577 l 1,5,-1
 1530 1577 l 1,6,-1
 1411 723 l 2,7,8
 1386 546 1386 546 1336.5 412 c 128,-1,9
 1287 278 1287 278 1223 193.5 c 128,-1,10
 1159 109 1159 109 1073.5 56.5 c 128,-1,11
 988 4 988 4 899.5 -16.5 c 128,-1,12
 811 -37 811 -37 703 -37 c 0,13,14
 610 -37 610 -37 536.5 -22 c 128,-1,15
 463 -7 463 -7 398 30.5 c 128,-1,16
 333 68 333 68 290 128.5 c 128,-1,17
 247 189 247 189 222.5 283 c 128,-1,18
 198 377 198 377 198 501 c 0,19,20
 198 604 198 604 214 723 c 2,21,-1
 333 1577 l 1,22,-1
 655 1577 l 1,23,-1
 534 719 l 2,24,25
 517 594 517 594 517 511 c 0,26,27
 517 354 517 354 567.5 291.5 c 128,-1,28
 618 229 618 229 740 229 c 0,0,1
477 1902 m 132,-1,30
 488 1978 488 1978 545 2031.5 c 132,-1,31
 602 2085 602 2085 672 2085 c 132,-1,32
 742 2085 742 2085 784.5 2031.5 c 132,-1,33
 827 1978 827 1978 816 1902 c 4,34,35
 806 1826 806 1826 749 1773 c 132,-1,36
 692 1720 692 1720 621 1720 c 4,37,38
 551 1720 551 1720 508.5 1773 c 132,-1,29
 466 1826 466 1826 477 1902 c 132,-1,30
1087 1902 m 132,-1,40
 1098 1978 1098 1978 1155 2031.5 c 132,-1,41
 1212 2085 1212 2085 1282 2085 c 132,-1,42
 1352 2085 1352 2085 1394.5 2031.5 c 132,-1,43
 1437 1978 1437 1978 1426 1902 c 4,44,45
 1416 1826 1416 1826 1359 1773 c 132,-1,46
 1302 1720 1302 1720 1231 1720 c 4,47,48
 1161 1720 1161 1720 1118.5 1773 c 132,-1,39
 1076 1826 1076 1826 1087 1902 c 132,-1,40
EndSplineSet
EndChar

StartChar: Yacute
Encoding: 221 221 159
Width: 1189
GlyphClass: 2
Flags: W
HStem: 0 21G<377 696.78> 1557 20G<135 482.549 1024.51 1392>
DStem2: 477 1577 135 1577 0.283441 -0.95899<0 680.683> 377 0 694 0 0.135716 0.990748<43.0218 522.843> 659 921 766 518 0.508866 0.860846<0 756.557>
LayerCount: 2
Fore
SplineSet
659 921 m 1,0,-1
 1036 1577 l 1,1,-1
 1392 1577 l 1,2,-1
 766 518 l 1,3,-1
 694 0 l 1,4,-1
 377 0 l 1,5,-1
 448 518 l 1,6,-1
 135 1577 l 1,7,-1
 477 1577 l 1,8,-1
 659 921 l 1,0,-1
884 1719 m 1,9,-1
 683 1719 l 1,10,-1
 878 2403 l 1,11,-1
 1267 2403 l 1,12,-1
 884 1719 l 1,9,-1
EndSplineSet
EndChar

StartChar: Thorn
Encoding: 222 222 160
Width: 1206
GlyphClass: 2
Flags: W
HStem: 0 21G<80 403.863> 461 268<504 855.845> 1188 268<606 923.536> 1559 20G<298.201 625>
DStem2: 80 0 401 0 0.135716 0.990748<43.5647 509.257 779.799 1243.37 1513.92 1594.38>
LayerCount: 2
Fore
SplineSet
301 1579 m 1,0,-1
 625 1579 l 1,1,-1
 606 1456 l 1,2,-1
 696 1456 l 2,3,4
 945 1456 945 1456 1084 1404 c 128,-1,5
 1223 1352 1223 1352 1272 1244.5 c 128,-1,6
 1321 1137 1321 1137 1296 956 c 0,7,8
 1260 700 1260 700 1077 580.5 c 128,-1,9
 894 461 894 461 524 461 c 2,10,-1
 467 461 l 1,11,-1
 401 0 l 1,12,-1
 80 0 l 1,13,-1
 301 1579 l 1,0,-1
983 956 m 0,14,15
 992 1017 992 1017 984.5 1060.5 c 128,-1,16
 977 1104 977 1104 943 1132.5 c 128,-1,17
 909 1161 909 1161 842 1174.5 c 128,-1,18
 775 1188 775 1188 666 1188 c 2,19,-1
 569 1188 l 1,20,-1
 504 729 l 1,21,-1
 561 729 l 2,22,23
 716 729 716 729 804.5 753 c 128,-1,24
 893 777 893 777 932 824 c 128,-1,25
 971 871 971 871 983 956 c 0,14,15
EndSplineSet
EndChar

StartChar: germandbls
Encoding: 223 223 161
Width: 1475
GlyphClass: 2
Flags: W
HStem: -201 273<624 858.746> 0 21G<97 429.831> 705 218<696 936.208> 1350 245<698.119 1016.29>
VStem: 1067 292<1039.28 1300.32> 1123 309<279.119 594.416>
DStem2: 69.4664 -201 399.466 -201 0.135716 0.990748<247.663 1484.05>
LayerCount: 2
Fore
SplineSet
665 705 m 1,0,-1
 696 923 l 1,1,2
 1067 923 1067 923 1067 1193 c 0,3,4
 1067 1350 1067 1350 847 1350 c 0,5,6
 721 1350 721 1350 657 1263.5 c 128,-1,7
 593 1177 593 1177 568 996 c 2,8,-1
 427 0 l 1,9,-1
 97 0 l 1,10,-1
 238 996 l 2,11,12
 280 1293 280 1293 443.5 1444 c 128,-1,13
 607 1595 607 1595 881 1595 c 0,14,15
 1110 1595 1110 1595 1234.5 1493 c 128,-1,16
 1359 1391 1359 1391 1359 1231 c 0,17,18
 1359 1193 1359 1193 1357.5 1164.5 c 128,-1,19
 1356 1136 1356 1136 1348 1093.5 c 128,-1,20
 1340 1051 1340 1051 1325.5 1019.5 c 128,-1,21
 1311 988 1311 988 1283.5 952 c 128,-1,22
 1256 916 1256 916 1218 892 c 128,-1,23
 1180 868 1180 868 1121 850.5 c 128,-1,24
 1062 833 1062 833 989 828 c 1,25,26
 1119 815 1119 815 1207.5 784 c 128,-1,27
 1296 753 1296 753 1344 705 c 128,-1,28
 1392 657 1392 657 1412 601 c 128,-1,29
 1432 545 1432 545 1432 471 c 2,30,-1
 1432 468 l 2,31,32
 1432 347 1432 347 1403 247.5 c 128,-1,33
 1374 148 1374 148 1327.5 80.5 c 128,-1,34
 1281 13 1281 13 1212.5 -38 c 128,-1,35
 1144 -89 1144 -89 1075 -118.5 c 128,-1,36
 1006 -148 1006 -148 921 -166.5 c 128,-1,37
 836 -185 836 -185 768.5 -192 c 128,-1,38
 701 -199 701 -199 624 -201 c 1,39,-1
 571 72 l 1,40,41
 673 77 673 77 753 90.5 c 128,-1,42
 833 104 833 104 904 133 c 128,-1,43
 975 162 975 162 1022 205 c 128,-1,44
 1069 248 1069 248 1096 314 c 128,-1,45
 1123 380 1123 380 1123 466 c 0,46,47
 1123 593 1123 593 1006.5 649 c 128,-1,48
 890 705 890 705 665 705 c 1,0,-1
EndSplineSet
EndChar

StartChar: agrave
Encoding: 224 224 162
Width: 1157
GlyphClass: 2
Flags: W
HStem: -15 233<340 598.871> 1 21G<754 984.807> 886 231<570.521 791.256>
VStem: 80 316<255.803 651.277>
DStem2: 670.494 -15 979.808 -15 0.135716 0.990748<258.187 898.893>
LayerCount: 2
Fore
SplineSet
1119 977 m 1,0,-1
 982 1 l 1,1,-1
 759 1 l 1,2,-1
 718 165 l 1,3,4
 687 90 687 90 611.5 37.5 c 128,-1,5
 536 -15 536 -15 430 -15 c 0,6,7
 250 -15 250 -15 165 96.5 c 128,-1,8
 80 208 80 208 80 396 c 0,9,10
 80 525 80 525 125.5 655 c 128,-1,11
 171 785 171 785 246.5 887 c 128,-1,12
 322 989 322 989 428.5 1053 c 128,-1,13
 535 1117 535 1117 649 1117 c 0,14,15
 728 1117 728 1117 805.5 1102.5 c 128,-1,16
 883 1088 883 1088 937 1067.5 c 128,-1,17
 991 1047 991 1047 1034 1026.5 c 128,-1,18
 1077 1006 1077 1006 1098 992 c 2,19,-1
 1119 977 l 1,0,-1
396 430 m 0,20,21
 396 218 396 218 530 218 c 0,22,23
 655 218 655 218 712 288 c 1,24,-1
 793 872 l 1,25,26
 747 886 747 886 680 886 c 0,27,28
 630 886 630 886 579 849 c 128,-1,29
 528 812 528 812 487.5 751.5 c 128,-1,30
 447 691 447 691 421.5 605.5 c 128,-1,31
 396 520 396 520 396 430 c 0,20,21
768 1243 m 1,32,-1
 566 1243 l 1,33,-1
 373 1951 l 1,34,-1
 768 1951 l 1,35,-1
 768 1243 l 1,32,-1
EndSplineSet
EndChar

StartChar: aacute
Encoding: 225 225 163
Width: 1157
GlyphClass: 2
Flags: W
HStem: -15 233<340 598.871> 1 21G<754 984.807> 886 231<570.521 791.256>
VStem: 80 316<255.803 651.277>
DStem2: 670.494 -15 979.808 -15 0.135716 0.990748<258.187 898.893>
LayerCount: 2
Fore
SplineSet
1119 977 m 1,0,-1
 982 1 l 1,1,-1
 759 1 l 1,2,-1
 718 165 l 1,3,4
 687 90 687 90 611.5 37.5 c 128,-1,5
 536 -15 536 -15 430 -15 c 0,6,7
 250 -15 250 -15 165 96.5 c 128,-1,8
 80 208 80 208 80 396 c 0,9,10
 80 525 80 525 125.5 655 c 128,-1,11
 171 785 171 785 246.5 887 c 128,-1,12
 322 989 322 989 428.5 1053 c 128,-1,13
 535 1117 535 1117 649 1117 c 0,14,15
 728 1117 728 1117 805.5 1102.5 c 128,-1,16
 883 1088 883 1088 937 1067.5 c 128,-1,17
 991 1047 991 1047 1034 1026.5 c 128,-1,18
 1077 1006 1077 1006 1098 992 c 2,19,-1
 1119 977 l 1,0,-1
396 430 m 0,20,21
 396 218 396 218 530 218 c 0,22,23
 655 218 655 218 712 288 c 1,24,-1
 793 872 l 1,25,26
 747 886 747 886 680 886 c 0,27,28
 630 886 630 886 579 849 c 128,-1,29
 528 812 528 812 487.5 751.5 c 128,-1,30
 447 691 447 691 421.5 605.5 c 128,-1,31
 396 520 396 520 396 430 c 0,20,21
768 1243 m 1,32,-1
 567 1243 l 1,33,-1
 762 1927 l 1,34,-1
 1151 1927 l 1,35,-1
 768 1243 l 1,32,-1
EndSplineSet
EndChar

StartChar: acircumflex
Encoding: 226 226 164
Width: 1157
GlyphClass: 2
Flags: W
HStem: -15 233<340 598.871> 1 21G<754 984.807> 886 231<570.521 791.256> 1303 21G<338 609.045 802.86 1057>
VStem: 80 316<255.803 651.277>
DStem2: 670.494 -15 979.808 -15 0.135716 0.990748<258.187 898.893>
LayerCount: 2
Fore
SplineSet
1119 977 m 1,0,-1
 982 1 l 1,1,-1
 759 1 l 1,2,-1
 718 165 l 1,3,4
 687 90 687 90 611.5 37.5 c 128,-1,5
 536 -15 536 -15 430 -15 c 0,6,7
 250 -15 250 -15 165 96.5 c 128,-1,8
 80 208 80 208 80 396 c 0,9,10
 80 525 80 525 125.5 655 c 128,-1,11
 171 785 171 785 246.5 887 c 128,-1,12
 322 989 322 989 428.5 1053 c 128,-1,13
 535 1117 535 1117 649 1117 c 0,14,15
 728 1117 728 1117 805.5 1102.5 c 128,-1,16
 883 1088 883 1088 937 1067.5 c 128,-1,17
 991 1047 991 1047 1034 1026.5 c 128,-1,18
 1077 1006 1077 1006 1098 992 c 2,19,-1
 1119 977 l 1,0,-1
396 430 m 0,20,21
 396 218 396 218 530 218 c 0,22,23
 655 218 655 218 712 288 c 1,24,-1
 793 872 l 1,25,26
 747 886 747 886 680 886 c 0,27,28
 630 886 630 886 579 849 c 128,-1,29
 528 812 528 812 487.5 751.5 c 128,-1,30
 447 691 447 691 421.5 605.5 c 128,-1,31
 396 520 396 520 396 430 c 0,20,21
662 1942 m 5,32,-1
 888 1942 l 5,33,-1
 1057 1303 l 5,34,-1
 807 1303 l 5,35,-1
 742 1617 l 5,36,-1
 600 1303 l 5,37,-1
 338 1303 l 5,38,-1
 662 1942 l 5,32,-1
EndSplineSet
EndChar

StartChar: atilde
Encoding: 227 227 165
Width: 1157
GlyphClass: 2
Flags: W
HStem: -15 233<340 598.871> 1 21G<754 984.807> 886 231<570.521 791.256> 1243 221<773.085 927.073> 1394 213<509.112 653.338>
VStem: 80 316<255.803 651.277> 290 194<1269 1364.6> 950 204<1485.15 1568>
DStem2: 656 1584.5 620.5 1370.5 0.898123 -0.439745<-4.43566 254.109> 670.494 -15 979.808 -15 0.135716 0.990748<258.187 898.893>
LayerCount: 2
Fore
SplineSet
1119 977 m 1,0,-1
 982 1 l 1,1,-1
 759 1 l 1,2,-1
 718 165 l 1,3,4
 687 90 687 90 611.5 37.5 c 128,-1,5
 536 -15 536 -15 430 -15 c 0,6,7
 250 -15 250 -15 165 96.5 c 128,-1,8
 80 208 80 208 80 396 c 0,9,10
 80 525 80 525 125.5 655 c 128,-1,11
 171 785 171 785 246.5 887 c 128,-1,12
 322 989 322 989 428.5 1053 c 128,-1,13
 535 1117 535 1117 649 1117 c 0,14,15
 728 1117 728 1117 805.5 1102.5 c 128,-1,16
 883 1088 883 1088 937 1067.5 c 128,-1,17
 991 1047 991 1047 1034 1026.5 c 128,-1,18
 1077 1006 1077 1006 1098 992 c 2,19,-1
 1119 977 l 1,0,-1
396 430 m 0,20,21
 396 218 396 218 530 218 c 0,22,23
 655 218 655 218 712 288 c 1,24,-1
 793 872 l 1,25,26
 747 886 747 886 680 886 c 0,27,28
 630 886 630 886 579 849 c 128,-1,29
 528 812 528 812 487.5 751.5 c 128,-1,30
 447 691 447 691 421.5 605.5 c 128,-1,31
 396 520 396 520 396 430 c 0,20,21
893 1243 m 4,32,33
 840 1243 840 1243 786 1266.5 c 132,-1,34
 732 1290 732 1290 695.5 1318.5 c 132,-1,35
 659 1347 659 1347 620.5 1370.5 c 132,-1,36
 582 1394 582 1394 557 1394 c 4,37,38
 528 1394 528 1394 510.5 1365.5 c 132,-1,39
 493 1337 493 1337 484 1269 c 5,40,-1
 290 1269 l 5,41,42
 338 1607 338 1607 552 1607 c 4,43,44
 606 1607 606 1607 656 1584.5 c 132,-1,45
 706 1562 706 1562 737.5 1535.5 c 132,-1,46
 769 1509 769 1509 808 1486.5 c 132,-1,47
 847 1464 847 1464 881 1464 c 4,48,49
 914 1464 914 1464 927.5 1484.5 c 132,-1,50
 941 1505 941 1505 950 1568 c 5,51,-1
 1154 1568 l 5,52,53
 1133 1420 1133 1420 1063 1331 c 132,-1,54
 993 1242 993 1242 893 1243 c 4,32,33
EndSplineSet
EndChar

StartChar: adieresis
Encoding: 228 228 166
Width: 1157
GlyphClass: 2
Flags: W
HStem: -15 233<340 598.871> 1 21G<754 984.807> 886 231<570.521 791.256> 1304 365<317.124 499.614 927.124 1109.61>
VStem: 80 316<255.803 651.277>
DStem2: 670.494 -15 979.808 -15 0.135716 0.990748<258.187 898.893>
LayerCount: 2
Fore
SplineSet
1119 977 m 1,0,-1
 982 1 l 1,1,-1
 759 1 l 1,2,-1
 718 165 l 1,3,4
 687 90 687 90 611.5 37.5 c 128,-1,5
 536 -15 536 -15 430 -15 c 0,6,7
 250 -15 250 -15 165 96.5 c 128,-1,8
 80 208 80 208 80 396 c 0,9,10
 80 525 80 525 125.5 655 c 128,-1,11
 171 785 171 785 246.5 887 c 128,-1,12
 322 989 322 989 428.5 1053 c 128,-1,13
 535 1117 535 1117 649 1117 c 0,14,15
 728 1117 728 1117 805.5 1102.5 c 128,-1,16
 883 1088 883 1088 937 1067.5 c 128,-1,17
 991 1047 991 1047 1034 1026.5 c 128,-1,18
 1077 1006 1077 1006 1098 992 c 2,19,-1
 1119 977 l 1,0,-1
396 430 m 0,20,21
 396 218 396 218 530 218 c 0,22,23
 655 218 655 218 712 288 c 1,24,-1
 793 872 l 1,25,26
 747 886 747 886 680 886 c 0,27,28
 630 886 630 886 579 849 c 128,-1,29
 528 812 528 812 487.5 751.5 c 128,-1,30
 447 691 447 691 421.5 605.5 c 128,-1,31
 396 520 396 520 396 430 c 0,20,21
238 1486 m 132,-1,33
 249 1562 249 1562 306 1615.5 c 132,-1,34
 363 1669 363 1669 433 1669 c 132,-1,35
 503 1669 503 1669 545.5 1615.5 c 132,-1,36
 588 1562 588 1562 577 1486 c 4,37,38
 567 1410 567 1410 510 1357 c 132,-1,39
 453 1304 453 1304 382 1304 c 4,40,41
 312 1304 312 1304 269.5 1357 c 132,-1,32
 227 1410 227 1410 238 1486 c 132,-1,33
848 1486 m 132,-1,43
 859 1562 859 1562 916 1615.5 c 132,-1,44
 973 1669 973 1669 1043 1669 c 132,-1,45
 1113 1669 1113 1669 1155.5 1615.5 c 132,-1,46
 1198 1562 1198 1562 1187 1486 c 4,47,48
 1177 1410 1177 1410 1120 1357 c 132,-1,49
 1063 1304 1063 1304 992 1304 c 4,50,51
 922 1304 922 1304 879.5 1357 c 132,-1,42
 837 1410 837 1410 848 1486 c 132,-1,43
EndSplineSet
EndChar

StartChar: aring
Encoding: 229 229 167
Width: 1157
GlyphClass: 2
Flags: W
HStem: -15 233<340 598.871> 1 21G<754 984.807> 886 231<570.521 791.256> 1243 155<574.132 815.824> 1762 155<613.135 853.556>
VStem: 80 316<255.803 651.277> 358 168<1445.46 1679.08> 902 168<1481.42 1715>
DStem2: 670.494 -15 979.808 -15 0.135716 0.990748<258.187 898.893>
LayerCount: 2
Fore
SplineSet
1119 977 m 1,0,-1
 982 1 l 1,1,-1
 759 1 l 1,2,-1
 718 165 l 1,3,4
 687 90 687 90 611.5 37.5 c 128,-1,5
 536 -15 536 -15 430 -15 c 0,6,7
 250 -15 250 -15 165 96.5 c 128,-1,8
 80 208 80 208 80 396 c 0,9,10
 80 525 80 525 125.5 655 c 128,-1,11
 171 785 171 785 246.5 887 c 128,-1,12
 322 989 322 989 428.5 1053 c 128,-1,13
 535 1117 535 1117 649 1117 c 0,14,15
 728 1117 728 1117 805.5 1102.5 c 128,-1,16
 883 1088 883 1088 937 1067.5 c 128,-1,17
 991 1047 991 1047 1034 1026.5 c 128,-1,18
 1077 1006 1077 1006 1098 992 c 2,19,-1
 1119 977 l 1,0,-1
396 430 m 0,20,21
 396 218 396 218 530 218 c 0,22,23
 655 218 655 218 712 288 c 1,24,-1
 793 872 l 1,25,26
 747 886 747 886 680 886 c 0,27,28
 630 886 630 886 579 849 c 128,-1,29
 528 812 528 812 487.5 751.5 c 128,-1,30
 447 691 447 691 421.5 605.5 c 128,-1,31
 396 520 396 520 396 430 c 0,20,21
741 1762 m 0,32,33
 662 1762 662 1762 594 1702.5 c 128,-1,34
 526 1643 526 1643 526 1556 c 0,35,36
 526 1487 526 1487 573.5 1442.5 c 128,-1,37
 621 1398 621 1398 689 1398 c 0,38,39
 768 1398 768 1398 835 1457.5 c 128,-1,40
 902 1517 902 1517 902 1604 c 0,41,42
 902 1673 902 1673 855 1717.5 c 128,-1,43
 808 1762 808 1762 741 1762 c 0,32,33
358 1534 m 0,44,45
 358 1638 358 1638 418.5 1727.5 c 128,-1,46
 479 1817 479 1817 572 1867 c 128,-1,47
 665 1917 665 1917 763 1917 c 0,48,49
 891 1917 891 1917 980.5 1835 c 128,-1,50
 1070 1753 1070 1753 1070 1627 c 0,51,52
 1070 1523 1070 1523 1011 1433.5 c 128,-1,53
 952 1344 952 1344 859.5 1293.5 c 128,-1,54
 767 1243 767 1243 667 1243 c 0,55,56
 540 1243 540 1243 449 1325.5 c 128,-1,57
 358 1408 358 1408 358 1534 c 0,44,45
EndSplineSet
EndChar

StartChar: ae
Encoding: 230 230 168
Width: 1627
GlyphClass: 2
Flags: W
HStem: -18 235<314.5 595.893 1060.05 1354.97> 468 174<1021 1359.85> 513 182<432.895 710> 878 250<401.45 720.097 1100.5 1336.36>
VStem: 85 298<243.144 463.416> 1361 252<642 856.753>
LayerCount: 2
Fore
SplineSet
617 513 m 0,0,1
 565 513 565 513 527 506.5 c 128,-1,2
 489 500 489 500 454 482 c 128,-1,3
 419 464 419 464 401 427.5 c 128,-1,4
 383 391 383 391 383 337 c 0,5,6
 383 280 383 280 413.5 248.5 c 128,-1,7
 444 217 444 217 497 217 c 0,8,9
 580 217 580 217 681 299 c 1,10,-1
 710 505 l 1,11,12
 658 513 658 513 617 513 c 0,0,1
1188 221 m 0,13,14
 1331 221 1331 221 1449 302 c 1,15,-1
 1477 80 l 1,16,17
 1300 -16 1300 -16 1103 -16 c 0,18,19
 973 -16 973 -16 900.5 35.5 c 128,-1,20
 828 87 828 87 792 200 c 1,21,22
 715 82 715 82 609 32 c 128,-1,23
 503 -18 503 -18 388 -18 c 0,24,25
 241 -18 241 -18 163 56 c 128,-1,26
 85 130 85 130 85 271 c 0,27,28
 85 370 85 370 112.5 445 c 128,-1,29
 140 520 140 520 186.5 567 c 128,-1,30
 233 614 233 614 301 643 c 128,-1,31
 369 672 369 672 442 683.5 c 128,-1,32
 515 695 515 695 603 695 c 0,33,34
 681 695 681 695 735 683 c 1,35,36
 743 745 743 745 743 767 c 0,37,38
 743 822 743 822 717 850 c 128,-1,39
 691 878 691 878 624 878 c 0,40,41
 558 878 558 878 468.5 860 c 128,-1,42
 379 842 379 842 322 824 c 2,43,-1
 266 806 l 1,44,-1
 253 1015 l 1,45,46
 330 1066 330 1066 448 1097 c 128,-1,47
 566 1128 566 1128 672 1128 c 0,48,49
 890 1128 890 1128 949 980 c 1,50,51
 1005 1056 1005 1056 1088.5 1092 c 128,-1,52
 1172 1128 1172 1128 1266 1128 c 0,53,54
 1434 1128 1434 1128 1523.5 1022.5 c 128,-1,55
 1613 917 1613 917 1613 737 c 0,56,57
 1613 688 1613 688 1605 626 c 1,58,-1
 1582 468 l 1,59,-1
 996 468 l 1,60,-1
 996 466 l 1,61,62
 994 440 994 440 994 427 c 0,63,64
 994 335 994 335 1043.5 278 c 128,-1,65
 1093 221 1093 221 1188 221 c 0,13,14
1355 642 m 1,66,67
 1361 682 1361 682 1361 719 c 0,68,69
 1361 892 1361 892 1226 892 c 0,70,71
 1146 892 1146 892 1094.5 827.5 c 128,-1,72
 1043 763 1043 763 1024 666 c 1,73,-1
 1021 642 l 1,74,-1
 1355 642 l 1,66,67
EndSplineSet
EndChar

StartChar: ccedilla
Encoding: 231 231 169
Width: 978
GlyphClass: 2
Flags: W
HStem: -680 148<295.125 549.929> -254 88<500 554.373> -15 236<537.391 804.254> 885 236<584.235 912.11>
VStem: 139 315<294.173 706.509> 595 180<-509.3 -294.508>
DStem2: 375 -254 500 -166 0.205446 0.978669<111.804 265.969>
LayerCount: 2
Fore
SplineSet
276 -626 m 1,0,-1
 295 -489 l 1,1,-1
 303 -493 l 2,2,3
 319.666 -501.333 319.666 -501.333 324.5 -503.5 c 0,4,5
 339 -510 339 -510 357 -516.5 c 128,-1,6
 375 -523 375 -523 400 -527.5 c 128,-1,7
 425 -532 425 -532 449 -532 c 0,8,9
 517 -532 517 -532 551 -510 c 128,-1,10
 585 -488 585 -488 595 -416 c 0,11,12
 606 -335 606 -335 551 -294.5 c 128,-1,13
 496 -254 496 -254 375 -254 c 1,14,-1
 428.56 1.14047 l 1,15,16
 327.463 28.826 327.463 28.826 254.5 104 c 0,17,18
 139 223 139 223 139 438 c 0,19,20
 139 588 139 588 187.5 718 c 128,-1,21
 236 848 236 848 316.5 935 c 128,-1,22
 397 1022 397 1022 501 1071.5 c 128,-1,23
 605 1121 605 1121 717 1121 c 0,24,25
 832 1121 832 1121 905 1095.5 c 128,-1,26
 978 1070 978 1070 1052 1023 c 1,27,-1
 965 803 l 1,28,29
 946 827 946 827 878 856 c 128,-1,30
 810 885 810 885 741 885 c 0,31,32
 613 885 613 885 549 808 c 0,33,34
 486 732 486 732 461 557 c 0,35,36
 454 507 454 507 454 460 c 0,37,38
 454 221 454 221 670 221 c 0,39,40
 717 221 717 221 765 237 c 128,-1,41
 813 253 813 253 832 264 c 2,42,-1
 893 303 l 1,43,-1
 918 83 l 1,44,45
 831 36 831 36 751 10.5 c 128,-1,46
 671 -15 671 -15 556 -15 c 0,47,48
 546.606 -15 546.606 -15 537.391 -14.6964 c 1,49,-1
 500 -166 l 1,50,51
 530 -166 530 -166 565.5 -172.5 c 128,-1,52
 601 -179 601 -179 642.5 -196 c 128,-1,53
 684 -213 684 -213 715.5 -239.5 c 128,-1,54
 747 -266 747 -266 764.5 -310.5 c 128,-1,55
 782 -355 782 -355 775 -410 c 0,56,57
 757 -542 757 -542 678 -611 c 128,-1,58
 599 -680 599 -680 467 -680 c 0,59,60
 449 -680 449 -680 430.5 -678 c 128,-1,61
 412 -676 412 -676 396.5 -673 c 128,-1,62
 381 -670 381 -670 366.5 -666 c 128,-1,63
 352 -662 352 -662 340 -657.5 c 128,-1,64
 328 -653 328 -653 317.5 -648.5 c 0,65,66
 302.693 -642.154 302.693 -642.154 299 -640 c 2,67,-1
 287 -633 l 2,68,69
 283 -630.667 283 -630.667 279 -628 c 2,70,-1
 276 -626 l 1,0,-1
EndSplineSet
EndChar

StartChar: egrave
Encoding: 232 232 170
Width: 1003
GlyphClass: 2
Flags: W
HStem: -15 226<485.682 773.82> 897 223<559.747 753.994>
VStem: 114 306<282.442 431 571 695.333> 776 232<684.978 874.237>
LayerCount: 2
Fore
SplineSet
434 571 m 1,0,1
 441 572 441 572 453.5 573.5 c 128,-1,2
 466 575 466 575 501.5 582 c 128,-1,3
 537 589 537 589 569 598.5 c 128,-1,4
 601 608 601 608 640.5 625.5 c 128,-1,5
 680 643 680 643 708.5 664.5 c 128,-1,6
 737 686 737 686 756.5 718.5 c 128,-1,7
 776 751 776 751 776 789 c 0,8,9
 776 836 776 836 751.5 866.5 c 128,-1,10
 727 897 727 897 673 897 c 0,11,12
 604 897 604 897 548.5 843 c 128,-1,13
 493 789 493 789 465.5 716.5 c 128,-1,14
 438 644 438 644 434 571 c 1,0,1
420 431 m 1,15,16
 420 334 420 334 469.5 272.5 c 128,-1,17
 519 211 519 211 610 211 c 0,18,19
 750 211 750 211 867 298 c 1,20,-1
 922 95 l 1,21,22
 720 -15 720 -15 526 -15 c 0,23,24
 336 -15 336 -15 225 105 c 128,-1,25
 114 225 114 225 114 429 c 0,26,27
 114 531 114 531 139 631 c 128,-1,28
 164 731 164 731 213.5 819 c 128,-1,29
 263 907 263 907 331.5 974.5 c 128,-1,30
 400 1042 400 1042 492.5 1081 c 128,-1,31
 585 1120 585 1120 689 1120 c 0,32,33
 843 1120 843 1120 925.5 1040 c 128,-1,34
 1008 960 1008 960 1008 849 c 0,35,36
 1008 646 1008 646 853.5 542 c 128,-1,37
 699 438 699 438 420 431 c 1,15,16
801 1243 m 1,38,-1
 599 1243 l 1,39,-1
 406 1951 l 1,40,-1
 801 1951 l 1,41,-1
 801 1243 l 1,38,-1
EndSplineSet
EndChar

StartChar: eacute
Encoding: 233 233 171
Width: 1003
GlyphClass: 2
Flags: W
HStem: -15 226<485.682 773.82> 897 223<559.747 753.994>
VStem: 114 306<282.442 431 571 695.333> 776 232<684.978 874.237>
LayerCount: 2
Fore
SplineSet
434 571 m 1,0,1
 441 572 441 572 453.5 573.5 c 128,-1,2
 466 575 466 575 501.5 582 c 128,-1,3
 537 589 537 589 569 598.5 c 128,-1,4
 601 608 601 608 640.5 625.5 c 128,-1,5
 680 643 680 643 708.5 664.5 c 128,-1,6
 737 686 737 686 756.5 718.5 c 128,-1,7
 776 751 776 751 776 789 c 0,8,9
 776 836 776 836 751.5 866.5 c 128,-1,10
 727 897 727 897 673 897 c 0,11,12
 604 897 604 897 548.5 843 c 128,-1,13
 493 789 493 789 465.5 716.5 c 128,-1,14
 438 644 438 644 434 571 c 1,0,1
420 431 m 1,15,16
 420 334 420 334 469.5 272.5 c 128,-1,17
 519 211 519 211 610 211 c 0,18,19
 750 211 750 211 867 298 c 1,20,-1
 922 95 l 1,21,22
 720 -15 720 -15 526 -15 c 0,23,24
 336 -15 336 -15 225 105 c 128,-1,25
 114 225 114 225 114 429 c 0,26,27
 114 531 114 531 139 631 c 128,-1,28
 164 731 164 731 213.5 819 c 128,-1,29
 263 907 263 907 331.5 974.5 c 128,-1,30
 400 1042 400 1042 492.5 1081 c 128,-1,31
 585 1120 585 1120 689 1120 c 0,32,33
 843 1120 843 1120 925.5 1040 c 128,-1,34
 1008 960 1008 960 1008 849 c 0,35,36
 1008 646 1008 646 853.5 542 c 128,-1,37
 699 438 699 438 420 431 c 1,15,16
801 1243 m 1,38,-1
 600 1243 l 1,39,-1
 795 1927 l 1,40,-1
 1184 1927 l 1,41,-1
 801 1243 l 1,38,-1
EndSplineSet
EndChar

StartChar: ecircumflex
Encoding: 234 234 172
Width: 1003
GlyphClass: 2
Flags: W
HStem: -15 226<485.682 773.82> 897 223<559.747 753.994>
VStem: 114 306<282.442 431 571 695.333> 776 232<684.978 874.237>
LayerCount: 2
Fore
SplineSet
434 571 m 1,0,1
 441 572 441 572 453.5 573.5 c 128,-1,2
 466 575 466 575 501.5 582 c 128,-1,3
 537 589 537 589 569 598.5 c 128,-1,4
 601 608 601 608 640.5 625.5 c 128,-1,5
 680 643 680 643 708.5 664.5 c 128,-1,6
 737 686 737 686 756.5 718.5 c 128,-1,7
 776 751 776 751 776 789 c 0,8,9
 776 836 776 836 751.5 866.5 c 128,-1,10
 727 897 727 897 673 897 c 0,11,12
 604 897 604 897 548.5 843 c 128,-1,13
 493 789 493 789 465.5 716.5 c 128,-1,14
 438 644 438 644 434 571 c 1,0,1
420 431 m 1,15,16
 420 334 420 334 469.5 272.5 c 128,-1,17
 519 211 519 211 610 211 c 0,18,19
 750 211 750 211 867 298 c 1,20,-1
 922 95 l 1,21,22
 720 -15 720 -15 526 -15 c 0,23,24
 336 -15 336 -15 225 105 c 128,-1,25
 114 225 114 225 114 429 c 0,26,27
 114 531 114 531 139 631 c 128,-1,28
 164 731 164 731 213.5 819 c 128,-1,29
 263 907 263 907 331.5 974.5 c 128,-1,30
 400 1042 400 1042 492.5 1081 c 128,-1,31
 585 1120 585 1120 689 1120 c 0,32,33
 843 1120 843 1120 925.5 1040 c 128,-1,34
 1008 960 1008 960 1008 849 c 0,35,36
 1008 646 1008 646 853.5 542 c 128,-1,37
 699 438 699 438 420 431 c 1,15,16
665 1882 m 1,38,-1
 891 1882 l 1,39,-1
 1060 1243 l 1,40,-1
 810 1243 l 1,41,-1
 745 1557 l 1,42,-1
 603 1243 l 1,43,-1
 341 1243 l 1,44,-1
 665 1882 l 1,38,-1
EndSplineSet
EndChar

StartChar: edieresis
Encoding: 235 235 173
Width: 1003
GlyphClass: 2
Flags: W
HStem: -15 226<485.682 773.82> 897 223<559.747 753.994> 1304 365<330.124 512.614 940.124 1122.61>
VStem: 114 306<282.442 431 571 695.333> 776 232<684.978 874.237>
LayerCount: 2
Fore
SplineSet
434 571 m 1,0,1
 441 572 441 572 453.5 573.5 c 128,-1,2
 466 575 466 575 501.5 582 c 128,-1,3
 537 589 537 589 569 598.5 c 128,-1,4
 601 608 601 608 640.5 625.5 c 128,-1,5
 680 643 680 643 708.5 664.5 c 128,-1,6
 737 686 737 686 756.5 718.5 c 128,-1,7
 776 751 776 751 776 789 c 0,8,9
 776 836 776 836 751.5 866.5 c 128,-1,10
 727 897 727 897 673 897 c 0,11,12
 604 897 604 897 548.5 843 c 128,-1,13
 493 789 493 789 465.5 716.5 c 128,-1,14
 438 644 438 644 434 571 c 1,0,1
420 431 m 1,15,16
 420 334 420 334 469.5 272.5 c 128,-1,17
 519 211 519 211 610 211 c 0,18,19
 750 211 750 211 867 298 c 1,20,-1
 922 95 l 1,21,22
 720 -15 720 -15 526 -15 c 0,23,24
 336 -15 336 -15 225 105 c 128,-1,25
 114 225 114 225 114 429 c 0,26,27
 114 531 114 531 139 631 c 128,-1,28
 164 731 164 731 213.5 819 c 128,-1,29
 263 907 263 907 331.5 974.5 c 128,-1,30
 400 1042 400 1042 492.5 1081 c 128,-1,31
 585 1120 585 1120 689 1120 c 0,32,33
 843 1120 843 1120 925.5 1040 c 128,-1,34
 1008 960 1008 960 1008 849 c 0,35,36
 1008 646 1008 646 853.5 542 c 128,-1,37
 699 438 699 438 420 431 c 1,15,16
251 1486 m 128,-1,39
 262 1562 262 1562 319 1615.5 c 128,-1,40
 376 1669 376 1669 446 1669 c 128,-1,41
 516 1669 516 1669 558.5 1615.5 c 128,-1,42
 601 1562 601 1562 590 1486 c 0,43,44
 580 1410 580 1410 523 1357 c 128,-1,45
 466 1304 466 1304 395 1304 c 0,46,47
 325 1304 325 1304 282.5 1357 c 128,-1,38
 240 1410 240 1410 251 1486 c 128,-1,39
861 1486 m 128,-1,49
 872 1562 872 1562 929 1615.5 c 128,-1,50
 986 1669 986 1669 1056 1669 c 128,-1,51
 1126 1669 1126 1669 1168.5 1615.5 c 128,-1,52
 1211 1562 1211 1562 1200 1486 c 0,53,54
 1190 1410 1190 1410 1133 1357 c 128,-1,55
 1076 1304 1076 1304 1005 1304 c 0,56,57
 935 1304 935 1304 892.5 1357 c 128,-1,48
 850 1410 850 1410 861 1486 c 128,-1,49
EndSplineSet
EndChar

StartChar: igrave
Encoding: 236 236 174
Width: 639
GlyphClass: 2
Flags: W
HStem: 0 21G<130 443.847> 1083 20G<284.153 598>
VStem: 130 468
DStem2: 130 0 441 0 0.135716 0.990748<42.2075 1114.1>
LayerCount: 2
Fore
SplineSet
441 0 m 1,0,-1
 130 0 l 1,1,-1
 287 1103 l 1,2,-1
 598 1103 l 1,3,-1
 441 0 l 1,0,-1
545 1243 m 5,4,-1
 343 1243 l 5,5,-1
 150 1951 l 5,6,-1
 545 1951 l 5,7,-1
 545 1243 l 5,4,-1
EndSplineSet
EndChar

StartChar: iacute
Encoding: 237 237 175
Width: 639
GlyphClass: 2
Flags: W
HStem: 0 21G<130 443.847> 1083 20G<284.153 598>
DStem2: 130 0 441 0 0.135716 0.990748<42.2075 1114.1>
LayerCount: 2
Fore
SplineSet
441 0 m 1,0,-1
 130 0 l 1,1,-1
 287 1103 l 1,2,-1
 598 1103 l 1,3,-1
 441 0 l 1,0,-1
535 1243 m 5,4,-1
 334 1243 l 5,5,-1
 529 1927 l 5,6,-1
 918 1927 l 5,7,-1
 535 1243 l 5,4,-1
EndSplineSet
EndChar

StartChar: icircumflex
Encoding: 238 238 176
Width: 639
GlyphClass: 2
Flags: W
HStem: 0 21G<130 443.847> 1083 20G<284.153 598>
DStem2: 130 0 441 0 0.135716 0.990748<42.2075 1114.1>
LayerCount: 2
Fore
SplineSet
441 0 m 1,0,-1
 130 0 l 1,1,-1
 287 1103 l 1,2,-1
 598 1103 l 1,3,-1
 441 0 l 1,0,-1
428 1882 m 5,4,-1
 654 1882 l 5,5,-1
 823 1243 l 5,6,-1
 573 1243 l 5,7,-1
 508 1557 l 5,8,-1
 366 1243 l 5,9,-1
 104 1243 l 5,10,-1
 428 1882 l 5,4,-1
EndSplineSet
EndChar

StartChar: idieresis
Encoding: 239 239 177
Width: 639
GlyphClass: 2
Flags: W
HStem: 0 21G<130 443.847> 1083 20G<284.153 598> 1304 365<109.124 291.614 719.124 901.614>
DStem2: 130 0 441 0 0.135716 0.990748<42.2075 1114.1>
LayerCount: 2
Fore
SplineSet
441 0 m 1,0,-1
 130 0 l 1,1,-1
 287 1103 l 1,2,-1
 598 1103 l 1,3,-1
 441 0 l 1,0,-1
30 1486 m 128,-1,5
 41 1562 41 1562 98 1615.5 c 128,-1,6
 155 1669 155 1669 225 1669 c 128,-1,7
 295 1669 295 1669 337.5 1615.5 c 128,-1,8
 380 1562 380 1562 369 1486 c 0,9,10
 359 1410 359 1410 302 1357 c 128,-1,11
 245 1304 245 1304 174 1304 c 0,12,13
 104 1304 104 1304 61.5 1357 c 128,-1,4
 19 1410 19 1410 30 1486 c 128,-1,5
640 1486 m 128,-1,15
 651 1562 651 1562 708 1615.5 c 128,-1,16
 765 1669 765 1669 835 1669 c 128,-1,17
 905 1669 905 1669 947.5 1615.5 c 128,-1,18
 990 1562 990 1562 979 1486 c 0,19,20
 969 1410 969 1410 912 1357 c 128,-1,21
 855 1304 855 1304 784 1304 c 0,22,23
 714 1304 714 1304 671.5 1357 c 128,-1,14
 629 1410 629 1410 640 1486 c 128,-1,15
EndSplineSet
EndChar

StartChar: eth
Encoding: 240 240 178
Width: 1185
GlyphClass: 2
Flags: W
HStem: -16 236<458.265 661.825> 894 234<523.086 752.662>
VStem: 106 311<260.484 716.885> 835 279<988 1174.23>
DStem2: 509 1379 567 1236 0.936454 0.350789<4.15151 145.248 463.655 655.665>
LayerCount: 2
Fore
SplineSet
427 557 m 0,0,1
 417 489 417 489 417 434 c 0,2,3
 417 220 417 220 553 220 c 0,4,5
 642 220 642 220 697.5 310 c 128,-1,6
 753 400 753 400 771 528 c 2,7,-1
 810 805 l 1,8,9
 738 894 738 894 621 894 c 0,10,11
 582 894 582 894 551 873 c 128,-1,12
 520 852 520 852 500.5 821.5 c 128,-1,13
 481 791 481 791 466 742.5 c 128,-1,14
 451 694 451 694 443 653.5 c 128,-1,15
 435 613 435 613 427 557 c 0,0,1
106 417 m 0,16,17
 106 496 106 496 119 577.5 c 128,-1,18
 132 659 132 659 157.5 739 c 128,-1,19
 183 819 183 819 223.5 889 c 128,-1,20
 264 959 264 959 315.5 1012.5 c 128,-1,21
 367 1066 367 1066 437 1097 c 128,-1,22
 507 1128 507 1128 586 1128 c 0,23,24
 765 1128 765 1128 835 988 c 1,25,26
 838 1110 838 1110 731 1298 c 1,27,-1
 567 1236 l 1,28,-1
 509 1379 l 1,29,-1
 645 1430 l 1,30,31
 582 1513 582 1513 526 1557 c 1,32,-1
 683 1752 l 1,33,34
 826 1639 826 1639 911 1530 c 1,35,-1
 1123 1609 l 1,36,-1
 1178 1467 l 1,37,-1
 997 1398 l 1,38,39
 1114 1179 1114 1179 1114 876 c 0,40,41
 1114 760 1114 760 1094 612 c 0,42,43
 1049 291 1049 291 890 137.5 c 128,-1,44
 731 -16 731 -16 480 -16 c 0,45,46
 382 -16 382 -16 308.5 16.5 c 128,-1,47
 235 49 235 49 191.5 109 c 128,-1,48
 148 169 148 169 127 245.5 c 128,-1,49
 106 322 106 322 106 417 c 0,16,17
EndSplineSet
EndChar

StartChar: ntilde
Encoding: 241 241 179
Width: 1158
GlyphClass: 2
Flags: W
HStem: 0 21G<69 384.808 678 993.789> 885 234<626.614 866.5> 1083 20G<220.208 465.714> 1243 221<780.085 934.073> 1394 213<516.112 660.338>
VStem: 297 194<1269 1364.6> 780 314<416.539 860.847> 957 204<1485.15 1568>
DStem2: 69 0 382 0 0.135716 0.990748<42.479 908.609> 663 1584.5 627.5 1370.5 0.898123 -0.439745<-4.43566 254.109> 678 0 991 0 0.135716 0.990748<42.479 765.756>
LayerCount: 2
Fore
SplineSet
774 683 m 2,0,1
 780 726 780 726 780 760 c 0,2,3
 780 826 780 826 752.5 855.5 c 128,-1,4
 725 885 725 885 662 885 c 0,5,6
 564 885 564 885 496 812 c 1,7,-1
 382 0 l 1,8,-1
 69 0 l 1,9,-1
 223 1103 l 1,10,-1
 460 1103 l 1,11,-1
 500 963 l 1,12,13
 547 1028 547 1028 624.5 1073.5 c 128,-1,14
 702 1119 702 1119 787 1119 c 0,15,16
 946 1119 946 1119 1020 1040 c 128,-1,17
 1094 961 1094 961 1094 801 c 0,18,19
 1094 737 1094 737 1084 667 c 2,20,-1
 991 0 l 1,21,-1
 678 0 l 1,22,-1
 774 683 l 2,0,1
900 1243 m 0,23,24
 847 1243 847 1243 793 1266.5 c 128,-1,25
 739 1290 739 1290 702.5 1318.5 c 128,-1,26
 666 1347 666 1347 627.5 1370.5 c 128,-1,27
 589 1394 589 1394 564 1394 c 0,28,29
 535 1394 535 1394 517.5 1365.5 c 128,-1,30
 500 1337 500 1337 491 1269 c 1,31,-1
 297 1269 l 1,32,33
 345 1607 345 1607 559 1607 c 0,34,35
 613 1607 613 1607 663 1584.5 c 128,-1,36
 713 1562 713 1562 744.5 1535.5 c 128,-1,37
 776 1509 776 1509 815 1486.5 c 128,-1,38
 854 1464 854 1464 888 1464 c 0,39,40
 921 1464 921 1464 934.5 1484.5 c 128,-1,41
 948 1505 948 1505 957 1568 c 1,42,-1
 1161 1568 l 1,43,44
 1140 1420 1140 1420 1070 1331 c 128,-1,45
 1000 1242 1000 1242 900 1243 c 0,23,24
EndSplineSet
EndChar

StartChar: ograve
Encoding: 242 242 180
Width: 1140
GlyphClass: 2
Flags: W
HStem: -16 234<458.971 682.281> 885 236<536.569 767.151>
VStem: 101 311<265.208 705.752> 809 309<402.685 833.94>
LayerCount: 2
Fore
SplineSet
101 425 m 0,0,1
 101 483 101 483 108.5 543.5 c 128,-1,2
 116 604 116 604 135.5 673 c 128,-1,3
 155 742 155 742 184.5 805 c 128,-1,4
 214 868 214 868 261 926.5 c 128,-1,5
 308 985 308 985 367.5 1027.5 c 128,-1,6
 427 1070 427 1070 510 1095.5 c 128,-1,7
 593 1121 593 1121 691 1121 c 0,8,9
 900 1121 900 1121 1009 1006 c 128,-1,10
 1118 891 1118 891 1118 681 c 0,11,12
 1118 623 1118 623 1110.5 562 c 128,-1,13
 1103 501 1103 501 1083.5 432 c 128,-1,14
 1064 363 1064 363 1035 300 c 128,-1,15
 1006 237 1006 237 958.5 178.5 c 128,-1,16
 911 120 911 120 852 77.5 c 128,-1,17
 793 35 793 35 710 9.5 c 128,-1,18
 627 -16 627 -16 530 -16 c 0,19,20
 320 -16 320 -16 210.5 100 c 128,-1,21
 101 216 101 216 101 425 c 0,0,1
563 218 m 0,22,23
 659 218 659 218 717 301.5 c 128,-1,24
 775 385 775 385 799 555 c 1,25,26
 809 633 809 633 809 681 c 0,27,28
 809 786 809 786 772 835.5 c 128,-1,29
 735 885 735 885 658 885 c 0,30,31
 561 885 561 885 503.5 804.5 c 128,-1,32
 446 724 446 724 422 555 c 0,33,34
 412 488 412 488 412 429 c 0,35,36
 412 218 412 218 563 218 c 0,22,23
806 1243 m 1,37,-1
 604 1243 l 1,38,-1
 411 1951 l 1,39,-1
 806 1951 l 1,40,-1
 806 1243 l 1,37,-1
EndSplineSet
EndChar

StartChar: oacute
Encoding: 243 243 181
Width: 1140
GlyphClass: 2
Flags: W
HStem: -16 234<458.971 682.281> 885 236<536.569 767.151>
VStem: 101 311<265.208 705.752> 809 309<402.685 833.94>
LayerCount: 2
Fore
SplineSet
101 425 m 0,0,1
 101 483 101 483 108.5 543.5 c 128,-1,2
 116 604 116 604 135.5 673 c 128,-1,3
 155 742 155 742 184.5 805 c 128,-1,4
 214 868 214 868 261 926.5 c 128,-1,5
 308 985 308 985 367.5 1027.5 c 128,-1,6
 427 1070 427 1070 510 1095.5 c 128,-1,7
 593 1121 593 1121 691 1121 c 0,8,9
 900 1121 900 1121 1009 1006 c 128,-1,10
 1118 891 1118 891 1118 681 c 0,11,12
 1118 623 1118 623 1110.5 562 c 128,-1,13
 1103 501 1103 501 1083.5 432 c 128,-1,14
 1064 363 1064 363 1035 300 c 128,-1,15
 1006 237 1006 237 958.5 178.5 c 128,-1,16
 911 120 911 120 852 77.5 c 128,-1,17
 793 35 793 35 710 9.5 c 128,-1,18
 627 -16 627 -16 530 -16 c 0,19,20
 320 -16 320 -16 210.5 100 c 128,-1,21
 101 216 101 216 101 425 c 0,0,1
563 218 m 0,22,23
 659 218 659 218 717 301.5 c 128,-1,24
 775 385 775 385 799 555 c 1,25,26
 809 633 809 633 809 681 c 0,27,28
 809 786 809 786 772 835.5 c 128,-1,29
 735 885 735 885 658 885 c 0,30,31
 561 885 561 885 503.5 804.5 c 128,-1,32
 446 724 446 724 422 555 c 0,33,34
 412 488 412 488 412 429 c 0,35,36
 412 218 412 218 563 218 c 0,22,23
805 1243 m 1,37,-1
 604 1243 l 1,38,-1
 799 1927 l 1,39,-1
 1188 1927 l 1,40,-1
 805 1243 l 1,37,-1
EndSplineSet
EndChar

StartChar: ocircumflex
Encoding: 244 244 182
Width: 1140
GlyphClass: 2
Flags: W
HStem: -16 234<458.971 682.281> 885 236<536.569 767.151>
VStem: 101 311<265.208 705.752> 809 309<402.685 833.94>
LayerCount: 2
Fore
SplineSet
101 425 m 0,0,1
 101 483 101 483 108.5 543.5 c 128,-1,2
 116 604 116 604 135.5 673 c 128,-1,3
 155 742 155 742 184.5 805 c 128,-1,4
 214 868 214 868 261 926.5 c 128,-1,5
 308 985 308 985 367.5 1027.5 c 128,-1,6
 427 1070 427 1070 510 1095.5 c 128,-1,7
 593 1121 593 1121 691 1121 c 0,8,9
 900 1121 900 1121 1009 1006 c 128,-1,10
 1118 891 1118 891 1118 681 c 0,11,12
 1118 623 1118 623 1110.5 562 c 128,-1,13
 1103 501 1103 501 1083.5 432 c 128,-1,14
 1064 363 1064 363 1035 300 c 128,-1,15
 1006 237 1006 237 958.5 178.5 c 128,-1,16
 911 120 911 120 852 77.5 c 128,-1,17
 793 35 793 35 710 9.5 c 128,-1,18
 627 -16 627 -16 530 -16 c 0,19,20
 320 -16 320 -16 210.5 100 c 128,-1,21
 101 216 101 216 101 425 c 0,0,1
563 218 m 0,22,23
 659 218 659 218 717 301.5 c 128,-1,24
 775 385 775 385 799 555 c 1,25,26
 809 633 809 633 809 681 c 0,27,28
 809 786 809 786 772 835.5 c 128,-1,29
 735 885 735 885 658 885 c 0,30,31
 561 885 561 885 503.5 804.5 c 128,-1,32
 446 724 446 724 422 555 c 0,33,34
 412 488 412 488 412 429 c 0,35,36
 412 218 412 218 563 218 c 0,22,23
669 1882 m 1,37,-1
 895 1882 l 1,38,-1
 1064 1243 l 1,39,-1
 814 1243 l 1,40,-1
 749 1557 l 1,41,-1
 607 1243 l 1,42,-1
 345 1243 l 1,43,-1
 669 1882 l 1,37,-1
EndSplineSet
EndChar

StartChar: otilde
Encoding: 245 245 183
Width: 1140
GlyphClass: 2
Flags: W
HStem: -16 234<458.971 682.281> 885 236<536.569 767.151> 1243 221<781.085 935.073> 1394 213<517.112 661.338>
VStem: 101 311<265.208 705.752> 298 194<1269 1364.6> 809 309<402.685 833.94> 958 204<1485.15 1568>
DStem2: 664 1584.5 628.5 1370.5 0.898123 -0.439745<-4.43566 254.109>
LayerCount: 2
Fore
SplineSet
101 425 m 0,0,1
 101 483 101 483 108.5 543.5 c 128,-1,2
 116 604 116 604 135.5 673 c 128,-1,3
 155 742 155 742 184.5 805 c 128,-1,4
 214 868 214 868 261 926.5 c 128,-1,5
 308 985 308 985 367.5 1027.5 c 128,-1,6
 427 1070 427 1070 510 1095.5 c 128,-1,7
 593 1121 593 1121 691 1121 c 0,8,9
 900 1121 900 1121 1009 1006 c 128,-1,10
 1118 891 1118 891 1118 681 c 0,11,12
 1118 623 1118 623 1110.5 562 c 128,-1,13
 1103 501 1103 501 1083.5 432 c 128,-1,14
 1064 363 1064 363 1035 300 c 128,-1,15
 1006 237 1006 237 958.5 178.5 c 128,-1,16
 911 120 911 120 852 77.5 c 128,-1,17
 793 35 793 35 710 9.5 c 128,-1,18
 627 -16 627 -16 530 -16 c 0,19,20
 320 -16 320 -16 210.5 100 c 128,-1,21
 101 216 101 216 101 425 c 0,0,1
563 218 m 0,22,23
 659 218 659 218 717 301.5 c 128,-1,24
 775 385 775 385 799 555 c 1,25,26
 809 633 809 633 809 681 c 0,27,28
 809 786 809 786 772 835.5 c 128,-1,29
 735 885 735 885 658 885 c 0,30,31
 561 885 561 885 503.5 804.5 c 128,-1,32
 446 724 446 724 422 555 c 0,33,34
 412 488 412 488 412 429 c 0,35,36
 412 218 412 218 563 218 c 0,22,23
901 1243 m 0,37,38
 848 1243 848 1243 794 1266.5 c 128,-1,39
 740 1290 740 1290 703.5 1318.5 c 128,-1,40
 667 1347 667 1347 628.5 1370.5 c 128,-1,41
 590 1394 590 1394 565 1394 c 0,42,43
 536 1394 536 1394 518.5 1365.5 c 128,-1,44
 501 1337 501 1337 492 1269 c 1,45,-1
 298 1269 l 1,46,47
 346 1607 346 1607 560 1607 c 0,48,49
 614 1607 614 1607 664 1584.5 c 128,-1,50
 714 1562 714 1562 745.5 1535.5 c 128,-1,51
 777 1509 777 1509 816 1486.5 c 128,-1,52
 855 1464 855 1464 889 1464 c 0,53,54
 922 1464 922 1464 935.5 1484.5 c 128,-1,55
 949 1505 949 1505 958 1568 c 1,56,-1
 1162 1568 l 1,57,58
 1141 1420 1141 1420 1071 1331 c 128,-1,59
 1001 1242 1001 1242 901 1243 c 0,37,38
EndSplineSet
EndChar

StartChar: odieresis
Encoding: 246 246 184
Width: 1140
GlyphClass: 2
Flags: W
HStem: -16 234<458.971 682.281> 885 236<536.569 767.151> 1302 365<335.124 517.614 945.124 1127.61>
VStem: 101 311<265.208 705.752> 809 309<402.685 833.94>
LayerCount: 2
Fore
SplineSet
101 425 m 0,0,1
 101 483 101 483 108.5 543.5 c 128,-1,2
 116 604 116 604 135.5 673 c 128,-1,3
 155 742 155 742 184.5 805 c 128,-1,4
 214 868 214 868 261 926.5 c 128,-1,5
 308 985 308 985 367.5 1027.5 c 128,-1,6
 427 1070 427 1070 510 1095.5 c 128,-1,7
 593 1121 593 1121 691 1121 c 0,8,9
 900 1121 900 1121 1009 1006 c 128,-1,10
 1118 891 1118 891 1118 681 c 0,11,12
 1118 623 1118 623 1110.5 562 c 128,-1,13
 1103 501 1103 501 1083.5 432 c 128,-1,14
 1064 363 1064 363 1035 300 c 128,-1,15
 1006 237 1006 237 958.5 178.5 c 128,-1,16
 911 120 911 120 852 77.5 c 128,-1,17
 793 35 793 35 710 9.5 c 128,-1,18
 627 -16 627 -16 530 -16 c 0,19,20
 320 -16 320 -16 210.5 100 c 128,-1,21
 101 216 101 216 101 425 c 0,0,1
563 218 m 0,22,23
 659 218 659 218 717 301.5 c 128,-1,24
 775 385 775 385 799 555 c 1,25,26
 809 633 809 633 809 681 c 0,27,28
 809 786 809 786 772 835.5 c 128,-1,29
 735 885 735 885 658 885 c 0,30,31
 561 885 561 885 503.5 804.5 c 128,-1,32
 446 724 446 724 422 555 c 0,33,34
 412 488 412 488 412 429 c 0,35,36
 412 218 412 218 563 218 c 0,22,23
256 1484 m 128,-1,38
 267 1560 267 1560 324 1613.5 c 128,-1,39
 381 1667 381 1667 451 1667 c 128,-1,40
 521 1667 521 1667 563.5 1613.5 c 128,-1,41
 606 1560 606 1560 595 1484 c 0,42,43
 585 1408 585 1408 528 1355 c 128,-1,44
 471 1302 471 1302 400 1302 c 0,45,46
 330 1302 330 1302 287.5 1355 c 128,-1,37
 245 1408 245 1408 256 1484 c 128,-1,38
866 1484 m 128,-1,48
 877 1560 877 1560 934 1613.5 c 128,-1,49
 991 1667 991 1667 1061 1667 c 128,-1,50
 1131 1667 1131 1667 1173.5 1613.5 c 128,-1,51
 1216 1560 1216 1560 1205 1484 c 0,52,53
 1195 1408 1195 1408 1138 1355 c 128,-1,54
 1081 1302 1081 1302 1010 1302 c 0,55,56
 940 1302 940 1302 897.5 1355 c 128,-1,47
 855 1408 855 1408 866 1484 c 128,-1,48
EndSplineSet
EndChar

StartChar: divide
Encoding: 247 247 185
Width: 1252
GlyphClass: 2
Flags: W
HStem: 117 365<538.872 721.5> 580 262<240 1129> 939 365<648.872 831.5>
VStem: 459 343<198.745 400.275> 569 343<1020.74 1222.27>
LayerCount: 2
Fore
SplineSet
1129 580 m 1,0,-1
 203 580 l 1,1,-1
 240 842 l 1,2,-1
 1166 842 l 1,3,-1
 1129 580 l 1,0,-1
569 1095 m 4,4,5
 569 1177 569 1177 628 1240.5 c 132,-1,6
 687 1304 687 1304 766 1304 c 4,7,8
 829 1304 829 1304 870.5 1259.5 c 132,-1,9
 912 1215 912 1215 912 1149 c 4,10,11
 912 1066 912 1066 852.5 1002.5 c 132,-1,12
 793 939 793 939 715 939 c 4,13,14
 652 939 652 939 610.5 984 c 132,-1,15
 569 1029 569 1029 569 1095 c 4,4,5
459 273 m 0,16,17
 459 355 459 355 518 418.5 c 128,-1,18
 577 482 577 482 656 482 c 0,19,20
 719 482 719 482 760.5 437.5 c 128,-1,21
 802 393 802 393 802 327 c 0,22,23
 802 244 802 244 742.5 180.5 c 128,-1,24
 683 117 683 117 605 117 c 0,25,26
 542 117 542 117 500.5 162 c 128,-1,27
 459 207 459 207 459 273 c 0,16,17
EndSplineSet
EndChar

StartChar: oslash
Encoding: 248 248 186
Width: 1140
GlyphClass: 2
Flags: W
HStem: -16 192<550 683.379> 927 194<527.286 707>
VStem: 98 277<237.365 702.301> 839 276<405.329 871.39>
DStem2: 346 -151 432 -177 0.318497 0.947924<2.74475 157.166 374.945 1120.92 1345.44 1585.57>
LayerCount: 2
Fore
SplineSet
552 176 m 2,0,1
 664 176 664 176 731.5 270 c 128,-1,2
 799 364 799 364 828 555 c 1,3,4
 839 638 839 638 839 697 c 0,5,6
 839 828 839 828 785 884 c 1,7,-1
 550 176 l 1,8,-1
 552 176 l 2,0,1
98 425 m 0,9,10
 98 483 98 483 105.5 543.5 c 128,-1,11
 113 604 113 604 132.5 673 c 128,-1,12
 152 742 152 742 181.5 805 c 128,-1,13
 211 868 211 868 258 926.5 c 128,-1,14
 305 985 305 985 364.5 1027.5 c 128,-1,15
 424 1070 424 1070 507 1095.5 c 128,-1,16
 590 1121 590 1121 688 1121 c 0,17,18
 727 1121 727 1121 772 1116 c 1,19,-1
 851 1352 l 1,20,-1
 932 1326 l 1,21,-1
 856 1097 l 1,22,23
 983 1057 983 1057 1049 950 c 128,-1,24
 1115 843 1115 843 1115 681 c 0,25,26
 1115 623 1115 623 1107.5 562 c 128,-1,27
 1100 501 1100 501 1080.5 432 c 128,-1,28
 1061 363 1061 363 1032 300 c 128,-1,29
 1003 237 1003 237 955.5 178.5 c 128,-1,30
 908 120 908 120 849 77.5 c 128,-1,31
 790 35 790 35 707 9.5 c 128,-1,32
 624 -16 624 -16 527 -16 c 0,33,34
 499 -16 499 -16 486 -15 c 1,35,-1
 432 -177 l 1,36,-1
 346 -151 l 1,37,-1
 396 -2 l 1,38,39
 250 31 250 31 174 141.5 c 128,-1,40
 98 252 98 252 98 425 c 0,9,10
463 197 m 1,41,-1
 707 923 l 1,42,43
 679 927 679 927 663 927 c 0,44,45
 550 927 550 927 482.5 836 c 128,-1,46
 415 745 415 745 387 555 c 0,47,48
 375 477 375 477 375 414 c 0,49,50
 375 245 375 245 463 197 c 1,41,-1
EndSplineSet
EndChar

StartChar: ugrave
Encoding: 249 249 187
Width: 1218
GlyphClass: 2
Flags: W
HStem: 0 21G<369.5 503.5 758.611 987.777> 1082 20G<200.232 516 822.253 1138>
VStem: 104 314<255.087 707.477>
DStem2: 48.9331 -16 362.495 -16 0.135716 0.990748<418.741 1128.57> 671.535 -16 982.808 -16 0.135716 0.990748<265.42 1128.48>
LayerCount: 2
Fore
SplineSet
424 433 m 2,0,1
 418 390 418 390 418 355 c 0,2,3
 418 295 418 295 453.5 258.5 c 128,-1,4
 489 222 489 222 544 218 c 1,5,6
 654 226 654 226 714 294 c 1,7,-1
 825 1102 l 1,8,-1
 1138 1102 l 1,9,-1
 985 0 l 1,10,-1
 764 0 l 1,11,-1
 719 167 l 1,12,13
 691 95 691 95 622.5 39.5 c 128,-1,14
 554 -16 554 -16 453 -16 c 0,15,16
 286 -16 286 -16 195 71 c 128,-1,17
 104 158 104 158 104 324 c 0,18,19
 104 389 104 389 114 459 c 2,20,-1
 203 1102 l 1,21,-1
 516 1102 l 1,22,-1
 424 433 l 2,0,1
778 1243 m 1,23,-1
 576 1243 l 1,24,-1
 383 1951 l 1,25,-1
 778 1951 l 1,26,-1
 778 1243 l 1,23,-1
EndSplineSet
EndChar

